<svg width="41" height="41" viewBox="0 0 41 41" fill="none" xmlns="http://www.w3.org/2000/svg">
<path d="M18.3361 19.0597C18.3361 19.0597 19.2048 15.6869 18.4645 14.1545C17.5009 12.1598 13.2288 9.92419 13.2288 9.92419C13.2288 9.92419 12.4885 13.4682 13.2288 15.0006C14.1924 16.9953 18.3361 19.0597 18.3361 19.0597V19.0597Z" stroke="#FF9900" stroke-width="2" stroke-linecap="round" stroke-linejoin="round"/>
<path d="M20.8188 32.768C20.8188 32.768 20.1314 29.224 20.8188 27.6916C21.7136 25.6969 25.6806 23.4613 25.6806 23.4613C25.6806 23.4613 26.368 27.0053 25.6806 28.5377C24.7858 30.5324 20.8188 32.768 20.8188 32.768Z" stroke="#FF9900" stroke-width="2" stroke-linecap="round" stroke-linejoin="round"/>
<path fill-rule="evenodd" clip-rule="evenodd" d="M14.9064 20.0788C14.7147 20.0822 14.5299 20.1505 14.3822 20.2727C14.2345 20.3949 14.1327 20.5636 14.0934 20.7512C14.0934 20.7512 13.8983 21.6812 13.8009 22.8151C13.7461 23.4532 13.7126 24.1476 13.7761 24.8312L15.4781 23.1291C15.4819 23.0733 15.4817 23.0153 15.4864 22.9606C15.5171 22.6039 15.5382 22.5942 15.579 22.3095C15.7681 22.4186 15.8944 22.486 16.0384 22.5689L17.2612 21.3461C16.2147 20.667 15.3129 20.1745 15.3129 20.1745C15.1875 20.1091 15.0478 20.0762 14.9064 20.0788V20.0788ZM19.953 23.4414L18.7219 24.6725C19.0228 24.9845 19.2793 25.2835 19.3945 25.5219C19.6055 25.9585 19.6788 27.1729 19.5911 28.194C19.5605 28.5507 19.5394 28.5603 19.4986 28.845C19.095 28.6119 18.9672 28.5659 18.3766 28.1642C17.7641 27.7477 17.1402 27.2447 16.6316 26.7629L15.4054 27.989C16.0272 28.5816 16.7478 29.1018 17.4248 29.5622C18.6582 30.401 19.7646 30.98 19.7646 30.98C19.8805 31.0404 20.0088 31.0732 20.1395 31.0757C20.2701 31.0783 20.3996 31.0506 20.5177 30.9948C20.6359 30.9389 20.7395 30.8564 20.8204 30.7538C20.9013 30.6512 20.9574 30.5312 20.9842 30.4033C20.9842 30.4033 21.1793 29.4732 21.2767 28.3393C21.374 27.2054 21.4474 25.8823 20.9181 24.7865C20.6829 24.2998 20.3453 23.8535 19.953 23.4414V23.4414Z" fill="#FF9900"/>
<path fill-rule="evenodd" clip-rule="evenodd" d="M24.7799 13.3101C24.6536 13.3185 24.53 13.3473 24.418 13.4059C24.418 13.4059 23.3115 13.9833 22.0781 14.8221C20.8447 15.6609 19.4538 16.6911 18.8128 18.0179C18.4855 18.6955 19.1172 17.1733 18.9316 19.647L25.2013 13.4059C25.0715 13.3382 24.9263 13.305 24.7799 13.3101ZM25.9879 17.4066L19.1846 24.2097C19.4293 24.3377 19.7211 24.3384 19.9663 24.2097C19.9663 24.2097 21.0727 23.6307 22.3062 22.7919C23.5396 21.9531 24.9305 20.9245 25.5714 19.5977C25.8985 18.9206 25.9845 18.1573 25.9879 17.4048V17.4066Z" fill="#FF9900"/>
<path d="M20.5019 31.0878L21.3442 36.5633" stroke="#FF9900" stroke-width="2" stroke-linecap="round" stroke-linejoin="round"/>
<path d="M19.1683 14.1546C19.1683 14.1546 17.4964 10.0422 18.1198 8.08971C18.6527 6.42042 21.8417 4.42468 21.8417 4.42468C21.8417 4.42468 23.4205 8.13829 22.9276 9.9476C22.4303 11.7726 19.1683 14.1546 19.1683 14.1546V14.1546Z" stroke="#FF9900" stroke-width="2" stroke-linecap="round" stroke-linejoin="round"/>
<path d="M6.96297 34.0371L34.037 6.96301" stroke="white" stroke-width="2" stroke-linecap="round" stroke-linejoin="round"/>
<path d="M20.5 39.9595C31.2472 39.9595 39.9595 31.2472 39.9595 20.5C39.9595 9.75284 31.2472 1.04053 20.5 1.04053C9.75282 1.04053 1.04051 9.75284 1.04051 20.5C1.04051 31.2472 9.75282 39.9595 20.5 39.9595Z" stroke="#FF9900" stroke-width="2" stroke-linecap="round" stroke-linejoin="round"/>
<path d="M6.96297 34.0371L34.037 6.96301" stroke="#FF9900" stroke-width="2" stroke-linecap="round" stroke-linejoin="round"/>
</svg>
