<svg width="19" height="20" viewBox="0 0 19 20" fill="none" xmlns="http://www.w3.org/2000/svg">
<path d="M16.8077 4.92857C16.7896 4.75177 16.7046 4.58794 16.5695 4.46907C16.4344 4.3502 16.2588 4.28482 16.077 4.28571H13.8847C13.8847 3.14907 13.4227 2.05898 12.6004 1.25526C11.7782 0.451529 10.6629 0 9.50004 0C8.33717 0 7.22192 0.451529 6.39965 1.25526C5.57737 2.05898 5.11542 3.14907 5.11542 4.28571H2.92311C2.74132 4.28482 2.56572 4.3502 2.43059 4.46907C2.29547 4.58794 2.21052 4.75177 2.19235 4.92857L0.730807 19.2143C0.721324 19.3139 0.733337 19.4143 0.766066 19.509C0.798796 19.6037 0.851514 19.6907 0.920807 19.7643C0.98913 19.8383 1.07254 19.8975 1.16567 19.9381C1.25881 19.9787 1.3596 19.9998 1.46158 20H17.5385C17.6405 19.9998 17.7413 19.9787 17.8344 19.9381C17.9275 19.8975 18.0109 19.8383 18.0793 19.7643C18.1486 19.6907 18.2013 19.6037 18.234 19.509C18.2667 19.4143 18.2788 19.3139 18.2693 19.2143L16.8077 4.92857ZM9.50004 1.42857C10.2753 1.42857 11.0188 1.72959 11.567 2.26541C12.1151 2.80123 12.4231 3.52795 12.4231 4.28571H6.57696C6.57696 3.52795 6.88493 2.80123 7.43311 2.26541C7.98129 1.72959 8.72479 1.42857 9.50004 1.42857ZM3.58811 5.71429H5.11542V7.14286C5.11542 7.3323 5.19241 7.51398 5.32946 7.64793C5.46651 7.78189 5.65238 7.85714 5.84619 7.85714C6.04 7.85714 6.22588 7.78189 6.36292 7.64793C6.49997 7.51398 6.57696 7.3323 6.57696 7.14286V5.71429H12.4231V7.14286C12.4231 7.3323 12.5001 7.51398 12.6372 7.64793C12.7742 7.78189 12.9601 7.85714 13.1539 7.85714C13.3477 7.85714 13.5336 7.78189 13.6706 7.64793C13.8077 7.51398 13.8847 7.3323 13.8847 7.14286V5.71429H15.412L16.435 15.7143H2.55042L3.58811 5.71429ZM2.27273 18.5714L2.41888 17.1429H16.5812L16.7273 18.5714H2.27273Z" fill="black"/>
</svg>
