<svg width="15" height="14" viewBox="0 0 15 14" fill="none" xmlns="http://www.w3.org/2000/svg">
<path d="M11.9584 8.32373H14.398C14.6259 8.32373 14.8047 8.13298 14.8047 7.88998V0.950731C14.8047 0.707731 14.6259 0.516981 14.398 0.516981H11.9584C11.7306 0.516981 11.552 0.707731 11.552 0.950731V7.88998C11.5518 8.13298 11.7306 8.32373 11.9584 8.32373Z" fill="#14214E"/>
<path d="M0.19536 7.5017C0.19536 8.20845 0.650281 8.9237 1.51911 8.9237H5.45825C4.89552 9.99745 4.73005 11.5077 5.12122 12.6127C5.40856 13.4255 5.9577 13.8997 6.66833 13.948L6.67981 13.949C7.14224 13.9792 7.54255 13.6097 7.58099 13.1172C7.68224 12.0212 8.13247 10.0827 8.7777 9.39445C9.32099 8.81495 9.78599 8.5722 10.5568 8.1702C10.6684 8.11195 10.7903 8.04845 10.9192 7.97995C10.9168 7.9502 10.9154 7.92045 10.9154 7.88995V1.02145C10.8224 0.987451 10.7305 0.953701 10.6403 0.920701C9.3681 0.452951 8.26864 0.049201 6.58817 0.049201H3.40348C2.53442 0.049201 2.07974 0.764701 2.07974 1.4712C2.07974 1.68095 2.11958 1.8912 2.19856 2.0837C1.90911 2.1392 1.65575 2.2877 1.46802 2.51495C1.25497 2.7732 1.13755 3.11645 1.13755 3.48145C1.13755 3.69045 1.17739 3.9007 1.25614 4.0927C0.558407 4.2212 0.195126 4.85995 0.195126 5.49145C0.195126 5.8577 0.31747 6.22645 0.556063 6.49645C0.317938 6.7667 0.19536 7.13545 0.19536 7.5017Z" fill="#14214E"/>
</svg>
