<svg width="89" height="58" viewBox="0 0 89 58" fill="none" xmlns="http://www.w3.org/2000/svg">
<g clip-path="url(#clip0)">
<path d="M76.5001 7.4999C76.5001 8.4999 76.2001 9.2999 75.7001 9.8999C75.2001 10.3999 74.6001 10.5999 73.8001 10.5999C73.0001 10.5999 72.5001 10.1999 72.2001 9.7999C71.8001 10.0999 71.5001 10.2999 71.2001 10.3999C71.2001 10.3999 71.2001 10.4999 71.1001 10.4999C70.4001 11.8999 69.3001 13.8999 67.3001 13.8999C66.2001 13.8999 65.6001 13.0999 65.6001 12.2999C65.6001 12.1999 65.6001 12.1999 65.6001 12.0999C64.8001 13.1999 63.9001 13.8999 62.7001 13.8999C61.6001 13.8999 61.0001 13.0999 61.0001 12.2999C61.0001 11.3999 61.6001 10.4999 62.6001 9.8999C62.7001 9.7999 62.9001 9.6999 63.0001 9.6999C63.0001 9.6999 63.0001 9.5999 62.9001 9.4999C62.3001 10.1999 61.6001 10.6999 60.7001 10.6999C60.3001 10.6999 59.9001 10.4999 59.6001 10.2999C59.2001 10.5999 58.8001 10.7999 58.2001 10.7999C57.6001 10.7999 57.1001 10.4999 56.7001 9.9999C56.2001 10.2999 55.6001 10.5999 55.0001 10.5999C54.4001 10.5999 53.9001 10.3999 53.5001 9.9999C52.9001 10.3999 52.2001 10.6999 51.5001 10.6999C50.9001 10.6999 50.4001 10.4999 50.0001 10.1999C49.9001 10.1999 49.8001 10.1999 49.6001 10.1999V10.2999C49.7001 10.3999 49.9001 10.4999 50.0001 10.5999C50.1001 10.7999 50.2001 11.0999 50.1001 11.2999C49.9001 11.9999 49.1001 12.2999 48.5001 12.2999C47.7001 12.2999 46.5001 11.5999 46.5001 10.1999V10.0999C46.1001 10.6999 45.5001 11.2999 44.6001 11.2999C43.7001 11.2999 43.1001 10.5999 43.1001 9.6999C43.1001 8.8999 43.6001 8.2999 44.2001 7.6999C43.6001 7.4999 43.3001 6.8999 43.3001 6.3999C43.3001 5.1999 44.2001 4.4999 46.3001 3.3999L50.5001 5.5999H72.7001L72.6001 4.6999C72.5001 4.4999 72.4001 4.2999 72.4001 3.8999C72.5001 3.0999 73.2001 2.3999 74.0001 2.3999C74.4001 2.3999 74.8001 2.5999 75.0001 2.8999C75.3001 3.1999 75.4001 3.5999 75.3001 3.9999C75.3001 4.0999 75.3001 4.1999 75.2001 4.3999L76.5001 7.4999Z" fill="#BFBFBF"/>
<path d="M77.1 4.3C76.9 4.2 76.6001 4.1 76.3001 4.1C76.0001 4.1 75.8 4.2 75.5 4.3C75.5 4.2 75.6 4.1 75.6 3.9C75.6 3.5 75.5001 3.1 75.3001 2.8C75.0001 2.5 74.7001 2.3 74.3001 2.3C73.5001 2.3 72.8 3 72.7 3.8C72.7 4.2 72.8001 4.4 72.9001 4.6C72.9001 4.7 72.8001 4.7 72.8001 4.8C72.8001 4.7 72.7 4.7 72.7 4.6C72.6 4.5 72.3001 4.3 71.9001 4.3C71.1001 4.3 70.2001 4.7 69.4001 5.4C69.4001 5.3 69.3 5.1 69.2 5C69 4.7 68.7001 4.6 68.3001 4.6C68.1001 4.6 67.9 4.6 67.7 4.7C67.5 4.5 67.2001 4.3 66.8001 4.3C66.6001 4.3 66.4 4.4 66.2 4.4C66.1 4.4 66.0001 4.5 65.9001 4.5C65.5001 4.7 65.3 4.8 65 4.8C64.7 4.8 64.6 4.7 64.5 4.7H64.4001C64.1001 4.5 63.7001 4.5 63.4001 4.6C63.2001 4.5 63.0001 4.3 62.7001 4.3C62.6001 4.3 62.5001 4.3 62.4001 4.3C63.0001 3.4 63.4001 2.4 63.4001 1.5C63.4001 1 63.2 0.6 63.1 0.4C62.9 0.2 62.7001 0 62.2001 0C61.0001 0.3 60 1.1 59.3 2C59.2 1.8 59.1 1.6 59 1.6C58.8 1.4 58.5 1.2 58 1.2C56.8 1.2 55.4 2.5 54.6 3.6C54.3 4 54.1001 4.4 53.9001 4.9C53.6001 4.6 53.3001 4.4 52.9001 4.4C53.6001 3.7 54.2 3.1 54.3 2.9C54.9 2 54.8 0.9 54.1 0.4C53.9 0.1 53.6001 0 53.4001 0C52.7001 0 52 0.6 51.6 1.2C51.3 1.7 51.0001 2.1 50.7001 2.5C50.7001 2.3 50.6 2.2 50.6 2.1C50.4 1.8 50.1001 1.5 49.7001 1.5C49.4001 1.5 49.0001 1.6 48.7001 1.8C48.5001 1.9 47.6 2.6 46.5 3.2C44.5 4.3 43.5 5 43.5 6.2C43.5 6.8 43.8001 7.3 44.4001 7.5C43.8001 8.1 43.3 8.7 43.3 9.5C43.3 10.4 44 11.1 44.8 11.1C45.6 11.1 46.2001 10.5 46.7001 9.9V10C46.7001 11.4 47.9001 12.1 48.7001 12.1C49.3001 12.1 50 11.8 50.3 11.1C50.4 10.9 50.3001 10.6 50.2001 10.4C50.1001 10.3 50 10.2 49.8 10.1C49.8 10.1 49.8 10.1 49.8 10C49.9 10 50.0001 10 50.2001 10C50.5001 10.3 51.1001 10.5 51.7001 10.5C52.4001 10.5 53.1001 10.3 53.7001 9.8C54.1001 10.2 54.6001 10.4 55.2001 10.4C55.8001 10.4 56.4001 10.1 56.9001 9.8C57.2001 10.2 57.7001 10.6 58.4001 10.6C59.0001 10.6 59.5 10.4 59.8 10.1C60.1 10.4 60.5001 10.5 60.9001 10.5C61.8001 10.5 62.5 10 63.1 9.3C63.2 9.4 63.2 9.5 63.3 9.6C63.2 9.7 63.0001 9.8 62.9001 9.8C61.9001 10.4 61.3 11.3 61.3 12.2C61.3 13 61.9 13.8 63 13.8C64.2 13.8 65.1001 13.2 65.9001 12C65.9001 12.1 65.9001 12.1 65.9001 12.2C65.9001 13 66.5 13.8 67.6 13.8C69.5 13.8 70.6001 11.7 71.4001 10.4C71.4001 10.4 71.4 10.3 71.5 10.3C71.8 10.1 72.1 9.9 72.5 9.7C72.8 10.2 73.4 10.5 74.1 10.5C74.9 10.5 75.5 10.2 76 9.8C76.5 9.2 76.8001 8.4 76.8001 7.4C76.8001 7.1 76.8 6.8 76.7 6.7C77.3 6.6 77.5 6.3 77.6 6.1C77.6 5.9 77.9 4.8 77.1 4.3Z" fill="white"/>
<path d="M76.3001 4.80005C75.7001 4.80005 75.2001 5.30005 74.5001 5.90005C73.9001 6.40005 72.6001 7.80005 71.5001 8.50005C71.8001 8.00005 72.6001 6.80005 72.7001 6.30005C72.8001 5.70005 72.4001 5.50005 71.9001 5.90005C71.3001 6.30005 70.8001 8.10005 69.9001 8.10005C69.8001 8.10005 69.6001 8.00005 69.6001 7.80005C69.6001 7.30005 70.4001 6.20005 71.8001 5.60005C72.0001 5.50005 72.1001 5.40005 72.1001 5.20005C72.1001 5.20005 72.1001 4.90005 71.7001 4.90005C70.3001 4.90005 68.4001 6.60005 68.2001 7.90005C67.9001 8.20005 67.4001 8.60005 66.8001 8.90005C67.5001 7.90005 68.1001 7.00005 68.4001 6.20005C68.8001 5.20005 68.3001 5.10005 67.7001 5.40005C67.2001 5.70005 66.8001 6.50005 66.7001 6.80005C66.5001 7.10005 66.4001 7.50005 66.0001 7.90005C65.5001 8.30005 65.1001 8.20005 65.4001 7.50005C65.7001 6.80005 66.4001 6.10005 66.9001 5.80005C67.0001 5.70005 67.2001 5.70005 67.2001 5.50005C67.2001 5.20005 66.9001 5.00005 66.4001 5.20005C65.7001 5.50005 65.4001 5.70005 64.9001 5.70005C64.5001 5.70005 64.2001 5.60005 64.0001 5.50005C63.7001 5.40005 63.6001 5.40005 63.5001 5.50005C63.4001 5.50005 63.3001 5.60005 63.2001 5.80005C63.0001 5.70005 62.9001 5.90005 62.9001 6.00005C62.8001 6.80005 62.1001 8.30005 61.6001 8.30005C61.4001 8.30005 61.2001 8.20005 61.3001 7.80005C61.4001 7.10005 62.2001 6.20005 62.3001 6.00005C62.5001 5.80005 62.8001 5.70005 62.9001 5.50005C62.9001 5.30005 62.8001 5.10005 62.5001 5.10005C61.4001 5.10005 60.0001 6.60005 59.9001 8.00005C59.7001 8.20005 59.5001 8.30005 59.3001 8.30005C58.8001 8.30005 58.7001 7.80005 58.7001 7.40005C60.0001 6.20005 62.4001 3.50005 62.5001 1.50005C62.5001 1.00005 62.3001 0.800049 61.9001 0.800049C61.0001 0.800049 59.7001 2.20005 58.9001 3.30005C57.9001 4.60005 57.3001 6.20005 57.1001 7.40005C56.4001 8.00005 56.1001 8.10005 55.8001 8.10005C55.4001 8.10005 55.2001 7.80005 55.2001 7.50005C56.4001 6.40005 58.5001 3.60005 58.5001 2.30005C58.5001 1.90005 58.3001 1.70005 57.9001 1.70005C57.1001 1.70005 55.9001 2.60005 55.1001 3.80005C54.3001 5.00005 53.7001 6.40005 53.6001 7.70005C53.0001 8.30005 52.5001 8.40005 52.1001 8.40005C51.9001 8.40005 51.7001 8.20005 51.7001 8.20005C52.3001 7.90005 53.5001 7.00005 53.5001 5.80005C53.5001 5.20005 53.1001 4.90005 52.7001 4.90005C51.7001 4.90005 50.1001 6.20005 50.1001 8.00005C50.1001 8.00005 50.1001 8.10005 50.1001 8.20005C49.6001 8.40005 49.3001 8.50005 49.4001 8.90005C49.5001 9.20005 49.8001 9.20005 50.3001 9.00005C50.4001 9.20005 50.9001 9.60005 51.6001 9.60005C52.5001 9.60005 53.2001 9.20005 53.7001 8.70005C53.9001 9.30005 54.5001 9.60005 55.1001 9.60005C55.8001 9.60005 56.5001 9.10005 57.1001 8.60005C57.2001 9.00005 57.6001 9.70005 58.3001 9.70005C59.0001 9.70005 59.5001 9.30005 59.9001 8.90005C60.0001 9.30005 60.4001 9.70005 60.9001 9.70005C62.6001 9.70005 63.5001 7.20005 63.7001 6.30005C63.7001 6.20005 63.8001 6.20005 63.9001 6.20005C64.2001 6.30005 64.4001 6.40005 64.8001 6.30005C64.2001 6.80005 63.6001 7.70005 63.6001 8.40005C63.6001 9.10005 64.1001 9.40005 64.5001 9.40005C64.9001 9.40005 65.4001 9.10005 65.8001 8.80005C65.7001 9.00005 65.6001 9.30005 65.4001 9.50005C65.0001 9.60005 64.0001 10 63.3001 10.4C62.7001 10.8 62.0001 11.5 62.0001 12.2C62.0001 12.6 62.3001 13.1 63.0001 13.1C64.2001 13.1 65.1001 12.3 66.3001 10C67.3001 9.60005 67.8001 9.20005 68.2001 8.80005C68.4001 9.10005 68.7001 9.20005 69.0001 9.20005C69.5001 9.20005 69.8001 9.10005 70.1001 8.80005C70.2001 9.00005 70.1001 9.20005 70.0001 9.40005C69.3001 9.70005 68.5001 10.1 68.1001 10.4C67.0001 11.1 66.7001 11.7 66.7001 12.3C66.7001 12.6 67.0001 13.1 67.7001 13.1C69.3001 13.1 70.4001 11 71.0001 9.70005C71.5001 9.40005 72.2001 8.90005 72.9001 8.40005C72.9001 8.50005 72.9001 8.60005 72.9001 8.70005C72.9001 9.20005 73.4001 9.70005 74.1001 9.70005C75.6001 9.70005 76.1001 8.50005 76.1001 7.30005C76.0001 6.80005 76.0001 6.50005 76.0001 6.40005C76.0001 6.00005 76.1001 5.80005 76.4001 5.80005C76.7001 5.80005 77.0001 5.70005 77.0001 5.40005C77.0001 5.00005 76.7001 4.80005 76.3001 4.80005ZM61.1001 2.60005C61.1001 2.60005 61.2001 2.60005 61.2001 2.70005C61.2001 3.20005 60.0001 5.20005 58.9001 6.40005C59.5001 4.30005 60.9001 2.60005 61.1001 2.60005ZM51.5001 7.60005C51.5001 6.70005 52.2001 6.00005 52.5001 6.00005C52.6001 6.00005 52.6001 6.10005 52.6001 6.20005C52.7001 6.50005 52.2001 7.20005 51.5001 7.60005ZM57.2001 3.30005C57.3001 3.30005 57.3001 3.30005 57.3001 3.40005C57.3001 3.80005 56.4001 5.40005 55.3001 6.60005C55.9001 4.70005 56.8001 3.30005 57.2001 3.30005ZM63.4001 11.9C63.3001 11.9 63.3001 11.8 63.3001 11.8C63.3001 11.3 64.4001 10.6 65.0001 10.4C64.7001 10.8 63.8001 11.9 63.4001 11.9ZM67.9001 11.9C67.8001 11.9 67.8001 11.8 67.8001 11.8C67.8001 11.3 68.8001 10.6 69.4001 10.4C69.2001 10.9 68.3001 11.9 67.9001 11.9ZM74.2001 8.50005C74.1001 8.50005 74.0001 8.50005 74.0001 8.20005C74.0001 8.00005 73.9001 7.80005 73.6001 7.80005H73.5001C74.2001 7.30005 74.7001 6.70005 75.1001 6.20005C75.0001 7.50005 74.7001 8.50005 74.2001 8.50005ZM73.6001 4.60005C73.6001 4.40005 73.2001 4.30005 73.3001 3.90005C73.3001 3.50005 73.8001 3.10005 74.2001 3.10005C74.7001 3.10005 74.9001 3.50005 74.9001 3.90005C74.8001 4.80005 73.9001 5.30005 73.6001 5.30005C73.5001 5.30005 73.4001 5.20005 73.4001 5.10005C73.4001 4.90005 73.6001 4.80005 73.6001 4.60005ZM49.6001 10.7C49.7001 10.7 49.7001 10.8 49.7001 10.9C49.6001 11.3 49.1001 11.4 48.8001 11.4C48.4001 11.4 47.5001 11.1 47.5001 10C47.5001 8.70005 48.2001 7.80005 48.3001 7.00005C48.4001 6.60005 48.3001 6.40005 48.1001 6.30005C47.9001 6.70005 47.1001 8.30005 46.9001 8.50005C46.5001 9.20005 45.9001 10.5 45.0001 10.5C44.6001 10.5 44.1001 10.2 44.1001 9.60005C44.1001 8.70005 45.1001 8.20005 46.3001 6.80005C47.1001 5.80005 47.7001 5.00005 47.7001 4.70005C47.7001 4.60005 47.7001 4.60005 47.6001 4.60005C47.5001 4.60005 47.1001 4.90005 46.9001 5.10005C46.5001 5.50005 45.7001 7.00005 44.9001 7.00005C44.5001 7.00005 44.3001 6.60005 44.3001 6.30005C44.3001 5.60005 44.8001 5.10005 46.9001 4.00005C48.0001 3.20005 49.0001 2.50005 49.1001 2.50005C49.7001 2.00005 50.3001 2.30005 49.8001 3.00005C49.4001 3.60005 48.2001 5.60005 48.2001 5.60005C48.5001 5.60005 48.8001 5.50005 49.4001 5.00005C50.2001 4.30005 50.9001 3.40005 52.1001 1.70005C52.5001 1.10005 53.2001 0.600049 53.7001 1.00005C54.1001 1.30005 54.1001 2.00005 53.8001 2.50005C53.5001 2.90005 51.0001 5.30005 49.3001 6.00005C49.7001 6.50005 49.7001 7.30005 49.6001 7.80005C49.5001 8.30005 49.2001 9.40005 49.2001 9.90005C49.2001 10.3 49.3001 10.7 49.6001 10.7Z" fill="#CE0F46"/>
<path d="M88.1 14.6C88 13.7 87.5 12.1 86.5 11.7C86.3 11.6 86 11.6 85.8 11.6C84.7 11.6 83.9 12.5 83.2 13.1C83 13.3 82.8 13.5 82.7 13.6C81.9 14.2 81.2 14.4 80.7 14.4H80.6C80.3 14.4 80 14.3 79.6 14.1C79.1 13.9 78.6 13.7 77.9 13.7C77.7 13.7 77.6 13.7 77.4 13.7C74.7 14 71 15.8 68.1 22.5C68.1 22.3 68.1 22.2 68.1 22C68.1 20.4 67.5 19.2 66.2 18.3C65.6 18 64.8 18 64.3 18C64.2 18 64.2 18 64.1 18C63.8 17.4 63.2 16.6 61.8 16.4C61.6 16.4 61.3 16.4 61.1 16.4C57.1 16.4 52.1 20.1 49.8 23.5C49.3 24.3 48.9 25 48.6 25.8C48.7 25.3 48.7 24.8 48.7 24.3C48.8 22.6 48.3 21.6 47.1 20.8C46.6 20.5 46 20.4 45.5 20.4C45.4 20.4 45.2 20.4 45.1 20.4C44.6 19.7 43.8 19.1 42.5 18.9C42.2 18.9 42 18.9 41.7 18.9C37.6 18.9 32.4 22.5 30.1 25.9C29.6 26.6 29.2 27.3 28.9 28C28.9 27.1 28.6 26 28.1 25.2C27.5 24.2 26.7 23.7 25.5 23.7C24.7 23.7 23.9 24 23 24.2C22.4 24.4 21.8 24.6 21.2 24.6C20.6 24.7 20.1 24.7 19.7 24.7C18.3 24.7 17.9 24.3 17.9 23.5C17.8 23 18.4 22.1 19.3 21.1C20.2 20.2 21.2 19.4 21.8 19C26.2 16.6 29 16.2 31.8 15.9C32.5 15.8 33.3 15.7 34.1 15.6C37.4 15.1 38.3 11.9 38.1 10.6C37.7 7.4 35.3 7 33 7C32.7 7 32.3 7 31.9 7C28.2 7.2 19.6 9.9 15.3 12.7C9.90003 16.1 6.80003 20.3 6.60003 24.3C6.30003 29.3 9.80003 30.4 12 30.7C10.2 31.7 7.20003 33.7 3.80003 37.7C-1.99997 44.6 2.68221e-05 49.8 1.20003 51.6C2.70003 54.1 6.50003 55.7 11 55.7C13.7 55.7 16.4 55.1 18.5 54C21 52.7 23.7 50.7 25.8 48.6C26.2 48.2 26.6 47.8 27 47.4C26.1 49.7 25.9 52.1 26.9 54.1C28 56.2 30.2 57.5 33 57.5C36.3 57.5 39.5 55.7 41.5 52.8C43 50.7 44.7 46.7 45.4 44C45.6 43.2 45.7 42.5 45.8 41.9C45.9 41.5 45.9 40.9 46 40.8C46.4 40.4 47 40.2 47.7 39.9C48.7 39.5 49.8 39.1 50.5 38.1C50.8 37.6 51 37.1 51.2 36.5C52 36.9 52.9 37.1 53.8 37.1C54.3 37.1 54.7 37.1 55.2 37C53.2 38.3 51 40.1 49.6 41.6C48.4 42.9 47.5 44.6 47.1 46.3C46.6 48.3 46.8 50.1 47.6 51.7C48.8 53.9 51 55.1 53.8 55.1C57 55.1 60.3 53.3 62.2 50.5C63.7 48.4 65 45.1 65.5 42.1C65.6 41.3 65.7 40.5 65.8 39.9C65.8 39.4 65.9 38.8 66 38.6C66.4 38.2 67.3 38.1 68.2 37.9C69.5 37.7 70.9 37.5 71.6 36.4C71.9 35.9 72.1 35.2 71.8 34.4C72.2 34.5 72.6 34.5 73.1 34.5C73.9 34.5 74.8 34.3 75.7 34C80.1 32.4 83.4 27.6 84 21.9C84.1 21.1 84 20.4 84 19.7C84 19.7 84 19.7 84 19.6C84.3 19.4 84.6 19.3 84.9 19.1C86.3 18.4 88.3 17.3 88.1 14.6ZM67.2 28.7C67.4 29.7 67.6 30.6 68.1 31.4C67.9 31.4 67.7 31.4 67.4 31.4C67.2 31.4 67 31.4 66.8 31.4C66.9 30.6 67 29.7 67.2 28.7ZM47.7 30.2C47.7 30.9 47.8 31.5 48 32.2C48 32.4 48.1 32.5 48.1 32.7C47.8 33 47.5 33.2 47.2 33.4C47.3 32.4 47.5 31.3 47.7 30.2ZM26.6 37.3C26.4 37.2 26.2 37.2 25.9 37.2C24.4 37.2 22.8 38.4 21.1 40.8C19 44 15.4 46.5 13 46.5C11.8 46.5 10.6 45.6 10.6 44.7C10.6 42.8 12.3 40.6 13.7 39.3C16.5 36.8 19.2 35 22.3 33.4C22.6 33.2 23.2 33 23.9 32.7C26.5 31.5 27.9 30.9 28.4 30.3C28 31.9 28.1 33.5 28.5 34.9C29 36.8 30.2 38.2 31.6 38.9C32.6 39.4 33.8 39.6 35.1 39.5C33.2 40.7 31.1 42.2 29.8 43.5C30 43 30.1 42.4 30.2 41.9C30.2 39.6 28.5 37.8 26.6 37.3ZM59.8 26.5C59.3 27.6 57.3 29.7 56.2 29.7H56.1C55.8 29.6 55.7 29.5 55.7 29.5C55.5 29 55.9 27.6 56.7 26.3C57.5 25 58.6 24.2 59.3 23.7C59.9 23.4 60.4 23.1 60.8 23C60.7 23.8 60.4 25.2 59.8 26.5ZM57.6 45.8C57 47.1 55.7 48.4 54.6 48.4C54.4 48.4 54.3 48.3 54.3 48.3C54.2 48.1 54.1 47.6 54.3 46.9C54.7 45.5 57.2 43.3 58.8 42.3C58.5 43.4 57.9 45.1 57.6 45.8ZM77.6 21.7C77.4 23.5 76.2 25.5 75.3 26.1C75 26.3 74.8 26.3 74.7 26.3C74.7 26.3 74.6 26.3 74.6 26.2C74.3 25.8 74.3 24.8 74.6 23.8C75.2 22 76.5 20 77.1 19.8C77.2 19.8 77.2 19.8 77.3 19.8C77.4 19.8 77.4 19.8 77.4 19.8C77.5 20.1 77.7 20.6 77.6 21.7ZM40.2 28.8C39.6 29.8 37.6 31.5 36.9 31.5C36.4 31.4 36.3 31.2 36.3 31.1C36.1 30.7 36.4 29.7 37 28.7C38.2 26.6 40.4 25.7 41.5 25.4C41.4 26.2 40.9 27.6 40.2 28.8ZM37.4 47.9C37.1 48.5 36 50.5 34.6 50.5C34.4 50.5 34.3 50.4 34.2 50.3C34 50.1 34 49.6 34.2 49C34.7 47.8 37 45.6 38.5 44.6C38.3 45.7 37.8 47.2 37.4 47.9Z" fill="white"/>
<path d="M83 19.4001C83.1 20.2001 83.2 21.1001 83.1 22.0001C82.6 27.3001 79.5 31.9001 75.4 33.4001C69.1 35.7001 66.5 28.6001 68.7 23.4001C70.2 19.8001 73 15.3001 77.5 14.7001C78.7 14.5001 79.5 15.2001 80.5 15.3001C81.5 15.4001 82.5 14.8001 83.2 14.3001C83.9 13.8001 85 12.1001 86.2 12.5001C86.8 12.7001 87.3 13.9001 87.3 14.7001C87.5 17.6001 84.5 18.2001 83 19.4001ZM73.8 23.6001C73.1 25.7001 73.7 28.2001 75.7 26.9001C76.8 26.1001 78.1 23.8001 78.4 21.9001C78.6 20.4001 78.3 18.9001 76.9 19.2001C75.7 19.4001 74.2 22.4001 73.8 23.6001Z" fill="#ED1B2F"/>
<path d="M49.5 32.4C48.7 33.5 47.2 34.4 46.4 34.7C46.1 32.2 47.8 27.3 47.9 24.4C47.9 22.9 47.5 22.2 46.6 21.6C46.1 21.2 45.1 21.3 44.7 21.4C44.5 20.9 44 20 42.5 19.8C38.5 19.3 33.1 23.1 30.9 26.4C27.4 31.7 29.1 36.9 31.9 38.1C33.4 38.8 35.4 38.8 37 38.1C39 37.3 40.7 35.7 41 35.7C41.3 35.7 41.1 36.9 40.7 37.2C40.2 37.6 38.9 38.2 38.3 38.5C36 39.6 31.8 42.2 30 44.3C27.9 46.7 26.3 50.9 27.8 53.8C30.2 58.2 37.4 57.5 41 52.4C42.4 50.4 44.1 46.6 44.7 43.9C45.1 42.2 45.1 40.7 45.5 40.4C46.5 39.2 48.9 39.2 49.9 37.7C50.3 37.1 50.5 36.2 50.7 35.2C50.6 33.7 50.1 32.6 49.5 32.4ZM38.2 48.3C37.5 49.6 36.3 51.4 34.6 51.4C33.4 51.4 33 50.1 33.5 48.8C34.2 47 38.3 43.5 39.5 43.3C39.9 43.2 38.8 47 38.2 48.3ZM40.9 29.2C40.2 30.3 37.8 32.6 36.7 32.3C34.6 31.7 35.6 29.5 36.4 28.2C38.2 25.1 42.1 24.1 42.5 24.4C42.8 24.9 42 27.4 40.9 29.2Z" fill="#ED1B2F"/>
<path d="M69.9 33.2C68.7 32.1 67.1 32.1 65.9 32.5C65.9 29.9 67.0999 25.1 67.1999 22.2C67.1999 20.7 66.5999 19.8 65.6999 19.2C65.1999 18.8 64 18.8 63.5 19C63.3 18.5 63.2 17.5 61.7 17.4C57.7 16.9 52.6 20.9 50.4 24.1C46.9 29.4 48.8 34.5 51.4 35.8C52.9 36.6 54.9 36.5 56.5 35.8C58.5 35 60.2 33.4 60.5 33.4C60.8 33.4 60.8 34.6 60.4 34.9C60 35.3 58.6 36 58 36.3C55.7 37.4 52.1 40.1 50.3 42.1C48.2 44.5 46.9 48.4 48.4 51.3C50.8 55.7 58 55.2 61.6 50.1C63 48.1 64.3 45 64.8 42.1C65.1 40.3 65.1 38.6 65.4 38.2C66.5 36.9 70 37.6 71 36.1C71.4 35.4 71.1 34.3 69.9 33.2ZM58.3 46.2C57.6 47.5 56.2 49.2 54.5 49.2C53.3 49.2 53.1 47.9 53.4 46.6C54 44.5 58.5 41 59.7 40.8C60.2 40.8 59 44.9 58.3 46.2ZM60.5 26.8C59.9 28.1 57.5 30.7 56 30.5C53.8 30.1 55.2 27.1 56 25.9C57.8 22.8 61.3 21.9 61.6 22.2C61.9 22.5 61.4 24.9 60.5 26.8Z" fill="#ED1B2F"/>
<path d="M32 8.00007C28.4 8.20007 20 10.8001 15.8 13.5001C10.9 16.6001 7.69997 20.5001 7.49997 24.4001C7.19997 31.1001 14.2 29.7001 14.3 30.3001C14.4 30.9001 9.99997 31.8001 4.49997 38.3001C-0.400029 44.1001 0.399971 48.8001 1.89997 51.3001C4.19997 55.1001 12.6 56.2001 18.1 53.4001C22.8 51.0001 28.7 45.7001 29.1 41.7001C29.3 39.9001 27.8 38.5001 26.3 38.1001C24.5 37.6001 22.5 40.2001 21.8 41.3001C19.6 44.4001 15.9 47.2001 12.9 47.3001C11.3 47.3001 9.59997 46.1001 9.59997 44.6001C9.59997 42.2001 11.7 39.7001 13 38.6001C15.7 36.2001 18.4 34.3001 21.7 32.6001C22.8 32.0001 27 30.3001 27.6 29.6001C28.3 28.8001 28 26.9001 27.3 25.7001C26.1 23.5001 23.5 25.3001 21.3 25.5001C19.1 25.8001 17.3 25.7001 17.1 23.7001C16.9 21.9001 20 19.2001 21.3 18.4001C27 15.2001 30.2 15.5001 33.9 15.0001C36.7 14.6001 37.3 11.8001 37.2 10.9001C37 8.40007 35.3 7.90007 32 8.00007Z" fill="#ED1B2F"/>
<path d="M79.8 7.0999C79 7.0999 78.3 6.4999 78.3 5.4999C78.3 4.4999 79 3.8999 79.8 3.8999C80.6 3.8999 81.3 4.4999 81.3 5.4999C81.3 6.4999 80.6 7.0999 79.8 7.0999ZM79.8 4.2999C79.2 4.2999 78.7 4.7999 78.7 5.4999C78.7 6.1999 79.2 6.6999 79.8 6.6999C80.4 6.6999 80.9 6.1999 80.9 5.4999C80.9 4.7999 80.4 4.2999 79.8 4.2999ZM79.6 6.2999H79.3V4.5999H79.9C80.3 4.5999 80.6 4.6999 80.6 5.0999C80.6 5.3999 80.4 5.4999 80.2 5.4999L80.6 6.1999H80.2L79.8 5.4999H79.6V6.2999V6.2999ZM79.9 5.2999C80.1 5.2999 80.1 5.2999 80.1 5.0999C80.1 4.8999 79.9 4.8999 79.8 4.8999H79.6V5.2999H79.9Z" fill="black"/>
</g>
<defs>
<clipPath id="clip0">
<rect width="88.7" height="57.6" fill="white"/>
</clipPath>
</defs>
</svg>
