<svg width="7" height="13" viewBox="0 0 7 13" fill="none" xmlns="http://www.w3.org/2000/svg">
<path d="M6.61549 0.00268041L4.96917 0C3.11958 0 1.9243 1.24438 1.9243 3.17039V4.63215H0.269C0.125962 4.63215 0.0101318 4.74982 0.0101318 4.89497V7.0129C0.0101318 7.15804 0.126094 7.27558 0.269 7.27558H1.9243V12.6198C1.9243 12.7649 2.04013 12.8825 2.18317 12.8825H4.34287C4.48591 12.8825 4.60174 12.7648 4.60174 12.6198V7.27558H6.53717C6.68021 7.27558 6.79604 7.15804 6.79604 7.0129L6.79683 4.89497C6.79683 4.82528 6.76949 4.75854 6.72102 4.70922C6.67255 4.6599 6.60651 4.63215 6.53783 4.63215H4.60174V3.393C4.60174 2.79741 4.7416 2.49506 5.50619 2.49506L6.61523 2.49466C6.75813 2.49466 6.87396 2.37699 6.87396 2.23198V0.265361C6.87396 0.120485 6.75826 0.00294845 6.61549 0.00268041Z" fill="#999999"/>
</svg>
