<svg width="152" height="40" viewBox="0 0 152 40" fill="none" xmlns="http://www.w3.org/2000/svg">
<g clip-path="url(#clip0)">
<path d="M14.5683 3.72707H17.8833C19.9021 3.42692 21.9638 3.69082 23.8444 4.4901C26.2038 5.92269 27.9151 8.22902 28.6133 10.9171C29.1077 12.3258 29.1077 12.3258 30.2999 11.8269H31.2304V0.674982H0.0290213V2.64123H1.30848C1.86448 2.63735 2.41428 2.75922 2.91748 2.99791C3.42068 3.2366 3.86451 3.58604 4.21635 4.02054C5.40857 5.95745 5.61212 8.12913 5.61212 19.4277C5.61212 31.4307 5.35041 34.3654 4.21635 35.8621C3.93638 36.2468 3.5739 36.5628 3.15598 36.7864C2.73806 37.01 2.2755 37.1354 1.80282 37.1533C0.0290214 37.4762 0.0290213 37.4468 0.0290213 38.2392C-0.0690711 38.5041 -0.0690711 38.7959 0.0290213 39.0609H19.7153C19.8455 38.8017 19.9134 38.5151 19.9134 38.2245C19.9134 37.9339 19.8455 37.6473 19.7153 37.3881C19.2385 37.2542 18.7525 37.1561 18.2613 37.0946C17.73 37.0309 17.2048 36.9229 16.6911 36.7718C15.9554 36.2298 15.3727 35.5034 15.0004 34.6645C14.6281 33.8255 14.4792 32.9031 14.5683 31.9883C14.2776 30.0514 14.1322 26.5004 14.1322 23.5657V21.2472H15.2953C16.7445 21.2025 18.1928 21.3605 19.599 21.7168C20.2726 22.1369 20.8461 22.702 21.2783 23.3716C21.7106 24.0413 21.9911 24.7989 22.0997 25.5906L22.3614 26.5004H24.1352V13.4996H22.5068L22.2451 14.7616C22.135 15.5711 21.8382 16.3434 21.3787 17.0162C20.9191 17.689 20.3095 18.2435 19.599 18.6354C18.9108 18.842 18.1858 18.8922 17.4762 18.7821H14.1322V15.6126C14.1322 12.3258 14.3066 5.39985 14.423 4.31401L14.5683 3.72707ZM150.656 26.9993C149.282 24.7666 147.138 23.1256 144.637 22.3918C142.72 21.7869 140.948 20.7877 139.432 19.4571C139.091 19.1242 138.836 18.7121 138.689 18.2569C138.542 17.8016 138.508 17.3169 138.589 16.8452C138.591 15.9198 138.957 15.0332 139.607 14.38C140.047 13.9148 140.604 13.5789 141.218 13.4083C141.833 13.2378 142.482 13.2389 143.096 13.4116C144.367 13.7772 145.517 14.4831 146.423 15.4544C147.329 16.4257 147.958 17.6262 148.243 18.9288C148.708 20.2495 148.766 20.2495 149.61 19.8973L150.133 19.6919V12.3844L149.755 12.2084C146.892 11.1936 143.855 10.7743 140.828 10.9758C138.221 11.0425 135.732 12.089 133.849 13.9105C132.995 14.7172 132.326 15.7026 131.889 16.7975C131.452 17.8925 131.258 19.0706 131.319 20.2495C131.335 22.0517 132.044 23.7772 133.296 25.0624C134.68 26.4358 136.378 27.4438 138.24 27.9971C142.747 29.7872 144.056 30.9318 144.056 33.0154C144.075 33.8941 143.798 34.7533 143.269 35.4519C142.741 36.1505 141.993 36.647 141.148 36.8599C140.132 37.085 139.081 37.085 138.065 36.8599C136.736 36.3391 135.549 35.5056 134.603 34.4286C133.657 33.3515 132.98 32.0621 132.628 30.6676L132.25 29.7285H131.726C131.476 29.7473 131.231 29.8068 130.999 29.9046H130.708V38.2392H131.203C133.167 38.8987 135.194 39.3511 137.251 39.5891H140.159C141.42 39.6825 142.688 39.5635 143.91 39.237C145.462 38.948 146.912 38.2542 148.116 37.2245C149.32 36.1948 150.236 34.8651 150.773 33.3676C151.12 32.5311 151.298 31.6331 151.296 30.7263C151.411 29.4488 151.19 28.1634 150.656 26.9993ZM123.264 11.8269C121.522 11.0885 119.644 10.7303 117.755 10.7759C115.866 10.8214 114.007 11.2696 112.302 12.091C110.698 12.8824 109.278 14.0043 108.131 15.3843C106.984 16.7643 106.136 18.3717 105.643 20.1027C105.014 21.991 104.747 23.9831 104.858 25.9721C104.837 27.0543 104.924 28.1359 105.119 29.2003C105.589 31.8175 106.841 34.2269 108.707 36.105C110.573 37.9831 112.964 39.2399 115.558 39.7065C117.248 39.9214 118.958 39.9214 120.647 39.7065C122.4 39.3947 124.078 38.7472 125.591 37.799C126.841 37.0913 127.9 36.0833 128.673 34.8643C128.623 34.673 128.536 34.4938 128.416 34.3375C128.296 34.1811 128.146 34.0509 127.975 33.9545C127.643 34.0758 127.33 34.2438 127.045 34.4534C125.598 35.4154 123.89 35.8976 122.159 35.8327C121.01 35.9111 119.859 35.7306 118.787 35.3042C117.716 34.8778 116.752 34.2163 115.966 33.3676C115.357 32.7971 114.855 32.1213 114.483 31.372C113.579 29.5476 113.092 27.5419 113.058 25.5026V24.358H129.167V23.7711C129.203 23.1847 129.203 22.5967 129.167 22.0103C129.162 19.9381 128.612 17.9044 127.576 16.1158C126.539 14.3272 125.051 12.8474 123.264 11.8269ZM115.151 21.9809H113.116V20.2495C113.785 15.818 115.442 13.1768 117.478 13.1768C119.513 13.1768 120.386 15.7887 120.764 20.5723V21.9222H119.019L115.151 21.9809ZM73.3363 10.8584C72.3315 10.8191 71.3327 11.0308 70.4284 11.4747C68.4631 12.4379 66.8757 14.04 65.9212 16.0235L65.5432 16.7278V10.8584H65.3978C65.0489 10.8584 54.2898 13.0301 53.9408 13.1768C53.5919 13.3236 53.7082 13.3529 53.7082 13.8811C53.7082 14.4094 53.7082 14.4974 53.9408 14.5268L55.0749 14.7616C55.3925 14.7694 55.7042 14.8501 55.9863 14.9976C56.2685 15.145 56.5137 15.3554 56.7033 15.6126C57.4303 16.5811 57.5757 18.2832 57.5757 25.5319C57.7193 28.7952 57.5831 32.0649 57.1686 35.3045C57.071 35.793 56.8256 36.2388 56.4662 36.5805C56.1068 36.9222 55.6511 37.1429 55.1621 37.212L54.1735 37.4175H53.7954V38.2392C53.69 38.5129 53.69 38.8165 53.7954 39.0902H70.0504V38.2392C70.1068 37.9583 70.1068 37.6689 70.0504 37.3881C69.0717 37.3496 68.0985 37.2219 67.1425 37.0066C66.622 36.7318 66.1961 36.3043 65.921 35.7805C65.6459 35.2566 65.5345 34.6609 65.6014 34.0719C65.3687 32.3698 65.2524 27.3808 65.3106 23.5657C65.3688 19.7505 65.3106 19.5158 65.6305 19.2517C66.6035 18.4987 67.8076 18.1144 69.0327 18.1658C70.1874 18.1912 71.3212 18.4823 72.3476 19.0169C72.7034 19.2163 73.0852 19.3645 73.4817 19.4571C73.4817 19.4571 76.3896 12.3551 76.3896 12.0323C76.0174 11.5959 75.5434 11.26 75.0103 11.055C74.4771 10.8501 73.9018 10.7825 73.3363 10.8584ZM53.7373 23.1842C53.6358 21.087 53.0392 19.0447 51.9972 17.2274C50.9553 15.4101 49.4981 13.8704 47.7471 12.7366C45.6662 11.6037 43.3511 10.979 40.9876 10.9127C38.6242 10.8465 36.2783 11.3405 34.1383 12.3551C31.1126 13.9653 28.8281 16.7025 27.7701 19.9853C26.6772 23.6608 26.6772 27.5791 27.7701 31.2546C28.343 33.2633 29.4138 35.0915 30.8815 36.5664C32.7093 38.3664 35.0663 39.5197 37.5986 39.8533C39.2242 39.9905 40.8583 39.9905 42.4838 39.8533C43.082 39.7614 43.6743 39.634 44.2576 39.4718C46.6245 38.8035 48.7539 37.4689 50.3967 35.6239C52.0394 33.7789 53.1275 31.4999 53.5337 29.0536C53.824 27.1114 53.8923 25.142 53.7373 23.1842ZM41.6406 37.8577C38.7327 38.7381 36.5518 35.8914 35.8248 29.9046C35.5579 26.7703 35.5579 23.6186 35.8248 20.4842C36.4064 15.6713 37.8894 13.2355 40.1866 13.2355C40.6501 13.2065 41.1137 13.29 41.5387 13.4789C41.9636 13.6678 42.3376 13.9567 42.6292 14.3214C44.5775 16.2876 45.5371 20.1908 45.5371 26.0602C45.7791 29.3819 45.2617 32.7154 44.025 35.8034C43.4789 36.704 42.634 37.3799 41.6406 37.7109V37.8577ZM93.9821 11.4453C93.1616 11.3388 92.331 11.3388 91.5104 11.4453C89.9354 11.444 88.3785 11.7843 86.9451 12.4431L86.0437 12.8247V6.45635C86.2012 4.30717 86.2012 2.14918 86.0437 0C85.6947 0 74.5867 2.14233 74.4122 2.23037C74.3264 2.44704 74.3264 2.68869 74.4122 2.90536C74.4122 3.52164 74.4122 3.4923 75.7207 3.78577C76.0881 3.86892 76.441 4.00743 76.7676 4.19662C77.3352 4.73532 77.713 5.44633 77.8435 6.22157C78.1746 8.45495 78.2817 10.7163 78.1634 12.9714V38.7381L78.9485 38.9142C80.1116 39.1783 83.3975 39.7359 84.4734 39.8533C86.6218 40.0257 88.7804 40.0257 90.9289 39.8533C93.3135 39.6074 95.5865 38.7096 97.5029 37.2564C99.4193 35.8032 100.907 33.8499 101.804 31.6067C102.339 30.1671 102.71 28.6705 102.909 27.146C103.082 25.081 103.014 23.0026 102.706 20.9538C102.394 18.6571 101.389 16.5129 99.8288 14.812C98.2683 13.111 96.2271 11.9357 93.9821 11.4453ZM86.3635 37.3588C86.3635 36.9773 86.0727 24.1233 86.1309 18.9875V14.967L86.9742 14.7616C87.5432 14.6793 88.1208 14.6793 88.6898 14.7616C89.3191 14.697 89.952 14.8412 90.4927 15.1724C91.5786 15.9288 92.4804 16.9239 93.1302 18.0829C93.7799 19.2419 94.1607 20.5345 94.2438 21.8635C94.4557 24.0005 94.4557 26.1535 94.2438 28.2905C94.0698 31.3965 92.884 34.3574 90.8707 36.7131C90.2993 37.2609 89.5817 37.6281 88.8061 37.7696C88.2193 37.8726 87.6192 37.8726 87.0323 37.7696C86.4798 37.7696 86.4798 37.5935 86.4798 37.3588H86.3635Z" fill="#BABACE"/>
</g>
<defs>
<clipPath id="clip0">
<rect width="151.325" height="40" fill="white"/>
</clipPath>
</defs>
</svg>
