<svg width="113" height="60" viewBox="0 0 113 60" fill="none" xmlns="http://www.w3.org/2000/svg">
<path d="M34.8803 13.9647C38.699 13.9647 41.9258 10.8863 41.9258 7.23479V6.21752H34.823V9.0302H37.9543C37.2479 10.484 36.1175 10.7421 34.8803 10.7421C32.0735 10.7421 31.2181 8.74931 31.2181 7.10573C31.2181 5.46216 32.0353 3.33652 34.7657 3.33652C36.2512 3.33652 37.3204 3.90588 37.8207 4.67643L37.9276 4.84344H41.4485L41.2575 4.36138C40.5282 2.33823 38.0154 0.186019 34.8001 0.186019C32.9441 0.16879 31.157 0.883347 29.83 2.1732C28.503 3.46305 27.7443 5.22306 27.7202 7.06777C27.7354 10.8674 30.947 13.9647 34.8803 13.9647Z" fill="#BABACE"/>
<path d="M91.2294 28.6923C95.0291 28.6923 98.2406 25.7013 98.2406 22.156V21.1767H91.1722V23.9059H94.2882C93.5818 25.3179 92.4553 25.5684 91.2333 25.5684C88.4341 25.5684 87.5864 23.6364 87.5864 22.0345C87.5864 20.4327 88.3998 18.3944 91.1111 18.3944C92.5927 18.3944 93.6582 18.9523 94.166 19.7001L94.273 19.8633H97.7747L97.5991 19.3851C96.8735 17.4189 94.3723 15.3312 91.1684 15.3312C87.2847 15.3312 84.1228 18.3336 84.1228 22.0194C84.1228 25.7051 87.3038 28.6923 91.2294 28.6923Z" fill="#BABACE"/>
<path d="M49.4754 13.9647C50.8454 13.9579 52.1825 13.5473 53.3175 12.7848C54.4526 12.0223 55.3345 10.9423 55.8518 9.68134C56.369 8.42041 56.4983 7.03529 56.2233 5.7013C55.9482 4.36731 55.2812 3.14442 54.3066 2.18741C53.332 1.23039 52.0938 0.582278 50.7485 0.325099C49.4032 0.0679199 48.0113 0.213242 46.7492 0.742661C45.487 1.27208 44.4112 2.1618 43.658 3.29921C42.9047 4.43662 42.5079 5.77059 42.5177 7.13227C42.5328 8.95417 43.2734 10.6959 44.5774 11.9764C45.8813 13.2569 47.6425 13.9718 49.4754 13.9647ZM49.4754 3.41241C50.2105 3.38976 50.9357 3.58556 51.5582 3.97478C52.1807 4.364 52.6722 4.92893 52.97 5.59734C53.2677 6.26574 53.3581 7.00724 53.2296 7.727C53.1011 8.44675 52.7596 9.11205 52.2486 9.63781C51.7376 10.1636 51.0805 10.5259 50.3613 10.6784C49.6421 10.8309 48.8934 10.7668 48.2111 10.4941C47.5287 10.2214 46.9437 9.75261 46.5309 9.14766C46.118 8.54272 45.8961 7.82911 45.8935 7.09811C45.8761 6.13594 46.2435 5.20623 46.9151 4.51308C47.5866 3.81992 48.5075 3.41997 49.4754 3.40102V3.41241Z" fill="#BABACE"/>
<path d="M64.1699 13.9647C65.5399 13.9579 66.877 13.5473 68.012 12.7848C69.1471 12.0223 70.0291 10.9423 70.5463 9.68134C71.0635 8.42041 71.1928 7.03529 70.9178 5.7013C70.6427 4.36731 69.9757 3.14442 69.0011 2.18741C68.0266 1.23039 66.7883 0.582278 65.443 0.325099C64.0977 0.0679199 62.7058 0.213242 61.4437 0.742661C60.1815 1.27208 59.1057 2.1618 58.3525 3.29921C57.5992 4.43662 57.2024 5.77059 57.2122 7.13227C57.2284 8.95386 57.9692 10.695 59.273 11.9753C60.5767 13.2555 62.3373 13.9708 64.1699 13.9647ZM64.1699 3.41241C64.9049 3.39052 65.6297 3.58697 66.2517 3.97667C66.8737 4.36636 67.3647 4.93158 67.6618 5.60008C67.959 6.26858 68.0488 7.00997 67.9199 7.72949C67.7909 8.44901 67.449 9.11396 66.9379 9.63933C66.4268 10.1647 65.7697 10.5266 65.0505 10.6788C64.3314 10.831 63.5829 10.7666 62.9008 10.4938C62.2187 10.221 61.6339 9.75217 61.2212 9.14729C60.8086 8.54241 60.5868 7.82895 60.5841 7.09811C60.5668 6.1353 60.9347 5.20502 61.6071 4.51176C62.2795 3.81849 63.2013 3.41898 64.1699 3.40102V3.41241Z" fill="#BABACE"/>
<path d="M80.2086 12.845C81.2579 12.294 82.1352 11.4677 82.7452 10.4559C83.3552 9.44401 83.6745 8.28531 83.6683 7.10572C83.6673 6.13263 83.454 5.17133 83.0433 4.28802C82.6326 3.4047 82.0342 2.62037 81.2892 1.98901C80.4529 1.32475 78.9369 0.444122 75.4466 0.444122H71.9639V13.7028H75.5039C77.5354 13.7028 79.1049 13.4105 80.2086 12.845ZM75.355 3.35548C76.8824 3.35548 78.093 3.51491 79.04 4.31203C79.4503 4.65627 79.7804 5.08513 80.0072 5.56886C80.2341 6.0526 80.3523 6.57962 80.3537 7.11332C80.3655 7.7506 80.2017 8.37896 79.88 8.9303C79.5582 9.48164 79.0908 9.93493 78.5283 10.241C77.5507 10.7231 76.745 10.8066 75.4084 10.8066H75.2786V3.33651L75.355 3.35548Z" fill="#BABACE"/>
<path d="M24.4398 21.8561V28.6733H27.9187V15.6424H23.2599L20.5447 23.1657L17.7953 15.6424H13.1402V28.6733H16.6153V21.8941L19.2655 28.6733H21.7897L24.4398 21.8561Z" fill="#BABACE"/>
<path d="M35.4493 15.3957C33.6143 15.3754 31.8461 16.0793 30.5325 17.353C29.2189 18.6267 28.4671 20.3663 28.4419 22.1902C28.4419 25.9025 31.5847 28.9239 35.4493 28.9239C39.3138 28.9239 42.4566 25.8873 42.4566 22.1902C42.4315 20.3663 41.6796 18.6267 40.366 17.353C39.0524 16.0793 37.2842 15.3754 35.4493 15.3957ZM35.4493 25.6861C34.7454 25.6899 34.0563 25.4856 33.4694 25.0994C32.8826 24.7131 32.4244 24.1622 32.1531 23.5166C31.8819 22.871 31.8097 22.1599 31.9458 21.4734C32.0819 20.787 32.4202 20.1563 32.9176 19.6613C33.4151 19.1663 34.0492 18.8294 34.7397 18.6934C35.4301 18.5573 36.1456 18.6283 36.7954 18.8972C37.4452 19.1662 37.9999 19.621 38.3892 20.2039C38.7784 20.7868 38.9846 21.4716 38.9816 22.1712C38.9816 22.6328 38.8901 23.0898 38.7124 23.5163C38.5347 23.9427 38.2742 24.3302 37.9459 24.6566C37.6175 24.983 37.2277 25.2419 36.7987 25.4185C36.3696 25.5952 35.9098 25.6861 35.4454 25.6861H35.4493Z" fill="#BABACE"/>
<path d="M51.6216 23.0176C52.4673 22.1625 52.9441 21.0132 52.9505 19.814C52.9473 19.1838 52.7991 18.5626 52.5171 17.9981C52.2351 17.4336 51.8269 16.9407 51.3237 16.5572C50.5065 15.9157 49.5136 15.6424 48.0014 15.6424H43.354V28.6734H46.8291V24.7144L49.6587 28.6734H53.4355L49.8802 23.9856C50.5318 23.8099 51.1298 23.4775 51.6216 23.0176ZM46.8291 18.4969H47.9747C49.7733 18.4969 49.8649 19.7457 49.8649 19.9962C49.8649 20.4593 49.6816 21.5145 47.9747 21.5145H46.8291V18.4969Z" fill="#BABACE"/>
<path d="M70.7381 15.6424H67.6449V28.6733H70.7381V15.6424Z" fill="#BABACE"/>
<path d="M57.7926 21.4006L62.5355 28.6733H66.1289V15.6424H62.65V22.9075L57.9606 15.6424H54.4245V28.6733H57.7926V21.4006Z" fill="#BABACE"/>
<path d="M75.5115 21.4006L80.2544 28.6733H83.8478V15.6424H80.3728V22.9075L75.6796 15.6424H72.1434V28.6733H75.5115V21.4006Z" fill="#BABACE"/>
<path d="M100.425 30.6662L93.0815 48.0889H98.2559L99.4206 45.1965H105.286L106.432 48.0889H111.61L104.599 30.6662H100.425ZM104.186 41.9131H100.448L102.315 36.3333L104.186 41.9131Z" fill="#BABACE"/>
<path d="M7.62982 30.6662L0.286407 48.0889H5.46078L6.62549 45.1965H12.4911L13.6367 48.0889H18.8149L11.8037 30.6662H7.62982ZM11.3913 41.9131H7.65273L9.52009 36.3333L11.3913 41.9131Z" fill="#BABACE"/>
<path d="M29.0109 40.9414L25.2762 30.6548H19.2922V48.0774H23.7258V38.3147L27.323 48.0774H30.6529L34.2502 38.2577V48.0774H38.6837V30.6548H32.6998L29.0109 40.9414Z" fill="#BABACE"/>
<path d="M40.9635 48.0774H51.6903V44.0994H45.5498V40.892H51.4154V37.2936H45.5498V34.2494H51.6903V30.6548H40.9635V48.0774Z" fill="#BABACE"/>
<path d="M65.6974 40.8047C67.0951 39.5901 67.6068 37.3885 67.6068 36.1814C67.5875 35.293 67.369 34.4201 66.9674 33.6262C66.5657 32.8323 65.991 32.1375 65.285 31.5923C64.1394 30.7459 62.7112 30.6548 60.5421 30.6548H54.2412V48.0774H58.6519V42.3838L62.5737 48.0774H67.8894L63.3069 42.0915C64.2063 41.8857 65.0326 41.441 65.6974 40.8047ZM58.6671 34.2532H60.4772C63.2458 34.2532 63.3871 36.0638 63.3871 36.4282C63.3871 37.0962 63.1007 38.6525 60.4772 38.6525H58.6671V34.2532Z" fill="#BABACE"/>
<path d="M74.4385 30.6548H70.2341V48.0774H74.4385V30.6548Z" fill="#BABACE"/>
<path d="M95.1016 41.3816H89.9273C89.9273 41.3816 88.7816 44.1905 86.0398 44.1905C83.2979 44.1905 80.7661 42.2585 80.7661 39.3433C80.7661 36.0941 83.3629 34.6403 85.9138 34.6403C88.4647 34.6403 89.8585 37.2063 89.8585 37.2063H95.1016C95.1704 37.0032 95.1823 36.7854 95.136 36.5762C94.5212 34.9136 91.9779 30.3169 86.3529 30.3169C79.5098 30.3169 76.0767 34.4278 76.0767 39.2978C76.0767 44.3234 80.1857 48.4076 86.3529 48.4076C92.4285 48.4076 95.0176 42.2812 95.0787 42.0155C95.1086 41.8056 95.1163 41.5932 95.1016 41.3816Z" fill="#BABACE"/>
<path d="M0.90506 57.491C0.90506 57.491 45.714 44.5853 111.778 56.3523C108.085 56.8571 101.593 58.8803 100.704 59.7685C99.3023 59.0093 55.6427 49.1403 0.90506 57.491Z" fill="#BABACE"/>
</svg>
