<svg width="42" height="42" viewBox="0 0 42 42" fill="none" xmlns="http://www.w3.org/2000/svg">
<path d="M4.7374 27.2819C4.83526 23.9807 3.03976 22.7362 0.849458 21.9155C0.121178 24.7396 2.1292 27.0903 4.7374 27.2819Z" fill="#FF9900"/>
<path d="M5.2334 12.539C6.6299 9.54691 5.47196 7.68715 3.7802 6.06763C2.00318 8.37595 2.9171 11.3294 5.2334 12.539Z" fill="#FF9900"/>
<path d="M6.02092 20.8639C5.92474 17.5632 7.71898 16.3153 9.91054 15.4963C10.6355 18.32 8.62828 20.6707 6.02092 20.8639Z" fill="#FF9900"/>
<path d="M6.02092 25.9521C5.92474 22.6522 7.71898 21.4064 9.91054 20.5862C10.6355 23.409 8.62828 25.7602 6.02092 25.9521Z" fill="#FF9900"/>
<path d="M6.02092 15.7765C5.92474 12.4745 7.71898 11.2267 9.91054 10.406C10.6355 13.2318 8.62828 15.5812 6.02092 15.7765Z" fill="#FF9900"/>
<path d="M4.7374 22.1931C4.83526 18.8927 3.03976 17.6445 0.849458 16.8259C0.121178 19.65 2.1292 21.9999 4.7374 22.1931Z" fill="#FF9900"/>
<path d="M4.7374 17.1062C4.83526 13.8042 3.03976 12.5564 0.849458 11.7349C0.121178 14.5615 2.1292 16.9101 4.7374 17.1062Z" fill="#FF9900"/>
<path d="M29.4733 42H11.7724L20.6235 26.6675L29.4733 42ZM15.289 39.9689H25.9558L20.6235 30.7297L15.289 39.9689Z" fill="#FF9900"/>
<path d="M2.15355 31.5533L39.6512 21.3536L39.0951 19.2935L1.59369 29.4944L2.15355 31.5533Z" fill="#FF9900"/>
<path d="M28.6135 0C28.6135 0 28.8874 5.40918 33.6292 4.95138C33.6292 4.95138 34.1643 0.4305 28.6135 0Z" fill="#FF9900"/>
<path d="M33.5775 17.5938C33.0832 18.2944 32.257 18.748 31.3305 18.748C30.5745 18.748 29.8345 18.3935 29.3355 17.8954C28.3145 16.7811 26.9907 14.291 26.9907 14.291C26.2494 12.784 25.8512 11.6193 25.8512 10.4408C25.8512 7.9309 27.8832 5.75488 30.3969 5.75488C31.6367 5.75488 32.7552 6.25132 33.5771 7.05352C34.3986 6.25132 35.5158 5.75488 36.7548 5.75488C39.2694 5.75488 41.3005 7.93132 41.3005 10.4408C41.3005 11.6189 40.9032 12.784 40.1614 14.291C40.1614 14.291 38.838 16.7807 37.817 17.8954C37.318 18.3939 36.5772 18.748 35.8216 18.748C34.8959 18.7476 34.0714 18.2944 33.5775 17.5938Z" fill="#FF9900"/>
</svg>
