<svg width="123" height="42" viewBox="0 0 123 42" fill="none" xmlns="http://www.w3.org/2000/svg">
<g clip-path="url(#clip0)">
<path d="M0 4.66667V9.33334H2.54545H5.09091L5.00606 20.8727L4.87879 32.4546L2.46061 32.5818L0 32.7091V36.9091V41.1515H14.2121H28.4242V36.9091V32.7091L25.7939 32.5818L23.1212 32.4546V21V9.54546L25.7939 9.41819L28.4242 9.29092V4.66667V8.54207e-06H14.2121H0V4.66667Z" fill="#BABACE"/>
<path d="M30.5454 13.9576V18.2L32.3697 18.3273L34.1515 18.4545V25.4545V32.4545L32.3697 32.5818L30.5454 32.7091V36.9515V41.1515H41.5757H52.606V36.9515V32.7091L50.6121 32.5818L48.5757 32.4545L48.4485 27.7879C48.3212 24.0121 48.4485 22.8667 49.0424 21.7212C50.697 18.6242 55.5757 17.5212 57.8242 19.7697C59.2242 21.1697 59.4788 22.4424 59.3091 28L59.1818 32.4545L57.0606 32.5818L54.9394 32.7091V36.9091V41.1515H65.8848H76.7879V37.1212C76.7879 32.9212 77.1697 32.2 78.2303 34.2364C80.606 38.8182 87.8182 42 95.7939 42C101.988 42 107.079 40.303 109.752 37.3758C111.024 35.9758 112.848 32.3273 112.848 31.097C112.848 30.2061 112.679 30.1636 107.121 30.0364L101.436 29.9091L100.758 31.6061C99.9939 33.6848 98.297 34.7879 95.8788 34.7879C93.4606 34.7879 91.4242 33.4727 90.703 31.4788C89.9394 29.2727 89.9818 21.7636 90.7879 20.1939C92.2727 17.2667 96.0909 16.2909 98.6788 18.1152C99.7394 18.8788 100.164 19.6424 100.63 21.5091C100.97 22.8667 101.394 23.9697 101.606 23.9697C103.43 23.8848 110.77 23.2485 111.703 23.0788C112.848 22.8242 112.891 22.7394 112.636 21.297C112.255 19.3455 110.685 16.2485 109.242 14.7212C106.4 11.7091 101.903 10.097 96.303 10.0121C87.1394 9.88485 79.3333 14 76.9576 20.1515C76.0667 22.4424 75.8545 27.6182 76.4909 30.8424L76.8727 32.6667H75.1757H73.4788L73.3091 25.3273C73.1818 18.1152 73.1394 17.903 71.9091 15.4424C70.806 13.2788 70.297 12.7697 68.1333 11.7091C66.0545 10.6485 65.0788 10.3939 61.7697 10.2667C59.0545 10.1394 57.2303 10.3091 55.703 10.7333C53.2 11.497 49.8909 13.5758 49.2121 14.8485C48.3636 16.4182 47.9394 15.697 47.9394 12.7273V9.75758H39.2424H30.5454V13.9576Z" fill="#BABACE"/>
<path d="M115.564 31.8182C114.079 32.4121 112.424 34.7454 112.424 36.2303C112.424 38.1818 114.036 40.3879 115.903 41.0242C119.933 42.3394 123.624 38.5212 122.012 34.6606C120.951 32.1151 118.024 30.8 115.564 31.8182Z" fill="#BABACE"/>
</g>
<defs>
<clipPath id="clip0">
<rect width="122.606" height="42" fill="white"/>
</clipPath>
</defs>
</svg>
