<svg width="15" height="14" viewBox="0 0 15 14" fill="none" xmlns="http://www.w3.org/2000/svg">
<path d="M3.04156 5.67627H0.601953C0.374141 5.67627 0.195312 5.86702 0.195312 6.11002V13.0493C0.195312 13.2923 0.374141 13.483 0.601953 13.483H3.04156C3.26938 13.483 3.44797 13.2923 3.44797 13.0493V6.11002C3.4482 5.86702 3.26938 5.67627 3.04156 5.67627Z" fill="#14214E"/>
<path d="M14.8046 6.4983C14.8046 5.79155 14.3497 5.0763 13.4809 5.0763H9.54175C10.1045 4.00255 10.27 2.4923 9.87878 1.3873C9.59144 0.574548 9.0423 0.100299 8.33167 0.0520486L8.32019 0.0510485C7.85776 0.0207985 7.45745 0.390299 7.41901 0.882799C7.31776 1.9788 6.86753 3.9173 6.2223 4.60555C5.67901 5.18505 5.21401 5.4278 4.44315 5.8298C4.33159 5.88805 4.20972 5.95155 4.08081 6.02005C4.08315 6.0498 4.08456 6.07955 4.08456 6.11005V12.9785C4.17761 13.0125 4.26948 13.0463 4.35972 13.0793C5.6319 13.547 6.73136 13.9508 8.41183 13.9508H11.5965C12.4656 13.9508 12.9203 13.2353 12.9203 12.5288C12.9203 12.319 12.8804 12.1088 12.8014 11.9163C13.0909 11.8608 13.3442 11.7123 13.532 11.485C13.745 11.2268 13.8625 10.8835 13.8625 10.5185C13.8625 10.3095 13.8226 10.0993 13.7439 9.9073C14.4416 9.7788 14.8049 9.14005 14.8049 8.50855C14.8049 8.1423 14.6825 7.77355 14.4439 7.50355C14.6821 7.2333 14.8046 6.86455 14.8046 6.4983Z" fill="#14214E"/>
</svg>
