<svg width="139" height="58" viewBox="0 0 139 58" fill="none" xmlns="http://www.w3.org/2000/svg">
<g clip-path="url(#clip0)">
<path d="M59.8455 44.4225C59.9905 44.4128 60.1742 44.4032 60.3965 44.3935C60.6188 44.3838 60.8508 44.3742 61.0925 44.3645C61.3342 44.3548 61.5758 44.35 61.8175 44.35C62.0592 44.35 62.2718 44.3548 62.4555 44.3645C62.6005 44.3742 62.7068 44.4322 62.7745 44.5385C62.8422 44.6352 62.8712 44.7657 62.8615 44.93C62.8422 45.104 62.7842 45.22 62.6875 45.278C62.6005 45.3263 62.4942 45.3602 62.3685 45.3795C62.2912 45.3892 62.1558 45.3988 61.9625 45.4085C61.7788 45.4085 61.5855 45.4133 61.3825 45.423C61.1408 45.4327 60.8847 45.4423 60.614 45.452L60.672 48.903C60.904 48.8933 61.1263 48.8837 61.339 48.874C61.5227 48.8643 61.7112 48.8595 61.9045 48.8595C62.0978 48.8595 62.2525 48.8643 62.3685 48.874C62.5328 48.8933 62.6295 48.9465 62.6585 49.0335C62.6972 49.1108 62.7165 49.193 62.7165 49.28C62.7165 49.3767 62.6972 49.4782 62.6585 49.5845C62.6198 49.6812 62.5183 49.7392 62.354 49.7585C62.2477 49.7778 62.1027 49.7875 61.919 49.7875C61.7353 49.7875 61.5517 49.7923 61.368 49.802C61.1553 49.8117 60.9282 49.8165 60.6865 49.8165C60.6865 49.8165 60.6865 49.9035 60.6865 50.0775C60.6962 50.2515 60.7058 50.4738 60.7155 50.7445C60.7252 51.0152 60.73 51.3148 60.73 51.6435C60.7397 51.9722 60.7445 52.296 60.7445 52.615C60.7445 52.9243 60.7397 53.2047 60.73 53.456C60.73 53.7073 60.7252 53.8958 60.7155 54.0215C60.6962 54.2342 60.6382 54.3695 60.5415 54.4275C60.4448 54.4855 60.3192 54.5145 60.1645 54.5145C60.0195 54.5145 59.9083 54.4807 59.831 54.413C59.7537 54.3357 59.7102 54.2003 59.7005 54.007C59.7005 53.949 59.6957 53.7798 59.686 53.4995C59.6763 53.2192 59.6618 52.8712 59.6425 52.4555C59.6328 52.0302 59.6183 51.5613 59.599 51.049C59.5893 50.527 59.5748 49.9953 59.5555 49.454C59.5458 48.9127 59.5313 48.381 59.512 47.859C59.5023 47.337 59.4927 46.8633 59.483 46.438C59.4733 46.0127 59.4637 45.6598 59.454 45.3795C59.454 45.0992 59.454 44.9252 59.454 44.8575C59.454 44.7512 59.4733 44.669 59.512 44.611C59.5507 44.553 59.5942 44.5095 59.6425 44.4805C59.6908 44.4515 59.7343 44.437 59.773 44.437C59.8117 44.4273 59.8358 44.4225 59.8455 44.4225ZM66.0321 44.263C66.4575 44.2727 66.8248 44.4273 67.1341 44.727C67.4435 45.017 67.6996 45.394 67.9026 45.858C68.1056 46.322 68.2555 46.8392 68.3521 47.4095C68.4488 47.9798 68.4971 48.5453 68.4971 49.106C68.4971 49.5023 68.4826 49.9083 68.4536 50.324C68.4246 50.7397 68.3715 51.1505 68.2941 51.5565C68.2265 51.9528 68.1298 52.3298 68.0041 52.6875C67.8881 53.0452 67.7383 53.3593 67.5546 53.63C67.3806 53.9007 67.168 54.1182 66.9166 54.2825C66.675 54.4372 66.3898 54.5145 66.0611 54.5145C65.6068 54.5145 65.2298 54.3695 64.9301 54.0795C64.6401 53.7895 64.4081 53.4173 64.2341 52.963C64.0601 52.5087 63.9393 52.0012 63.8716 51.4405C63.804 50.8798 63.7701 50.324 63.7701 49.773C63.7701 49.1833 63.7943 48.5647 63.8426 47.917C63.9006 47.2693 64.007 46.6748 64.1616 46.1335C64.326 45.5922 64.558 45.1475 64.8576 44.7995C65.1573 44.4418 65.5488 44.263 66.0321 44.263ZM66.1046 45.336C65.921 45.336 65.747 45.394 65.5826 45.51C65.428 45.626 65.2878 45.8532 65.1621 46.1915C65.0461 46.5202 64.9543 46.9842 64.8866 47.5835C64.819 48.1828 64.7851 48.9658 64.7851 49.9325C64.7851 50.7348 64.8383 51.3632 64.9446 51.8175C65.0606 52.2718 65.1911 52.615 65.3361 52.847C65.4908 53.0693 65.6406 53.2095 65.7856 53.2675C65.9306 53.3255 66.037 53.3545 66.1046 53.3545C66.182 53.3545 66.298 53.3207 66.4526 53.253C66.6073 53.1853 66.7571 53.0113 66.9021 52.731C67.0568 52.441 67.1921 52.006 67.3081 51.426C67.4241 50.8363 67.4821 50.0243 67.4821 48.99C67.4821 48.323 67.4386 47.7623 67.3516 47.308C67.2646 46.844 67.1535 46.467 67.0181 46.177C66.8828 45.887 66.733 45.6792 66.5686 45.5535C66.4043 45.4182 66.2496 45.3457 66.1046 45.336ZM72.0077 44.263C72.433 44.2727 72.8004 44.4273 73.1097 44.727C73.419 45.017 73.6752 45.394 73.8782 45.858C74.0812 46.322 74.231 46.8392 74.3277 47.4095C74.4244 47.9798 74.4727 48.5453 74.4727 49.106C74.4727 49.5023 74.4582 49.9083 74.4292 50.324C74.4002 50.7397 74.347 51.1505 74.2697 51.5565C74.202 51.9528 74.1054 52.3298 73.9797 52.6875C73.8637 53.0452 73.7139 53.3593 73.5302 53.63C73.3562 53.9007 73.1435 54.1182 72.8922 54.2825C72.6505 54.4372 72.3654 54.5145 72.0367 54.5145C71.5824 54.5145 71.2054 54.3695 70.9057 54.0795C70.6157 53.7895 70.3837 53.4173 70.2097 52.963C70.0357 52.5087 69.9149 52.0012 69.8472 51.4405C69.7795 50.8798 69.7457 50.324 69.7457 49.773C69.7457 49.1833 69.7699 48.5647 69.8182 47.917C69.8762 47.2693 69.9825 46.6748 70.1372 46.1335C70.3015 45.5922 70.5335 45.1475 70.8332 44.7995C71.1329 44.4418 71.5244 44.263 72.0077 44.263ZM72.0802 45.336C71.8965 45.336 71.7225 45.394 71.5582 45.51C71.4035 45.626 71.2634 45.8532 71.1377 46.1915C71.0217 46.5202 70.9299 46.9842 70.8622 47.5835C70.7945 48.1828 70.7607 48.9658 70.7607 49.9325C70.7607 50.7348 70.8139 51.3632 70.9202 51.8175C71.0362 52.2718 71.1667 52.615 71.3117 52.847C71.4664 53.0693 71.6162 53.2095 71.7612 53.2675C71.9062 53.3255 72.0125 53.3545 72.0802 53.3545C72.1575 53.3545 72.2735 53.3207 72.4282 53.253C72.5829 53.1853 72.7327 53.0113 72.8777 52.731C73.0324 52.441 73.1677 52.006 73.2837 51.426C73.3997 50.8363 73.4577 50.0243 73.4577 48.99C73.4577 48.323 73.4142 47.7623 73.3272 47.308C73.2402 46.844 73.129 46.467 72.9937 46.177C72.8584 45.887 72.7085 45.6792 72.5442 45.5535C72.3799 45.4182 72.2252 45.3457 72.0802 45.336ZM76.5768 44.292C77.0891 44.2823 77.5821 44.3548 78.0558 44.5095C78.5295 44.6545 78.9403 44.9252 79.2883 45.3215C79.646 45.7082 79.9263 46.235 80.1293 46.902C80.3323 47.569 80.4193 48.4148 80.3903 49.4395C80.371 50.1258 80.2791 50.7252 80.1148 51.2375C79.9601 51.7402 79.762 52.18 79.5203 52.557C79.2883 52.9243 79.0273 53.2288 78.7373 53.4705C78.4473 53.7122 78.1573 53.9055 77.8673 54.0505C77.587 54.1955 77.3211 54.3018 77.0698 54.3695C76.8185 54.4275 76.6106 54.4565 76.4463 54.4565C76.1853 54.4565 76.0258 54.4275 75.9678 54.3695C75.9098 54.3018 75.8808 54.181 75.8808 54.007C75.8808 53.949 75.8808 53.717 75.8808 53.311C75.8905 52.905 75.9001 52.4072 75.9098 51.8175C75.9195 51.2278 75.9291 50.585 75.9388 49.889C75.9581 49.1833 75.9726 48.497 75.9823 47.83C75.992 47.163 76.0016 46.5492 76.0113 45.9885C76.0306 45.4278 76.0403 45.0025 76.0403 44.7125C76.05 44.6062 76.0741 44.524 76.1128 44.466C76.1515 44.408 76.1998 44.3693 76.2578 44.35C76.3158 44.321 76.3738 44.3065 76.4318 44.3065C76.4898 44.2968 76.5381 44.292 76.5768 44.292ZM76.9538 53.3835C77.1568 53.3255 77.3985 53.2095 77.6788 53.0355C77.9688 52.8518 78.2443 52.5957 78.5053 52.267C78.776 51.9287 79.0031 51.513 79.1868 51.02C79.3801 50.527 79.4816 49.9373 79.4913 49.251C79.501 48.3327 79.414 47.6173 79.2303 47.105C79.0466 46.583 78.8243 46.2012 78.5633 45.9595C78.3023 45.7082 78.0316 45.5583 77.7513 45.51C77.471 45.452 77.239 45.423 77.0553 45.423L76.9538 53.3835ZM83.3961 44.2775C83.9761 44.2775 84.4449 44.3838 84.8026 44.5965C85.1699 44.8092 85.3536 45.075 85.3536 45.394C85.3536 45.6743 85.3004 45.8628 85.1941 45.9595C85.0878 46.0465 84.9814 46.09 84.8751 46.09C84.7494 46.09 84.6383 46.0465 84.5416 45.9595C84.4449 45.8628 84.3483 45.7613 84.2516 45.655C84.1549 45.539 84.0486 45.4375 83.9326 45.3505C83.8166 45.2538 83.6813 45.2055 83.5266 45.2055C83.3043 45.2055 83.1544 45.2683 83.0771 45.394C82.9998 45.5197 82.9611 45.7517 82.9611 46.09C82.9611 46.2447 82.9804 46.4187 83.0191 46.612C83.0674 46.7957 83.1496 47.0132 83.2656 47.2645C83.3816 47.5158 83.5411 47.8107 83.7441 48.149C83.9471 48.4777 84.2033 48.8643 84.5126 49.309C84.7833 49.7053 84.9911 50.0727 85.1361 50.411C85.2811 50.7493 85.3826 51.0587 85.4406 51.339C85.5083 51.6193 85.5469 51.8658 85.5566 52.0785C85.5663 52.2815 85.5711 52.4458 85.5711 52.5715C85.5711 52.7068 85.5469 52.8808 85.4986 53.0935C85.4503 53.3062 85.3584 53.5188 85.2231 53.7315C85.0878 53.9442 84.8896 54.1278 84.6286 54.2825C84.3676 54.4275 84.0293 54.5 83.6136 54.5C83.1883 54.5 82.8403 54.4323 82.5696 54.297C82.2989 54.1617 82.0814 54.007 81.9171 53.833C81.7624 53.659 81.6513 53.4898 81.5836 53.3255C81.5256 53.1515 81.4966 53.0258 81.4966 52.9485C81.4966 52.8132 81.5256 52.6827 81.5836 52.557C81.6513 52.4313 81.7963 52.3685 82.0186 52.3685C82.1346 52.3685 82.2216 52.3878 82.2796 52.4265C82.3376 52.4555 82.3859 52.5038 82.4246 52.5715C82.4729 52.6295 82.5213 52.702 82.5696 52.789C82.6179 52.8663 82.6856 52.9485 82.7726 53.0355C82.9563 53.2288 83.1061 53.3642 83.2221 53.4415C83.3381 53.5188 83.4686 53.5575 83.6136 53.5575C83.6909 53.5575 83.7876 53.5478 83.9036 53.5285C84.0196 53.4995 84.1259 53.4512 84.2226 53.3835C84.3289 53.3062 84.4159 53.1998 84.4836 53.0645C84.5609 52.9195 84.5996 52.7358 84.5996 52.5135C84.5996 52.3008 84.5754 52.1027 84.5271 51.919C84.4884 51.7257 84.4111 51.513 84.2951 51.281C84.1888 51.049 84.0389 50.7783 83.8456 50.469C83.6619 50.15 83.4251 49.7633 83.1351 49.309C82.8741 48.8933 82.6566 48.5357 82.4826 48.236C82.3183 47.9267 82.1878 47.6512 82.0911 47.4095C81.9944 47.1582 81.9268 46.9262 81.8881 46.7135C81.8494 46.5008 81.8301 46.2785 81.8301 46.0465C81.8301 45.7758 81.8736 45.5342 81.9606 45.3215C82.0573 45.0992 82.1781 44.9107 82.3231 44.756C82.4778 44.6013 82.6469 44.4853 82.8306 44.408C83.0239 44.321 83.2124 44.2775 83.3961 44.2775Z" fill="#F37421"/>
<path d="M21.6605 35.7853C21.733 35.3887 21.8418 34.9424 21.9822 34.4331C22.1227 33.9238 22.2722 33.4595 22.4353 32.9772C22.5984 32.4949 22.7615 32.0757 22.92 31.625C23.0786 31.1742 23.2055 30.8767 23.2961 30.5973C23.5951 29.6147 23.8896 28.6005 24.1705 27.5593C24.4514 26.5181 24.7187 25.4814 25.0042 24.3996C25.1401 23.8707 25.2911 23.3253 25.4572 22.7634C25.5592 22.2919 25.786 21.8562 26.1142 21.5013C26.3137 21.3226 26.5361 21.1711 26.7756 21.0506C27.0481 20.9092 27.3395 20.8075 27.641 20.7486C27.9394 20.6898 28.2453 20.6791 28.5471 20.717C28.8334 20.7521 29.102 20.8732 29.3173 21.0641C29.5282 21.2549 29.6978 21.4865 29.8157 21.7447C29.9564 22.0729 30.0642 22.4141 30.1374 22.7634C30.2144 23.1465 30.2869 23.5387 30.3458 23.9443C30.4047 24.35 30.4681 24.7466 30.5406 25.1253C30.6765 25.6707 30.8442 26.3378 31.048 27.1311C31.2519 27.9244 31.4603 28.7402 31.6823 29.5921C31.9043 30.444 32.1354 31.2509 32.3529 32.0171C32.5235 32.631 32.7339 33.2332 32.9826 33.8201C33.1095 33.4189 33.2228 32.9862 33.327 32.522C33.4312 32.0577 33.5399 31.6205 33.6486 31.1697C33.7574 30.719 33.8616 30.3223 33.9612 29.9437C34.0437 29.6378 34.1435 29.3368 34.2603 29.0422C34.5593 27.8432 34.8085 26.7164 35.0033 25.6752C35.1981 24.634 35.4564 23.471 35.7373 22.1954C35.8641 21.623 36 20.9694 36.1496 20.2347C36.2665 19.5899 36.4581 18.9607 36.7204 18.3596C36.8849 18.0405 37.1223 17.7641 37.4136 17.5528C37.7539 17.272 38.1341 17.0426 38.5417 16.8722C38.9215 16.7096 39.3341 16.6371 39.7469 16.6603C39.9415 16.6734 40.1299 16.7337 40.2957 16.8358C40.4616 16.9379 40.5998 17.0789 40.6983 17.2463C40.7782 17.4451 40.8271 17.6548 40.8433 17.8683C40.875 18.1677 40.8856 18.4689 40.875 18.7698C40.875 19.1003 40.8524 19.4249 40.8071 19.7434C40.7708 20.0679 40.7255 20.3384 40.6802 20.5638C40.4688 21.4652 40.2634 22.3217 40.064 23.133C39.8647 23.9488 39.6653 24.7647 39.4705 25.594C39.2757 26.4234 39.0673 27.2663 38.877 28.1407C38.6867 29.0152 38.5236 29.9662 38.3514 31.0075C38.2185 31.7797 38.0675 32.6557 37.8984 33.6353C37.7217 34.6179 37.5042 35.5825 37.246 36.5381C37.0089 37.4404 36.7154 38.3271 36.367 39.1929C36.1124 39.8826 35.7349 40.5208 35.2525 41.077C34.9917 41.3383 34.7048 41.5724 34.3962 41.7757C34.0423 42.0038 33.6179 42.0982 33.2001 42.0416C32.7994 42.0133 32.4219 41.8439 32.1354 41.5639C31.7953 41.24 31.5052 40.8678 31.2746 40.4595C31.0063 39.9991 30.7716 39.5201 30.5723 39.0262C30.3684 38.5123 30.1917 38.0481 30.0422 37.6244C29.7985 37.1919 29.5923 36.7395 29.4261 36.2721C29.263 35.8064 29.0999 35.3556 28.9368 34.9199C28.7763 34.4761 28.5917 34.0412 28.384 33.6173C28.1639 33.1753 27.8833 32.7658 27.5504 32.4003C27.1423 33.0192 26.8078 33.6833 26.5536 34.379C26.2999 35.0641 26.0583 35.7733 25.8287 36.5065C25.5992 37.2397 25.3545 37.9729 25.0948 38.7061C24.831 39.4552 24.4973 40.1781 24.098 40.8652C24.003 41.0947 23.9213 41.3295 23.8534 41.5684C23.7809 41.8088 23.7039 42.0431 23.6223 42.2715C23.5443 42.4826 23.4472 42.6863 23.3323 42.88C23.2119 43.0672 23.047 43.2221 22.8521 43.3308C22.3072 43.6586 21.6757 43.8157 21.0398 43.7815C20.7528 43.7596 20.4733 43.6795 20.2185 43.5462C19.9638 43.4129 19.7391 43.2291 19.5583 43.0062C19.1222 42.0869 18.7439 41.1415 18.4256 40.1756C18.104 39.1794 17.8004 38.1743 17.5195 37.1601C17.2386 36.1459 16.9849 35.1363 16.7448 34.1266C16.5046 33.1169 16.2917 32.1569 16.0425 31.2373C15.7405 30.2006 15.4384 29.0918 15.1364 27.9109C14.8343 26.7299 14.5323 25.585 14.2303 24.4762C14.1487 24.1922 14.0445 23.8722 13.9176 23.5071C13.7882 23.1496 13.6778 22.7855 13.5869 22.4163C13.4963 22.0467 13.4193 21.7132 13.3604 21.4021C13.3052 21.1497 13.3052 20.8883 13.3604 20.6359C13.409 20.4679 13.4932 20.3122 13.6073 20.1793C13.7214 20.0464 13.8627 19.9392 14.0218 19.8651C14.4135 19.6483 14.8325 19.4846 15.2678 19.3783C15.7007 19.2665 16.1493 19.2269 16.5953 19.2611C16.956 19.269 17.3025 19.4031 17.5739 19.6397C17.7401 19.8216 17.8652 20.0368 17.9409 20.2708C18.0497 20.5889 18.136 20.9142 18.1991 21.2444C18.2807 21.6005 18.3577 21.9566 18.4347 22.3126C18.5117 22.6687 18.5933 22.9752 18.6703 23.2141C18.9376 24.0345 19.214 25.0171 19.5085 26.1485C19.803 27.2798 20.0793 28.4427 20.3557 29.6237C20.6321 30.8046 20.8767 31.9495 21.0987 33.0403C21.3207 34.1311 21.5065 35.0461 21.6605 35.7853Z" fill="#CD3C27"/>
<path d="M20.2289 34.7232C20.3032 34.3149 20.4148 33.8556 20.5588 33.3313C20.7028 32.807 20.8562 32.3291 21.0234 31.8326C21.1907 31.3362 21.358 30.9047 21.5206 30.4407C21.6832 29.9767 21.8133 29.6705 21.9063 29.3828C22.2129 28.3713 22.515 27.3274 22.803 26.2556C23.0911 25.1838 23.3838 24.0795 23.6766 22.9428C23.816 22.3983 23.9708 21.8369 24.1412 21.2585C24.245 20.785 24.4709 20.3468 24.7964 19.9872C25.001 19.8033 25.2291 19.6472 25.4748 19.5232C25.7542 19.3777 26.053 19.2731 26.3622 19.2123C26.6682 19.1518 26.982 19.1409 27.2915 19.1799C27.5851 19.216 27.8606 19.3406 28.0814 19.5371C28.298 19.7439 28.4689 19.9936 28.5832 20.2702C28.7276 20.608 28.8381 20.9593 28.9131 21.3188C28.9921 21.7132 29.0665 22.1169 29.1269 22.5345C29.1873 22.952 29.2523 23.3603 29.3267 23.7501C29.4661 24.3115 29.638 24.9982 29.8471 25.8148C30.0562 26.6314 30.2699 27.4712 30.4976 28.3481C30.7253 29.225 30.9622 30.0556 31.1853 30.8443C31.3603 31.4762 31.576 32.0962 31.8311 32.7003C31.9612 32.2873 32.0774 31.8419 32.1843 31.364C32.2911 30.8861 32.4026 30.436 32.5142 29.9721C32.6257 29.5081 32.7325 29.0998 32.8348 28.71C32.9193 28.3952 33.0217 28.0853 33.1414 27.7821C33.4481 26.5479 33.7036 25.3879 33.9034 24.3161C34.1032 23.2443 34.3681 22.0473 34.6562 20.7342C34.7863 20.1449 34.9257 19.4722 35.079 18.7159C35.199 18.0521 35.3954 17.4044 35.6645 16.7857C35.8332 16.4572 36.0766 16.1728 36.3754 15.9552C36.7244 15.6661 37.1143 15.43 37.5323 15.2546C37.9218 15.0873 38.3449 15.0126 38.7683 15.0365C38.9679 15.05 39.1611 15.112 39.3312 15.2171C39.5012 15.3223 39.643 15.4673 39.744 15.6397C39.8287 15.8424 39.8819 16.0567 39.902 16.2754C39.9345 16.5835 39.9454 16.8936 39.9346 17.2033C39.9346 17.5436 39.9113 17.8776 39.8649 18.2055C39.8277 18.5396 39.7812 18.818 39.7348 19.05C39.5179 19.9779 39.3073 20.8595 39.1028 21.6946C38.8984 22.5344 38.6939 23.3743 38.4941 24.228C38.2943 25.0817 38.0992 25.9493 37.9133 26.8495C37.7275 27.7496 37.5509 28.7286 37.3744 29.8004C37.2381 30.5922 37.0832 31.4939 36.9097 32.5054C36.7285 33.5169 36.5055 34.5098 36.2406 35.4934C36.0007 36.4236 35.7028 37.3379 35.3485 38.2309C35.086 38.9411 34.6972 39.5981 34.2008 40.1704C33.9334 40.4393 33.6391 40.6803 33.3226 40.8895C32.9597 41.1244 32.5245 41.2215 32.096 41.1633C31.685 41.1341 31.2979 40.9598 31.004 40.6714C30.6553 40.3381 30.3578 39.955 30.1212 39.5347C29.8392 39.0689 29.5907 38.5836 29.3778 38.0824C29.1687 37.5535 28.9875 37.0756 28.8342 36.6395C28.5842 36.1943 28.3727 35.7286 28.2022 35.2475C28.035 34.7681 27.8677 34.3041 27.7004 33.8556C27.5358 33.3987 27.3466 32.9511 27.1335 32.5147C26.911 32.0654 26.628 31.6486 26.2925 31.2758C25.874 31.913 25.531 32.5965 25.2703 33.3127C25.0101 34.018 24.7623 34.748 24.5269 35.5027C24.2915 36.2574 24.0405 37.0122 23.7741 37.7669C23.5007 38.5205 23.1586 39.2473 22.7519 39.9384C22.6545 40.1746 22.5707 40.4163 22.501 40.6622C22.4267 40.9096 22.3477 41.1509 22.264 41.386C22.1831 41.6067 22.082 41.8194 21.962 42.0216C21.8385 42.2144 21.6694 42.3737 21.4695 42.4856C20.9107 42.8231 20.263 42.9848 19.6109 42.9496C19.3166 42.927 19.0299 42.8446 18.7686 42.7074C18.5073 42.5701 18.2769 42.381 18.0915 42.1515C17.6469 41.2005 17.262 40.2227 16.9392 39.2238C16.6093 38.1984 16.298 37.1638 16.0099 36.1198C15.7218 35.0758 15.457 34.0319 15.2107 32.9787C14.9645 31.9254 14.7228 30.9511 14.4905 30.0045C14.1807 28.9374 13.871 27.796 13.5612 26.5804C13.2515 25.3647 12.9417 24.1862 12.6319 23.0448C12.5483 22.7525 12.4414 22.4231 12.3113 22.0473C12.1785 21.6792 12.0653 21.3044 11.9721 20.9244C11.8792 20.544 11.8002 20.2006 11.7398 19.8805C11.6832 19.6206 11.6832 19.3516 11.7398 19.0917C11.7897 18.9188 11.8761 18.7586 11.9931 18.6217C12.1101 18.4849 12.255 18.3746 12.4182 18.2983C12.8199 18.0752 13.2496 17.9066 13.696 17.7972C14.14 17.6821 14.6 17.6414 15.0574 17.6766C15.4274 17.6847 15.7827 17.8227 16.061 18.0663C16.2315 18.2535 16.3598 18.475 16.4374 18.7159C16.5553 19.0429 16.6501 19.3778 16.7208 19.7181C16.8045 20.0846 16.8834 20.4512 16.9624 20.8177C17.0414 21.1843 17.1251 21.4998 17.204 21.7457C17.4782 22.5901 17.7616 23.6016 18.0636 24.7662C18.3657 25.9308 18.6491 27.1279 18.9325 28.3435C19.216 29.5591 19.4669 30.7376 19.6946 31.8605C19.9222 32.9833 20.0895 33.9623 20.2289 34.7232Z" fill="#F37421"/>
<path d="M45.7948 34.751C45.7013 35.1669 45.5766 35.6552 45.4207 36.2655C45.2649 36.8759 45.0823 37.4636 44.8819 38.0739C44.6815 38.6842 44.4589 39.3081 44.2095 39.8687C43.9601 40.4293 43.7642 40.9176 43.5771 41.2928C43.3427 41.6016 43.0162 41.8252 42.6464 41.9303C42.3079 42.0248 41.9517 42.0341 41.6088 41.9574C41.2881 41.8888 40.9848 41.7533 40.7182 41.5596C40.602 41.4827 40.5025 41.3824 40.4259 41.265C40.3493 41.1476 40.2973 41.0155 40.2729 40.8769C40.2185 40.3678 40.2794 39.8529 40.451 39.3714C40.6381 38.7294 40.8117 38.1101 40.9676 37.5178C41.6712 34.8324 42.4134 32.2133 43.1942 29.6604C43.975 27.1076 44.781 24.5578 45.6122 22.011C45.8126 21.369 45.9952 20.6547 46.1511 19.9404C46.3028 19.2357 46.5022 18.5423 46.7478 17.8653C46.9532 17.2665 47.2541 16.706 47.6384 16.2061C48.0038 15.7462 48.5338 15.4519 49.1124 15.3878C49.4914 15.2985 49.8884 15.3317 50.2479 15.4828C50.5138 15.6326 50.7282 15.8613 50.8625 16.1383C51.0262 16.4877 51.133 16.8618 51.1786 17.246C51.241 17.698 51.3122 18.1908 51.3924 18.7469C51.6195 20.1394 51.8867 21.4595 52.2029 22.7389C52.519 24.0183 52.8352 25.2435 53.1558 26.4506C53.4765 27.6577 53.8015 28.8557 54.1222 30.0673C54.4428 31.2789 54.7367 32.4815 55.0128 33.7248C55.1063 34.1317 55.2176 34.5883 55.3423 35.081C55.467 35.5738 55.6095 36.0983 55.7565 36.6227C55.9034 37.1471 56.0548 37.6625 56.2018 38.1598C56.3487 38.6571 56.4601 39.1318 56.5536 39.5613C56.5526 39.8434 56.462 40.1177 56.2953 40.3434C56.1249 40.5756 55.9189 40.7786 55.6852 40.9447C55.4454 41.1158 55.181 41.2485 54.9015 41.338C54.6606 41.4195 54.4109 41.4711 54.1578 41.4917C53.8711 41.4598 53.5999 41.3428 53.3782 41.1555C53.1565 40.9682 52.994 40.7188 52.9109 40.4384C52.6098 39.6936 52.3787 38.9216 52.2207 38.1327C52.0381 37.2556 51.8511 36.3831 51.6685 35.506C51.554 34.7976 51.288 34.1232 50.8892 33.5304C50.5107 33.6027 50.0965 33.6796 49.6468 33.7519C49.197 33.8242 48.7561 33.9192 48.2797 34.0186C47.8032 34.1181 47.389 34.2266 46.9437 34.3396C46.5467 34.4323 46.1613 34.5703 45.7948 34.751ZM48.4043 24.2805C48.2797 24.5834 48.1327 25.0039 47.959 25.5464C47.7854 26.0889 47.6339 26.6721 47.487 27.287C47.34 27.9018 47.2198 28.5212 47.1129 29.1315C47.01 29.6555 46.9386 30.1855 46.8992 30.7183C47.1572 30.781 47.4241 30.7963 47.6874 30.7636C48.0057 30.7312 48.3212 30.6753 48.6314 30.5963C48.9242 30.5225 49.2127 30.4319 49.4954 30.325C49.7028 30.2547 49.8917 30.1372 50.0475 29.9814C50.0475 29.6198 49.9718 29.1541 49.8917 28.589C49.8115 28.0239 49.7047 27.4542 49.5755 26.8755C49.4464 26.2969 49.2994 25.7724 49.1302 25.2842C49.024 24.9291 48.8744 24.5889 48.6849 24.2715L48.4043 24.2805Z" fill="#CD3C27"/>
<path d="M44.3859 33.6375C44.2883 34.0644 44.1582 34.5655 43.9956 35.1918C43.8329 35.8182 43.6424 36.4214 43.4333 37.0477C43.2243 37.6741 42.9966 38.2959 42.755 38.8805C42.5133 39.4651 42.2903 39.9569 42.0952 40.342C41.8505 40.6589 41.5099 40.8884 41.1241 40.9962C40.7708 41.0932 40.3992 41.1028 40.0414 41.0241C39.7067 40.9536 39.3903 40.8146 39.1121 40.6158C38.9909 40.5369 38.8871 40.434 38.8072 40.3135C38.7272 40.193 38.6729 40.0574 38.6475 39.9151C38.5922 39.3924 38.6574 38.8639 38.838 38.3701C39.0331 37.7112 39.2144 37.0756 39.377 36.4678C40.1111 33.7117 40.8855 31.0237 41.7002 28.4038C42.5149 25.7838 43.3559 23.167 44.2232 20.5532C44.4323 19.8944 44.6228 19.1613 44.7855 18.4282C44.9439 17.7049 45.1519 16.9933 45.4081 16.2985C45.6224 15.684 45.9364 15.1087 46.3374 14.5957C46.5291 14.3616 46.7654 14.1677 47.0325 14.0251C47.2997 13.8826 47.5925 13.7942 47.894 13.7652C48.2894 13.6735 48.7037 13.7076 49.0788 13.8626C49.3562 14.0164 49.5799 14.2511 49.72 14.5354C49.8908 14.894 50.0023 15.2779 50.0499 15.6722C50.115 16.1361 50.1893 16.6419 50.2729 17.2126C50.5099 18.6416 50.7887 19.9965 51.1186 21.3095C51.4485 22.6226 51.7784 23.88 52.1129 25.1188C52.4475 26.3576 52.7867 27.5872 53.1212 28.8307C53.4558 30.0741 53.7624 31.3083 54.0505 32.5843C54.1481 33.0018 54.2643 33.4705 54.3944 33.9762C54.5245 34.4819 54.6731 35.0202 54.8265 35.5584C54.9798 36.0966 55.1378 36.6255 55.2911 37.1359C55.4445 37.6463 55.5606 38.1335 55.6582 38.5742C55.6572 38.8638 55.5627 39.1453 55.3887 39.3769C55.2109 39.6152 54.9959 39.8236 54.7521 39.994C54.5019 40.1696 54.2261 40.3058 53.9344 40.3977C53.683 40.4813 53.4225 40.5343 53.1584 40.5554C52.8592 40.5226 52.5763 40.4026 52.345 40.2104C52.1136 40.0182 51.9441 39.7622 51.8574 39.4744C51.5432 38.71 51.3021 37.9177 51.1372 37.1081C50.9467 36.2079 50.7515 35.3125 50.561 34.4123C50.4415 33.6853 50.164 32.9932 49.7479 32.3847C49.3529 32.459 48.9208 32.5379 48.4515 32.6121C47.9822 32.6863 47.5222 32.7838 47.0251 32.8858C46.5279 32.9879 46.0958 33.0993 45.6311 33.2153C45.201 33.307 44.783 33.4487 44.3859 33.6375ZM47.1087 22.8917C46.9786 23.2026 46.8253 23.6341 46.6441 24.1908C46.4628 24.7476 46.3049 25.3462 46.1515 25.9772C45.9982 26.6082 45.8727 27.2438 45.7612 27.8702C45.6651 28.4056 45.6015 28.9464 45.5707 29.4895C45.8399 29.5538 46.1184 29.5695 46.3931 29.5359C46.7252 29.5027 47.0545 29.4454 47.3782 29.3642C47.6837 29.2885 47.9846 29.1956 48.2796 29.0858C48.4961 29.0137 48.6932 28.8931 48.8558 28.7332C48.8558 28.362 48.7768 27.8841 48.6931 27.3042C48.6095 26.7242 48.498 26.1396 48.3632 25.5457C48.2285 24.9518 48.0752 24.4136 47.8986 23.9125C47.7877 23.548 47.6316 23.1989 47.434 22.8731L47.1087 22.8917Z" fill="#F37421"/>
<path d="M62.7791 24.0305C63.4206 23.744 64.011 23.352 64.5267 22.8703C65.0989 22.3526 65.671 21.7958 66.2432 21.1999L67.9285 19.4437C68.4445 18.8981 69.0222 18.4162 69.6494 18.0081C69.9785 17.7372 70.3387 17.4302 70.7255 17.1052C71.0308 16.8152 71.3997 16.6032 71.8017 16.4867C72.0889 16.4129 72.3878 16.3989 72.6805 16.4454C72.9732 16.492 73.2536 16.5981 73.5048 16.7575C73.7124 16.8737 73.8874 17.0415 74.0134 17.2453C74.1395 17.4491 74.2123 17.682 74.2252 17.9223C74.2267 18.1607 74.1636 18.395 74.0428 18.5995C73.9084 18.8454 73.7457 19.0742 73.5581 19.2812C73.357 19.5019 73.14 19.7071 72.9089 19.8952L72.273 20.3963C71.0872 21.4377 69.9222 22.5091 68.7779 23.6107C67.6439 24.7077 66.5856 25.8409 65.6073 26.9966C65.6216 27.2894 65.7346 27.5684 65.9275 27.7867C66.1468 28.066 66.3861 28.3286 66.6434 28.5722C67.7509 29.5682 68.7909 30.6391 69.7561 31.7775C70.7344 32.9212 71.6638 34.0875 72.5443 35.2763C72.7177 35.493 72.9045 35.7278 73.1135 35.958C73.3225 36.1883 73.5226 36.4456 73.7182 36.7075C73.9092 36.9601 74.076 37.2307 74.2163 37.5156C74.3512 37.7779 74.4243 38.0684 74.4297 38.3643C74.4398 38.6685 74.3724 38.9701 74.2341 39.2401C74.0985 39.5062 73.9144 39.7436 73.6915 39.9399C73.4708 40.1294 73.2216 40.2818 72.9534 40.3914C72.6877 40.5037 72.4003 40.5531 72.1129 40.5358C71.8737 40.5392 71.6381 40.4751 71.4326 40.3507C71.2084 40.2169 71.0009 40.0562 70.8145 39.8722C70.6305 39.6843 70.4597 39.4837 70.3031 39.2717C70.1341 39.0415 69.974 38.8203 69.8273 38.6081L68.7601 37.177C68.4443 36.7255 68.1286 36.3508 67.8262 35.9806C67.5239 35.6104 67.2081 35.2402 66.8924 34.8745L65.8652 33.6782C65.5717 33.3215 65.1804 32.8746 64.6957 32.3238C64.211 31.773 63.6863 31.2584 63.126 30.7392C63.004 31.293 62.9546 31.8607 62.9792 32.4276C62.9792 33.1184 63.0148 33.8452 63.0415 34.6082C63.0682 35.3711 63.0904 36.107 63.1037 36.8203C63.1319 37.4147 63.0704 38.01 62.9214 38.5855C62.7529 39.0935 62.4442 39.5416 62.0321 39.8767C61.7737 40.0689 61.4768 40.2009 61.1624 40.2634C60.8481 40.3258 60.524 40.3171 60.2133 40.2379C59.9895 40.1845 59.783 40.0734 59.6139 39.9152C59.4449 39.757 59.319 39.5571 59.2484 39.3349C58.9992 38.751 58.8604 38.1246 58.8393 37.4885C58.7993 36.7391 58.7904 35.9761 58.8126 35.2041C58.8348 34.4321 58.8571 33.615 58.8882 32.7662C58.9193 31.9175 58.946 31.0191 58.9771 30.0575C59.0083 29.0959 59.0305 28.062 59.0572 26.9515C59.115 26.2472 59.1461 25.421 59.1506 24.4775C59.155 23.5339 59.1506 22.5723 59.2039 21.5927C59.2573 20.613 59.2929 19.6649 59.3951 18.753C59.4633 17.9786 59.6416 17.2183 59.9243 16.4957C60.1259 16.1878 60.3734 15.9137 60.658 15.6831C60.9154 15.471 61.2213 15.3282 61.5474 15.2677C61.855 15.2095 62.1726 15.2408 62.4634 15.358C62.7939 15.496 63.0868 15.7128 63.3172 15.9901C63.4269 16.5852 63.4686 17.1911 63.4417 17.7959C63.4195 18.5002 63.3617 19.218 63.2683 19.9584C63.1749 20.6988 63.0771 21.4211 62.9748 22.1254C62.8692 22.7555 62.8039 23.3919 62.7791 24.0305Z" fill="#CD3C27"/>
<path d="M61.3315 22.6504C62.0018 22.356 62.6188 21.9531 63.1576 21.458C63.7554 20.926 64.3533 20.3537 64.9511 19.7413L66.7307 17.9364C67.2699 17.3757 67.8735 16.8804 68.5289 16.4609C68.8728 16.1826 69.2491 15.867 69.6534 15.533C69.9709 15.2299 70.3564 15.0072 70.7778 14.8834C71.0779 14.8076 71.3903 14.7932 71.6961 14.841C72.0019 14.8888 72.2949 14.998 72.5574 15.1618C72.7743 15.2811 72.9572 15.4536 73.0889 15.6631C73.2206 15.8725 73.2967 16.1119 73.3101 16.3589C73.3117 16.6039 73.2458 16.8447 73.1196 17.0548C72.9792 17.3076 72.8091 17.5428 72.6132 17.7554C72.403 17.9823 72.1763 18.1932 71.9348 18.3865L71.2703 18.9015C70.0313 19.9717 68.8139 21.0729 67.6182 22.205C66.4334 23.3325 65.3275 24.4971 64.3053 25.6849C64.3181 25.9787 64.4294 26.2598 64.6212 26.4829C64.8504 26.77 65.1004 27.0399 65.3693 27.2903C66.5266 28.3139 67.6132 29.4145 68.6218 30.5845C69.6441 31.7568 70.6152 32.9555 71.5352 34.1804C71.7164 34.4031 71.9115 34.6443 72.1299 34.881C72.3483 35.1176 72.5574 35.3821 72.7618 35.6512C72.9614 35.9108 73.1357 36.1889 73.2822 36.4817C73.4233 36.7513 73.4996 37.0499 73.5053 37.354C73.5158 37.6666 73.4454 37.9766 73.3008 38.2541C73.1756 38.5373 72.9974 38.794 72.7758 39.0104C72.5451 39.2051 72.2847 39.3617 72.0045 39.4744C71.7268 39.5898 71.4265 39.6406 71.1263 39.6229C70.8763 39.6263 70.6302 39.5605 70.4154 39.4326C70.1812 39.2951 69.9643 39.1299 69.7695 38.9408C69.5621 38.7417 69.3695 38.5277 69.1934 38.3005C69.0168 38.0639 68.8495 37.8365 68.6962 37.6185L67.581 36.1476C67.2511 35.6837 66.9212 35.2986 66.6053 34.9181C66.2893 34.5376 65.9594 34.1572 65.6295 33.7813L64.5562 32.5518C64.2495 32.1852 63.8406 31.7259 63.3342 31.1598C62.8277 30.5938 62.2794 30.0649 61.694 29.5313C61.5665 30.1004 61.5149 30.6839 61.5406 31.2666C61.5406 31.9765 61.5778 32.7235 61.6057 33.5076C61.6336 34.2917 61.6568 35.048 61.6707 35.7811C61.7001 36.392 61.6359 37.0038 61.4802 37.5953C61.3041 38.1173 60.9815 38.5779 60.5509 38.9222C60.281 39.1198 59.9707 39.2555 59.6422 39.3196C59.3137 39.3838 58.9751 39.3748 58.6505 39.2934C58.4166 39.2386 58.2009 39.1244 58.0242 38.9618C57.8476 38.7992 57.716 38.5938 57.6422 38.3655C57.3767 37.7787 57.2223 37.1478 57.1869 36.5049C57.1451 35.7347 57.1358 34.9506 57.159 34.1572C57.1822 33.3638 57.2055 32.524 57.238 31.6517C57.2705 30.7794 57.2984 29.8561 57.3309 28.8678C57.3634 27.8795 57.3867 26.817 57.4146 25.6756C57.475 24.9518 57.5075 24.1027 57.5121 23.133C57.5168 22.1633 57.5121 21.175 57.5679 20.1681C57.6237 19.1613 57.6608 18.187 57.7677 17.2497C57.839 16.4538 58.0252 15.6724 58.3206 14.9298C58.5313 14.6134 58.7899 14.3317 59.0873 14.0946C59.3563 13.8767 59.6758 13.7299 60.0166 13.6678C60.338 13.6079 60.6698 13.6401 60.9738 13.7606C61.3191 13.9024 61.6251 14.1252 61.8659 14.4102C61.9805 15.0217 62.0241 15.6445 61.996 16.2661C61.9727 16.9899 61.9123 17.7276 61.8148 18.4885C61.7172 19.2495 61.615 19.9918 61.5081 20.7156C61.4081 21.3562 61.3491 22.0024 61.3315 22.6504Z" fill="#F37421"/>
<path d="M81.1906 35.801C81.9768 35.8548 82.7657 35.8548 83.5519 35.801C84.2771 35.7514 85.0067 35.6973 85.7628 35.6342C86.0852 35.6031 86.4055 35.5535 86.7224 35.4855L87.9693 35.2511C88.3757 35.1765 88.7863 35.1283 89.1986 35.1069C89.5151 35.0803 89.8336 35.1093 90.1405 35.1925C90.3246 35.2778 90.4886 35.4024 90.6214 35.5579C90.7541 35.7134 90.8525 35.8962 90.9099 36.0939C91.1169 36.6561 91.109 37.2771 90.8878 37.8336C90.7697 38.2466 90.5267 38.6109 90.1935 38.8748C89.867 39.122 89.4959 39.3012 89.1013 39.4021C88.6679 39.5219 88.2232 39.5944 87.7748 39.6184C87.3016 39.65 86.8285 39.659 86.3509 39.6545C85.2632 39.6545 84.1887 39.6545 83.1318 39.695C82.075 39.7356 81.027 39.7942 79.9835 39.8483C79.4791 39.8989 78.9701 39.867 78.4756 39.7536C78.1466 39.6802 77.8573 39.4821 77.6664 39.1993C77.4718 38.8752 77.3608 38.5062 77.3436 38.1266C77.2994 37.6759 77.2729 37.126 77.2596 36.477C77.2596 36.1615 77.2596 35.801 77.2906 35.3863C77.3215 34.9717 77.3348 34.5435 77.3613 34.0838C77.3878 33.6241 77.4276 33.1824 77.4719 32.7317C77.5161 32.281 77.547 31.8799 77.578 31.5193C77.6399 30.3595 77.7357 28.9713 77.8654 27.3548C77.9951 25.7383 78.1337 23.964 78.2811 22.032C78.2811 21.5498 78.2811 21.0585 78.3209 20.5627C78.336 20.0905 78.3773 19.6195 78.4447 19.152C78.5029 18.7431 78.5916 18.3393 78.71 17.9441C78.7956 17.627 78.9463 17.3321 79.1522 17.0788C79.4137 16.8115 79.7333 16.6108 80.0852 16.4929C80.5304 16.3345 80.9894 16.2198 81.456 16.1504C81.9996 16.0711 82.5474 16.0259 83.0965 16.0151C83.686 15.9971 84.2609 15.9971 84.821 16.0151C85.5329 16.0151 86.205 16.0557 86.8462 16.1008C87.4237 16.1383 87.9982 16.2136 88.5663 16.3261C89.0028 16.397 89.4226 16.5498 89.8044 16.7768C89.9538 16.8677 90.0804 16.9928 90.174 17.1422C90.2676 17.2917 90.3258 17.4613 90.3439 17.6377C90.3993 18.1765 90.3312 18.7212 90.1449 19.2286C89.9724 19.6388 89.5435 19.8596 88.8537 19.9002C88.6349 19.924 88.4148 19.9331 88.1948 19.9272H87.3591C86.9169 19.9272 86.4747 19.9272 86.0326 19.9272C85.5904 19.9272 85.1482 19.9678 84.706 19.9948C84.3173 20.0213 83.9305 20.0709 83.5475 20.1436C83.265 20.187 82.9925 20.2816 82.7427 20.423C82.6315 20.5015 82.5373 20.6024 82.4658 20.7194C82.3943 20.8365 82.3471 20.9672 82.3271 21.1036C82.2607 21.4191 82.2032 21.7796 82.1502 22.1898C82.1236 22.4061 82.075 22.7126 82.0131 23.0912C81.9453 23.4986 81.8981 23.9092 81.8716 24.3216C81.8406 24.7206 81.8406 25.1215 81.8716 25.5205C81.8726 25.8267 81.9899 26.1207 82.1988 26.3407C82.487 26.5808 82.8532 26.7014 83.2247 26.6788C83.8224 26.6804 84.4175 26.5985 84.9934 26.4354C85.562 26.2727 86.1495 26.1893 86.7401 26.1875C87.0538 26.1879 87.3608 26.2802 87.6244 26.4534C87.9018 26.6587 88.0991 26.9572 88.1816 27.2962C88.2502 27.582 88.2549 27.88 88.1952 28.1679C88.1355 28.4557 88.0129 28.7263 87.8367 28.9593C87.5152 29.3522 87.0878 29.6405 86.6074 29.7886C86.379 29.8409 86.1469 29.8741 85.9132 29.8878C85.639 29.8878 85.3472 29.9418 85.0288 29.9824C84.4097 30.0455 83.7642 30.1266 83.0876 30.2258C82.5588 30.2788 82.0483 30.4513 81.593 30.7306C81.3574 31.0152 81.2165 31.3687 81.1906 31.7401C81.1331 32.2082 81.1021 32.6792 81.0978 33.1508C81.0978 33.5385 81.0978 33.9306 81.0978 34.3272C81.0903 34.6857 81.1095 35.0443 81.1553 35.3999C81.1504 35.4659 81.1504 35.5322 81.1553 35.5982C81.1609 35.6521 81.1609 35.7065 81.1553 35.7604L81.1906 35.801Z" fill="#CD3C27"/>
<path d="M79.7641 34.7603C80.5902 34.8157 81.4191 34.8157 82.2453 34.7603C83.0073 34.7093 83.7739 34.6536 84.5685 34.5887C84.9072 34.5567 85.2438 34.5055 85.5768 34.4356L86.8871 34.1943C87.3141 34.1175 87.7455 34.0679 88.1788 34.0458C88.5113 34.0185 88.8461 34.0483 89.1685 34.134C89.362 34.2217 89.5343 34.35 89.6738 34.5101C89.8133 34.6702 89.9167 34.8584 89.977 35.0619C90.1945 35.6407 90.1862 36.28 89.9537 36.8529C89.8297 37.278 89.5744 37.6531 89.2243 37.9247C88.8811 38.1792 88.4911 38.3637 88.0766 38.4675C87.6211 38.5909 87.1539 38.6655 86.6826 38.6903C86.1855 38.7227 85.6883 38.732 85.1865 38.7274C84.0434 38.7274 82.9144 38.7274 81.8038 38.7691C80.6933 38.8109 79.5921 38.8712 78.4956 38.9269C77.9656 38.979 77.4307 38.9461 76.9111 38.8295C76.5654 38.7539 76.2614 38.5499 76.0608 38.2588C75.8563 37.9251 75.7397 37.5452 75.7216 37.1545C75.6752 36.6905 75.6473 36.1244 75.6333 35.4563C75.6333 35.1315 75.6333 34.7603 75.6659 34.3335C75.6984 33.9066 75.7123 33.4658 75.7402 32.9926C75.7681 32.5193 75.8099 32.0646 75.8564 31.6006C75.9028 31.1367 75.9354 30.7237 75.9679 30.3525C76.0329 29.1586 76.1336 27.7295 76.2699 26.0653C76.4062 24.4012 76.5503 22.5824 76.702 20.6089C76.702 20.1125 76.702 19.6067 76.7439 19.0964C76.7598 18.6102 76.8032 18.1254 76.874 17.6441C76.9352 17.2232 77.0284 16.8075 77.1527 16.4006C77.2427 16.0742 77.401 15.7705 77.6174 15.5098C77.8922 15.2346 78.2281 15.028 78.5978 14.9066C79.0656 14.7435 79.5479 14.6255 80.0382 14.554C80.6094 14.4724 81.1851 14.4259 81.762 14.4148C82.3816 14.3962 82.9856 14.3962 83.5742 14.4148C84.3222 14.4148 85.0285 14.4566 85.7022 14.503C86.3091 14.5416 86.9128 14.6191 87.5097 14.7349C87.9684 14.8079 88.4095 14.9652 88.8107 15.1989C88.9677 15.2925 89.1007 15.4213 89.1991 15.5751C89.2975 15.7289 89.3586 15.9036 89.3776 16.0851C89.4359 16.6399 89.3643 17.2006 89.1685 17.723C88.9873 18.1452 88.5366 18.3726 87.8117 18.4143C87.5818 18.4389 87.3505 18.4482 87.1194 18.4421H86.2412C85.7766 18.4421 85.3119 18.4421 84.8473 18.4421C84.3826 18.4421 83.918 18.4839 83.4533 18.5117C83.0449 18.5389 82.6384 18.5901 82.236 18.6649C81.9391 18.7096 81.6527 18.807 81.3903 18.9525C81.2735 19.0333 81.1744 19.1372 81.0993 19.2577C81.0242 19.3782 80.9746 19.5128 80.9535 19.6531C80.8838 19.9779 80.8234 20.3491 80.7677 20.7713C80.7398 20.994 80.6887 21.3095 80.6237 21.6993C80.5524 22.1187 80.5028 22.5415 80.475 22.966C80.4424 23.3767 80.4424 23.7894 80.475 24.2001C80.476 24.5154 80.5992 24.818 80.8188 25.0446C81.1216 25.2917 81.5064 25.4159 81.8968 25.3926C82.5249 25.3943 83.1502 25.31 83.7554 25.142C84.3528 24.9746 84.9702 24.8887 85.5907 24.8868C85.9204 24.8872 86.2429 24.9823 86.52 25.1606C86.8114 25.3719 87.0188 25.6792 87.1055 26.0282C87.1776 26.3225 87.1825 26.6292 87.1197 26.9255C87.057 27.2219 86.9282 27.5004 86.743 27.7403C86.4111 28.1187 85.9797 28.3967 85.4978 28.543C85.2578 28.5968 85.0138 28.631 84.7683 28.6451C84.4802 28.6451 84.1735 28.7008 83.839 28.7425C83.1885 28.8075 82.5101 28.891 81.7992 28.9931C81.234 29.0436 80.6875 29.2212 80.2008 29.5127C79.9532 29.8057 79.8051 30.1696 79.778 30.552C79.7175 31.0339 79.685 31.5187 79.6804 32.0043C79.6804 32.4033 79.6804 32.807 79.6804 33.2153C79.6726 33.5844 79.6927 33.9535 79.7408 34.3196C79.7357 34.3875 79.7357 34.4558 79.7408 34.5237C79.7467 34.5792 79.7467 34.6352 79.7408 34.6907L79.7641 34.7603Z" fill="#F37421"/>
<path d="M111.902 12.9121C112.157 12.8632 112.419 12.8657 112.673 12.9194C112.927 12.973 113.168 13.0769 113.382 13.2249C113.696 13.5121 113.891 13.9091 113.926 14.3355C113.986 14.8948 113.963 15.4601 113.858 16.0127C113.75 16.6564 113.629 17.3137 113.489 17.9846C113.256 19.1631 113.04 20.3961 112.905 21.6926C112.77 22.989 112.595 24.2809 112.455 25.5774C112.316 26.8738 112.145 28.1385 111.965 29.376C111.795 30.5483 111.563 31.7105 111.268 32.8574C110.851 34.4448 110.227 35.9692 109.411 37.3904C108.677 38.6496 107.641 39.7031 106.399 40.4547C105.907 40.7542 105.384 40.9975 104.838 41.18C104.218 41.3939 103.575 41.5368 102.923 41.6061C102.228 41.6786 101.527 41.6786 100.832 41.6061C100.124 41.539 99.4312 41.3616 98.7773 41.0803C98.2398 40.8369 97.7314 40.5328 97.262 40.1737C96.7341 39.7835 96.238 39.3515 95.7782 38.8818C95.3134 38.4112 94.9003 37.8914 94.5462 37.3315C94.2111 36.8147 93.9422 36.2572 93.7459 35.6724C93.627 35.3217 93.5279 34.9646 93.4491 34.6026C93.3412 34.1523 93.2378 33.6673 93.1388 33.1475C93.0849 32.7486 93.0489 32.3316 93.0264 31.9055C93.004 31.4793 92.977 31.1031 92.9455 30.7903C92.9106 29.7535 92.9286 28.7156 92.9995 27.6807C93.0714 26.5776 93.1718 25.4776 93.3007 24.3806C93.4296 23.2837 93.5795 22.2018 93.7504 21.135C93.9212 20.0652 94.1116 19.0846 94.3214 18.1931C94.4923 17.4406 94.6406 16.7289 94.771 16.0535C94.8745 15.4465 95.0418 14.8523 95.2701 14.2811C95.4602 13.8101 95.7345 13.3783 96.0795 13.0073C96.4692 12.6215 96.9609 12.3571 97.4958 12.2458C97.9298 12.1628 98.3723 12.1339 98.8133 12.1596C99.0307 12.1625 99.2451 12.2121 99.4421 12.3051C99.639 12.3981 99.814 12.5324 99.9554 12.6991C100.117 13.0128 100.184 13.3673 100.149 13.719C100.121 14.2075 100.061 14.6936 99.9688 15.1741C99.8699 15.706 99.744 16.2363 99.5912 16.7652C99.4556 17.211 99.3489 17.6653 99.2719 18.1251C98.9122 20.2012 98.6124 22.1806 98.3726 24.0633C98.124 26.0542 98.0863 28.0661 98.2602 30.065C98.3214 31.0174 98.4583 31.9633 98.6694 32.8937C98.8188 33.6308 99.0621 34.3454 99.3933 35.0196C99.5265 35.2794 99.6912 35.5215 99.8834 35.7404C100.134 36.0286 100.429 36.2749 100.756 36.4702C101.129 36.6923 101.527 36.8674 101.943 36.9915C102.407 37.1292 102.895 37.1617 103.373 37.0867C103.729 37.0204 104.066 36.8761 104.36 36.6638C104.655 36.4515 104.899 36.1765 105.077 35.8582C105.605 35.0276 106.018 34.1277 106.304 33.1838C106.647 32.0701 106.907 30.9322 107.082 29.7795C107.28 28.5737 107.415 27.4631 107.496 26.4477C107.523 26.0805 107.559 25.7179 107.604 25.3688C107.649 25.0198 107.689 24.698 107.739 24.4169C107.793 23.7687 107.864 23.0026 107.963 22.1141C108.062 21.2257 108.175 20.3327 108.301 19.4351C108.301 19.1495 108.355 18.7824 108.391 18.3336C108.427 17.8848 108.476 17.427 108.539 16.9374C108.602 16.4479 108.678 16.0082 108.755 15.5775C108.801 15.2469 108.89 14.9238 109.02 14.6165C109.299 14.0846 109.741 13.6572 110.279 13.3971C110.784 13.1326 111.335 12.9679 111.902 12.9121Z" fill="#CD3C27"/>
<path d="M110.909 11.3061C111.173 11.2561 111.443 11.2586 111.706 11.3135C111.968 11.3685 112.217 11.4748 112.438 11.6263C112.763 11.9202 112.964 12.3266 113 12.763C113.062 13.3356 113.039 13.9141 112.931 14.4797C112.819 15.1386 112.694 15.8114 112.549 16.4981C112.308 17.7044 112.085 18.9664 111.945 20.2934C111.806 21.6204 111.625 22.9428 111.481 24.2697C111.337 25.5967 111.16 26.8912 110.974 28.1579C110.799 29.3578 110.559 30.5473 110.254 31.7213C109.823 33.346 109.178 34.9063 108.335 36.3611C107.576 37.6499 106.506 38.7283 105.222 39.4976C104.714 39.8041 104.173 40.0531 103.61 40.2399C102.968 40.4588 102.304 40.6051 101.63 40.6761C100.912 40.7503 100.188 40.7503 99.4697 40.6761C98.7383 40.6074 98.022 40.4258 97.3463 40.1379C96.7908 39.8888 96.2655 39.5775 95.7804 39.2099C95.2349 38.8105 94.7222 38.3684 94.2471 37.8876C93.7638 37.4079 93.3338 36.8774 92.9647 36.3054C92.62 35.7762 92.3436 35.2056 92.1422 34.6072C92.0194 34.2483 91.917 33.8827 91.8356 33.5122C91.7241 33.0513 91.6172 32.5549 91.515 32.0229C91.4592 31.6145 91.422 31.1877 91.3988 30.7515C91.3756 30.3154 91.3477 29.9303 91.3152 29.6102C91.2791 28.5489 91.2977 27.4866 91.3709 26.4272C91.4453 25.2982 91.549 24.1723 91.6822 23.0495C91.8154 21.9266 91.9703 20.8193 92.1469 19.7274C92.3234 18.6324 92.5201 17.6286 92.737 16.7161C92.9135 15.9459 93.0669 15.2175 93.2016 14.5261C93.3085 13.9048 93.4814 13.2967 93.7174 12.712C93.914 12.2209 94.2008 11.7709 94.563 11.385C94.9658 10.9901 95.4739 10.7195 96.0267 10.6055C96.4752 10.5206 96.9324 10.491 97.3881 10.5174C97.6128 10.5203 97.8343 10.571 98.0379 10.6662C98.2414 10.7614 98.4222 10.8989 98.5683 11.0695C98.7354 11.3906 98.8048 11.7535 98.7681 12.1134C98.7392 12.6135 98.6771 13.111 98.5822 13.6028C98.48 14.1472 98.3499 14.6901 98.1919 15.2314C98.0518 15.6877 97.9416 16.1527 97.862 16.6233C97.4903 18.7484 97.1805 20.7744 96.9327 22.7015C96.6758 24.7393 96.6368 26.7986 96.8166 28.8446C96.8798 29.8194 97.0212 30.7876 97.2394 31.7398C97.3938 32.4944 97.6452 33.2258 97.9875 33.9159C98.1251 34.1817 98.2953 34.4295 98.4939 34.6536C98.753 34.9486 99.0572 35.2008 99.3954 35.4006C99.7808 35.628 100.193 35.8072 100.622 35.9342C101.101 36.0751 101.606 36.1084 102.1 36.0316C102.468 35.9638 102.816 35.816 103.12 35.5987C103.425 35.3815 103.677 35.1 103.861 34.7743C104.407 33.924 104.834 33.0029 105.129 32.0368C105.488 30.9018 105.761 29.7418 105.947 28.5662C106.151 27.332 106.291 26.1953 106.374 25.1559C106.402 24.7801 106.439 24.4089 106.486 24.0517C106.532 23.6944 106.574 23.365 106.625 23.0773C106.681 22.4138 106.755 21.6297 106.858 20.7203C106.96 19.8109 107.076 18.8968 107.206 17.9782C107.206 17.6859 107.262 17.31 107.299 16.8507C107.336 16.3913 107.387 15.9227 107.452 15.4216C107.517 14.9205 107.596 14.4705 107.675 14.0297C107.723 13.6913 107.816 13.3606 107.95 13.046C108.238 12.5016 108.694 12.0641 109.251 11.7979C109.767 11.531 110.33 11.3641 110.909 11.3061Z" fill="#F37421"/>
<path d="M121.525 34.9196C121.207 35.8203 120.975 36.7494 120.831 37.6944C120.675 38.6804 120.436 39.6512 120.115 40.5961C119.966 41.0042 119.844 41.3941 119.745 41.7659C119.674 42.0793 119.536 42.3733 119.34 42.6273C119.115 42.8377 118.858 43.0093 118.578 43.1352C118.229 43.3013 117.859 43.4173 117.479 43.4797C117.097 43.5501 116.706 43.5501 116.325 43.4797C115.96 43.4059 115.637 43.1931 115.424 42.8858C115.24 42.4849 115.17 42.041 115.221 41.6027C115.246 40.815 115.315 40.0294 115.428 39.2495C115.545 38.3427 115.703 37.377 115.879 36.3296C116.054 35.2823 116.253 34.2893 116.438 33.3417C116.622 32.3941 116.789 31.5554 116.947 30.8163C117.104 30.0773 117.213 29.5468 117.294 29.2158C117.546 27.9055 117.744 26.8581 117.92 26.0647C118.096 25.2712 118.231 24.5141 118.371 23.7977C118.511 23.0813 118.664 22.2879 118.821 21.44C118.979 20.5922 119.223 19.4768 119.52 18.0849C119.646 17.4471 119.796 16.8426 119.971 16.2713C120.119 15.746 120.339 15.244 120.624 14.7796C120.867 14.381 121.202 14.0479 121.602 13.8093C122.07 13.5691 122.598 13.4714 123.121 13.5282C123.669 13.559 124.207 13.6912 124.707 13.9181C125.279 14.163 125.879 14.4078 126.51 14.6436C128.219 15.2551 129.877 16.0041 131.467 16.8834C132.899 17.6606 134.177 18.6947 135.239 19.9347C135.512 20.2683 135.765 20.6181 135.996 20.9821C136.265 21.4208 136.509 21.875 136.726 22.3423C136.944 22.8179 137.135 23.3053 137.298 23.8022C137.442 24.2336 137.531 24.6815 137.564 25.1352C137.662 26.1924 137.523 27.2583 137.159 28.2546C136.852 29.1782 136.382 30.0384 135.771 30.7936C135.103 31.5421 134.308 32.164 133.423 32.6299C132.497 33.1475 131.523 33.5742 130.516 33.904C129.842 34.1133 129.149 34.253 128.448 34.3211C127.753 34.3846 127.032 34.4344 126.289 34.4662C125.545 34.4979 124.775 34.5342 123.982 34.5841C123.157 34.6508 122.337 34.7628 121.525 34.9196ZM132.526 26.8808C132.706 25.949 132.546 24.9833 132.075 24.1604C131.568 23.2676 130.897 22.4798 130.097 21.839C129.252 21.1475 128.33 20.5586 127.348 20.0844C126.476 19.6491 125.559 19.3145 124.612 19.0869C124.52 19.4135 124.408 19.7345 124.279 20.0481C124.157 20.3339 124.055 20.6278 123.972 20.9277C123.882 21.2541 123.779 21.6486 123.666 22.1065C123.553 22.5645 123.427 23.1765 123.283 23.9564C123.176 25.0325 122.965 26.0954 122.652 27.1302C122.341 28.1697 122.214 29.2564 122.278 30.3402C123.325 30.4669 124.379 30.5199 125.433 30.4989C126.503 30.4924 127.57 30.36 128.61 30.1045C129.531 29.8869 130.403 29.4945 131.178 28.9483C131.872 28.4562 132.354 27.7171 132.526 26.8808Z" fill="#CD3C27"/>
<path d="M120.095 33.7952C119.767 34.717 119.528 35.6678 119.38 36.6348C119.219 37.6438 118.972 38.6373 118.641 39.6043C118.488 40.0219 118.362 40.4209 118.26 40.8013C118.186 41.122 118.044 41.4229 117.842 41.6829C117.611 41.8982 117.345 42.0738 117.057 42.2026C116.697 42.3725 116.315 42.4912 115.923 42.5552C115.53 42.6272 115.127 42.6272 114.733 42.5552C114.357 42.4796 114.024 42.2619 113.804 41.9474C113.617 41.5316 113.55 41.0722 113.609 40.6204C113.635 39.8143 113.706 39.0104 113.823 38.2123C113.943 37.2844 114.106 36.2961 114.287 35.2243C114.469 34.1525 114.673 33.1364 114.863 32.1667C115.054 31.1969 115.226 30.3386 115.389 29.5823C115.551 28.826 115.663 28.2831 115.746 27.9444C116.006 26.6035 116.211 25.5317 116.392 24.7198C116.573 23.9078 116.713 23.133 116.857 22.3999C117.001 21.6668 117.159 20.8548 117.321 19.9872C117.484 19.1195 117.735 17.9781 118.042 16.5537C118.172 15.9011 118.327 15.2824 118.506 14.6978C118.659 14.1603 118.886 13.6465 119.18 13.1713C119.43 12.7634 119.776 12.4226 120.188 12.1784C120.671 11.9325 121.215 11.8326 121.754 11.8907C122.319 11.9222 122.874 12.0575 123.39 12.2897C123.98 12.5403 124.598 12.7908 125.248 13.0321C127.011 13.6579 128.72 14.4244 130.359 15.3242C131.836 16.1195 133.154 17.1778 134.249 18.4468C134.527 18.7899 134.784 19.1493 135.02 19.5232C135.298 19.9721 135.549 20.4369 135.773 20.9151C135.997 21.4018 136.194 21.9006 136.363 22.4092C136.511 22.8506 136.603 23.3089 136.637 23.7733C136.738 24.8551 136.595 25.9458 136.219 26.9654C135.902 27.9106 135.418 28.7909 134.788 29.5637C134.1 30.3296 133.28 30.9661 132.367 31.4429C131.412 31.9725 130.408 32.4092 129.37 32.7466C128.675 32.9608 127.961 33.1039 127.237 33.1735C126.521 33.2385 125.778 33.2895 125.011 33.322C124.245 33.3545 123.45 33.3916 122.632 33.4426C121.781 33.5138 120.934 33.6315 120.095 33.7952ZM131.437 25.5549C131.623 24.6014 131.458 23.6131 130.973 22.7711C130.45 21.8574 129.757 21.0512 128.933 20.3955C128.062 19.6879 127.111 19.0852 126.099 18.5999C125.2 18.1544 124.254 17.812 123.278 17.5791C123.183 17.9134 123.068 18.2418 122.934 18.5628C122.809 18.8552 122.703 19.156 122.618 19.4629C122.525 19.7969 122.419 20.2006 122.302 20.6692C122.186 21.1378 122.056 21.7642 121.908 22.5623C121.797 23.6635 121.579 24.7512 121.257 25.8101C120.936 26.874 120.805 27.986 120.871 29.0951C121.95 29.2247 123.037 29.279 124.124 29.2575C125.228 29.2508 126.327 29.1153 127.4 28.8538C128.35 28.6312 129.249 28.2296 130.048 27.6707C130.763 27.1671 131.26 26.4107 131.437 25.5549Z" fill="#F37421"/>
<path d="M23.7323 11.7051C23.5906 11.7475 23.4379 11.7329 23.3068 11.6645C23.1757 11.596 23.0766 11.479 23.0307 11.3386L21.6368 3.71539C21.6315 3.56734 21.6836 3.42296 21.7823 3.31233C21.881 3.20171 22.0186 3.13335 22.1665 3.12149C22.3088 3.08051 22.4615 3.09631 22.5924 3.16556C22.7233 3.2348 22.8221 3.35208 22.8681 3.49268L24.262 11.1159C24.2672 11.2634 24.2149 11.4073 24.1162 11.5172C24.0174 11.627 23.8798 11.6944 23.7323 11.7051Z" fill="#F37421"/>
<path d="M33.5643 11.9743C33.46 11.9951 33.3526 11.9951 33.2483 11.9743C33.182 11.9616 33.1192 11.9347 33.0644 11.8953C33.0095 11.856 32.9639 11.8052 32.9307 11.7464C32.8976 11.6877 32.8776 11.6224 32.8723 11.5552C32.8669 11.488 32.8763 11.4204 32.8998 11.3572L36.5845 3.86387C36.6662 3.72977 36.7888 3.62538 36.9343 3.56608C37.0799 3.50678 37.2406 3.49569 37.3929 3.53445C37.4614 3.54267 37.527 3.56698 37.5843 3.60539C37.6416 3.6438 37.6889 3.69521 37.7225 3.75542C37.756 3.81562 37.7748 3.88291 37.7773 3.95176C37.7798 4.02062 37.7659 4.08908 37.7368 4.15154L34.0568 11.6355C34.0055 11.7254 33.9346 11.8025 33.8493 11.8612C33.764 11.9198 33.6666 11.9585 33.5643 11.9743Z" fill="#F37421"/>
<path d="M18.1148 11.6356C17.9928 11.6665 17.8643 11.6596 17.7464 11.6156C17.6284 11.5717 17.5268 11.4929 17.455 11.3896L13.6309 4.55986C13.5987 4.49466 13.5823 4.42282 13.583 4.35013C13.5837 4.27744 13.6015 4.20592 13.635 4.14136C13.6684 4.0768 13.7166 4.02099 13.7756 3.97843C13.8347 3.93588 13.9029 3.90777 13.9748 3.89636C14.1126 3.82918 14.2699 3.81282 14.4187 3.85017C14.5675 3.88753 14.6982 3.9762 14.7879 4.10052L18.6212 10.9303C18.6489 10.9954 18.6621 11.0657 18.6601 11.1363C18.6581 11.207 18.6409 11.2764 18.6096 11.3398C18.5782 11.4032 18.5336 11.4592 18.4787 11.5038C18.4238 11.5484 18.3599 11.5807 18.2913 11.5984C18.2338 11.6165 18.1747 11.6289 18.1148 11.6356Z" fill="#F37421"/>
<path d="M14.6299 15.4031C14.5292 15.4236 14.4252 15.4214 14.3255 15.3965C14.2258 15.3716 14.1329 15.3247 14.0538 15.2592L7.97153 9.53836C7.92286 9.48994 7.88632 9.43074 7.86487 9.36557C7.84342 9.3004 7.83767 9.2311 7.84808 9.16329C7.85849 9.09549 7.88477 9.03109 7.92479 8.97533C7.96481 8.91957 8.01744 8.87402 8.0784 8.84239C8.20754 8.75298 8.36188 8.70703 8.51897 8.7112C8.67606 8.71537 8.82773 8.76945 8.95193 8.86559L15.0342 14.5865C15.0828 14.6349 15.1194 14.6941 15.1408 14.7593C15.1623 14.8244 15.168 14.8937 15.1576 14.9615C15.1472 15.0293 15.1209 15.0937 15.0809 15.1495C15.0409 15.2053 14.9882 15.2508 14.9273 15.2824C14.8379 15.3434 14.7365 15.3845 14.6299 15.4031Z" fill="#F37421"/>
<path d="M9.47234 17.5884C9.31457 17.6203 9.15064 17.5974 9.00769 17.5235L1.21092 13.4312C1.14836 13.404 1.09348 13.3618 1.0512 13.3084C1.00891 13.2549 0.980523 13.1919 0.968564 13.1248C0.956604 13.0577 0.961443 12.9888 0.982652 12.924C1.00386 12.8593 1.04078 12.8008 1.09011 12.7537C1.19984 12.6394 1.34292 12.5626 1.49896 12.5343C1.65499 12.5059 1.816 12.5275 1.959 12.596L9.76042 16.6883C9.82216 16.7163 9.87616 16.7589 9.91775 16.8124C9.95935 16.8658 9.98729 16.9286 9.99918 16.9953C10.0111 17.062 10.0065 17.1305 9.986 17.195C9.96545 17.2596 9.92949 17.3181 9.88123 17.3657C9.77254 17.482 9.62912 17.5601 9.47234 17.5884Z" fill="#F37421"/>
<path d="M39.1633 12.2109C39.0055 12.2427 38.8416 12.2198 38.6986 12.1459C38.6386 12.1157 38.5867 12.0714 38.5475 12.0168C38.5082 11.9623 38.4827 11.8991 38.4731 11.8326C38.4636 11.7661 38.4702 11.6983 38.4924 11.6349C38.5147 11.5715 38.552 11.5145 38.601 11.4685L44.4416 4.89855C44.5519 4.78498 44.6953 4.70903 44.8513 4.68154C45.0073 4.65405 45.168 4.67641 45.3105 4.74544C45.3726 4.77297 45.4271 4.8152 45.4691 4.86847C45.5112 4.92173 45.5396 4.98443 45.552 5.05114C45.5643 5.11785 45.5602 5.18655 45.54 5.25132C45.5198 5.31609 45.4841 5.37496 45.436 5.42285L39.5721 11.9882C39.4645 12.1059 39.3206 12.1843 39.1633 12.2109Z" fill="#F37421"/>
<path d="M28.9828 9.67291C28.9287 9.67749 28.8743 9.67749 28.8202 9.67291C28.481 9.67291 28.2348 9.43628 28.2766 9.16253L29.4568 1.42797C29.5001 1.28324 29.5923 1.15796 29.7177 1.07338C29.843 0.988808 29.9938 0.950158 30.1445 0.963993C30.4883 0.963993 30.7299 1.20062 30.6881 1.47437L29.5125 9.20893C29.4815 9.33064 29.4143 9.44012 29.3197 9.52294C29.2252 9.60576 29.1077 9.65805 28.9828 9.67291Z" fill="#F37421"/>
</g>
<defs>
<clipPath id="clip0">
<rect x="0.5" y="0.5" width="138" height="57" fill="white"/>
</clipPath>
</defs>
</svg>
