<svg width="29" height="38" viewBox="0 0 29 38" fill="none" xmlns="http://www.w3.org/2000/svg">
<path d="M15.5633 37.7151C12.5667 37.7151 9.52166 36.8126 7.34666 35.0551C6.66999 34.5801 -7.00834 23.4176 5.02666 8.07511C5.36499 7.69511 5.89666 7.50511 6.37999 7.69511C6.86333 7.83761 7.20166 8.31261 7.20166 8.83511C7.20166 11.9701 7.92666 15.1526 8.69999 15.5326C8.84499 15.5801 9.18333 15.4851 9.66666 15.0576C12.8567 12.4451 15.6117 6.84011 17.255 3.46761C17.835 2.32761 18.27 1.42511 18.6083 0.855106C18.8017 0.522606 19.14 0.332606 19.5267 0.285106C19.9133 0.237606 20.3 0.427606 20.5417 0.712606C20.88 1.09261 28.6617 10.1176 28.855 19.6176C28.71 28.1201 26.1 33.6776 20.8317 36.6701C20.7833 36.6701 20.735 36.7176 20.6867 36.7176C19.0917 37.3826 17.3517 37.7151 15.5633 37.7151ZM5.02666 12.3501C-2.22334 24.6051 8.36166 32.8226 8.84499 33.2026C11.2133 35.0551 15.7567 36.1951 19.6717 34.5801C24.1667 32.0151 26.2933 27.2176 26.4383 19.6176C26.2933 13.0626 21.9433 6.46011 19.865 3.65761C19.72 3.94261 19.575 4.22761 19.43 4.51261C17.5933 8.26511 14.8383 13.9651 11.2133 16.9101C9.66666 18.1926 8.40999 18.0501 7.68499 17.7176C6.04166 16.9101 5.36499 14.5351 5.02666 12.3501Z" fill="#FF9900"/>
<path d="M19.43 25.5076C19.43 27.5026 17.7867 29.1651 15.7083 29.1651C13.6783 29.1651 11.9867 27.5501 11.9867 25.5076C11.9867 23.5126 13.63 21.8501 15.7083 21.8501C17.7867 21.8501 19.43 23.4651 19.43 25.5076Z" fill="#FF9900"/>
<path d="M22.7167 19C22.7167 19.9025 21.9917 20.615 21.0733 20.615C20.155 20.615 19.43 19.9025 19.43 19C19.43 18.0975 20.155 17.385 21.0733 17.385C21.9917 17.385 22.7167 18.0975 22.7167 19Z" fill="#FF9900"/>
</svg>
