<svg width="41" height="41" viewBox="0 0 41 41" fill="none" xmlns="http://www.w3.org/2000/svg">
<circle cx="20.5" cy="20.5" r="18.5" stroke="#FF9900" stroke-width="2"/>
<path d="M38.8732 20.5025C38.8732 10.3731 30.6319 2.1333 20.5025 2.1333C16.4643 2.1333 12.7389 3.45882 9.70257 5.67521C9.64246 5.69833 9.58389 5.72453 9.53149 5.76769C9.5022 5.79235 9.48525 5.82626 9.46213 5.85554C5.0201 9.21096 2.13324 14.5192 2.13324 20.5025C2.13324 30.632 10.3746 38.8733 20.5025 38.8733C25.3761 38.8733 29.7996 36.9528 33.0903 33.8456C33.1088 33.8332 33.1319 33.8379 33.1488 33.824C33.1874 33.7916 33.2105 33.7485 33.2398 33.7099C36.7062 30.3669 38.8732 25.6875 38.8732 20.5025ZM37.6387 20.5025C37.6387 25.1388 35.7814 29.3434 32.7805 32.4307L29.1769 28.1489C33.7453 26.6169 36.737 23.8965 36.737 20.7245C36.737 15.8185 29.6054 11.9761 20.5025 11.9761C18.8826 11.9761 17.3289 12.1024 15.8632 12.3306L10.8385 6.36263C13.5913 4.47454 16.9189 3.3648 20.5025 3.3648C29.9522 3.3648 37.6387 11.0528 37.6387 20.5025ZM13.8271 14.0321C14.0398 14.493 14.1831 15.0078 14.1831 15.5288C14.1831 16.0898 14.0444 16.6462 13.7809 17.1379C13.6206 17.4384 13.7331 17.8114 14.0336 17.9717C14.1261 18.021 14.2263 18.0442 14.3234 18.0442C14.5438 18.0442 14.7565 17.9255 14.8675 17.7189C15.2281 17.05 15.4162 16.2917 15.4162 15.5288C15.4162 14.9153 15.2929 14.305 15.0725 13.747C15.1773 13.7254 15.2852 13.7069 15.39 13.6869L26.9883 27.4646C25.0108 27.9547 22.8113 28.2414 20.5025 28.2414C12.3706 28.2414 5.50098 24.8012 5.50098 20.7276C5.50098 17.8453 8.94117 15.2883 13.8271 14.0321ZM20.1094 13.2199C20.4239 13.8349 20.6181 14.5038 20.6181 15.202C20.6181 15.9218 20.4393 16.6369 20.1017 17.2689C20.0894 17.292 20.0894 17.3182 20.0802 17.3429L16.8126 13.4603C17.8761 13.3185 18.9781 13.2353 20.1094 13.2199ZM20.7552 18.1459C20.9325 18.112 21.0974 18.021 21.1899 17.85C21.6215 17.0408 21.8511 16.1252 21.8511 15.202C21.8511 14.5254 21.7186 13.8626 21.4843 13.2353C23.3169 13.2985 25.0693 13.5328 26.6785 13.9104C26.9698 14.4236 27.1362 15.0001 27.1362 15.5935C27.1362 16.1653 26.8758 16.9514 26.6184 17.4338C26.4581 17.7344 26.5706 18.1073 26.8711 18.2676C26.9636 18.317 27.0622 18.3401 27.1609 18.3401C27.3813 18.3401 27.5925 18.2214 27.705 18.0149C28.0363 17.3968 28.3708 16.4088 28.3708 15.5935C28.3708 15.1604 28.3092 14.7319 28.192 14.3204C32.5308 15.6551 35.504 18.0503 35.504 20.726C35.504 23.3801 32.577 25.7599 28.2937 27.0993L20.7552 18.1459ZM3.36474 20.5025C3.36474 15.0787 5.9048 10.2452 9.84745 7.104L14.4652 12.5895C8.4387 13.8564 4.26794 16.9776 4.26794 20.7276C4.26794 25.6335 11.398 29.476 20.5025 29.476C23.1843 29.476 25.6859 29.1354 27.893 28.5404L31.8834 33.2815C28.8532 35.9834 24.8736 37.6418 20.5025 37.6418C11.0528 37.6387 3.36474 29.9522 3.36474 20.5025Z" fill="#FF9900"/>
</svg>
