<svg width="35" height="38" viewBox="0 0 35 38" fill="none" xmlns="http://www.w3.org/2000/svg">
<path d="M29.6162 6.63371V2.71429C29.6162 1.21736 28.4087 0 26.9239 0H8.07774C6.59293 0 5.38543 1.21736 5.38543 2.71429V6.63371L0.18075 32.119C-0.775468 36.361 2.41851 38 6.73158 38H28.27C32.5876 38 35.7766 36.3579 34.8209 32.119L29.6162 6.63371ZM8.07774 2.71429H26.9239V5.42857H8.07774V2.71429ZM5.38543 35.2857C2.79947 35.2857 2.23319 32.8655 2.8062 30.3222L7.80626 8.14286H26.5833L21.7192 29.7205C21.279 31.6748 21.0268 33.6906 22.2123 35.2857H5.38543ZM29.6162 35.2857C28.3849 35.2857 25.4481 35.1242 24.6803 34.1548C23.9112 33.1835 24.0714 31.5359 24.3447 30.3222L28.27 12.9091L32.1954 30.3222C32.7684 32.8655 32.2031 35.2857 29.6162 35.2857Z" fill="#FF9900"/>
<path d="M11.5679 28.5861L14.4023 22.3214L11.597 22.0012L15.2464 13.5379L18.0518 13.8581L14.0159 20.7018L17.3822 21.086L11.5679 28.5861Z" fill="#FF9900"/>
</svg>
