<svg width="37" height="36" viewBox="0 0 37 36" fill="none" xmlns="http://www.w3.org/2000/svg">
<path d="M18.0412 34.5838C18.0412 34.5838 18.0412 34.5837 18.0412 34.5837H18.1912C18.0412 34.5837 18.0412 34.5838 18.0412 34.5838ZM18.0412 34.5838C18.0412 34.5839 18.0412 34.584 18.0412 34.5841M18.0412 34.5838L18.0412 34.584L18.0412 34.5841M18.0412 34.5841V34.5843L18.0412 34.5848M18.0412 34.5841C18.0412 34.5844 18.0412 34.5846 18.0412 34.5848M18.0412 34.5848L18.0412 34.5849L18.0412 34.586M18.0412 34.5848C18.0412 34.5852 18.0412 34.5856 18.0412 34.586M18.0412 34.586L18.0412 34.5862L18.0413 34.5883C18.0412 34.5875 18.0412 34.5868 18.0412 34.586ZM32.327 1.35274L32.316 1.32927L32.2978 1.31085C32.2889 1.30185 32.2821 1.29491 32.276 1.28832C32.2747 1.28697 32.2736 1.28573 32.2725 1.28457V1.2506L32.2297 1.20732C32.229 1.20599 32.2269 1.20231 32.2227 1.19371L32.2216 1.19144C32.2126 1.17326 32.195 1.1375 32.1606 1.10268C32.0743 1.01542 31.9866 0.970898 31.8796 0.933429C31.7446 0.849895 31.6117 0.849963 31.5433 0.849999L31.5392 0.85L31.5359 0.849995C31.506 0.849936 31.4463 0.849816 31.3845 0.886214C31.3715 0.887153 31.3572 0.888669 31.3427 0.891116C31.3134 0.896049 31.2666 0.907205 31.2231 0.937882C22.564 4.2779 17.139 9.19292 15.0974 15.5254C13.5577 20.3006 14.2252 24.9658 15.3027 28.4782C16.3804 31.9914 17.872 34.3632 17.9956 34.5595L18.0043 34.5734L18.0159 34.5851C18.0248 34.5941 18.0316 34.601 18.0378 34.6076C18.0402 34.6102 18.0422 34.6125 18.0439 34.6144C18.0461 34.6273 18.0506 34.6466 18.061 34.6675C18.0719 34.6895 18.0906 34.7163 18.1218 34.7373C18.1305 34.7432 18.1394 34.7481 18.1485 34.7522C18.2245 34.8207 18.2995 34.8586 18.3599 34.8891L18.3637 34.891L18.3956 34.9071H18.4314H18.4314H18.4314H18.4315H18.4315H18.4315H18.4316H18.4316H18.4316H18.4317H18.4317H18.4317H18.4318H18.4318H18.4318H18.4319H18.4319H18.4319H18.432H18.432H18.4321H18.4321H18.4321H18.4321H18.4322H18.4322H18.4323H18.4323H18.4323H18.4324H18.4324H18.4324H18.4325H18.4325H18.4326H18.4326H18.4326H18.4327H18.4327H18.4328H18.4328H18.4329H18.4329H18.433H18.433H18.4331H18.4332H18.4332H18.4333H18.4333H18.4333H18.4334H18.4334H18.4334H18.4334H18.4335H18.4335H18.4335H18.4336H18.4336H18.4336H18.4337H18.4337H18.4337H18.4338H18.4338H18.4338H18.4339H18.4339H18.4339H18.434H18.434H18.4341H18.4341H18.4341H18.4342H18.4342H18.4342H18.4343H18.4343H18.4344H18.4344H18.4344H18.4345H18.4345H18.4346H18.4346H18.4346H18.4347H18.4347H18.4348H18.4348H18.4349H18.4349H18.4349H18.435H18.435H18.4351H18.4351H18.4352H18.4352H18.4353H18.4353H18.4354H18.4354H18.4355H18.4355H18.4356H18.4356H18.4357H18.4357H18.4358H18.4358H18.4359H18.4359H18.436H18.436H18.4361H18.4361H18.4362H18.4362H18.4363H18.4363H18.4364H18.4365H18.4365H18.4366H18.4366H18.4367H18.4367H18.4368H18.4369H18.4369H18.437H18.437H18.4371H18.4372H18.4372H18.4373H18.4374H18.4374H18.4375H18.4375H18.4376H18.4377H18.4377H18.4378H18.4379H18.4379H18.438H18.4381H18.4381H18.4382H18.4383H18.4383H18.4384H18.4385H18.4386H18.4386H18.4387H18.4388H18.4388H18.4389H18.439H18.4391H18.4391H18.4392H18.4393H18.4394H18.4394H18.4395H18.4396H18.4397H18.4397H18.4398H18.4399H18.44H18.4401H18.4401H18.4402H18.4403H18.4404H18.4405H18.4406H18.4406H18.4407H18.4408H18.4409H18.441H18.4411H18.4412H18.4412H18.4413H18.4414H18.4415H18.4416H18.4417H18.4418H18.4419H18.442H18.4421H18.4421H18.4422H18.4423H18.4424H18.4425H18.4426H18.4427H18.4428H18.4429H18.443H18.4431H18.4432H18.4433H18.4434H18.4435H18.4436H18.4437H18.4438H18.4439H18.444H18.4441H18.4442H18.4443H18.4444H18.4445H18.4446H18.4447H18.4449H18.445H18.4451H18.4452H18.4453H18.4454H18.4455H18.4456H18.4457H18.4458H18.446H18.4461H18.4462H18.4463H18.4464H18.4465H18.4467H18.4468H18.4469H18.447H18.4471H18.4472H18.4474H18.4475H18.4476H18.4477H18.4479H18.448H18.4481H18.4482H18.4484H18.4485H18.4486H18.4487H18.4489H18.449H18.4491H18.4493H18.4494H18.4495H18.4496H18.4498H18.4499H18.45H18.4502H18.4503H18.4504H18.4506H18.4507H18.4509H18.451H18.4511H18.4513H18.4514H18.4516H18.4517H18.4518H18.452H18.4521H18.4523H18.4524H18.4526H18.4527H18.4529H18.453H18.4531H18.4533H18.4534H18.4536H18.4537H18.4539H18.4541H18.4542H18.4544H18.4545H18.4547H18.4548H18.455H18.4551H18.4553H18.4555H18.4556H18.4558H18.4559H18.4561H18.4563H18.4564H18.4566H18.4567H18.4569H18.4571H18.4572H18.4574H18.4576H18.4577H18.4579H18.4581H18.4583H18.4584H18.4586H18.4588H18.4589H18.4591H18.4593H18.4595H18.4596H18.4598H18.46H18.4602H18.4604H18.4605H18.4607H18.4609H18.4611H18.4613H18.4614H18.4616H18.4618H18.462H18.4622H18.4624H18.4626H18.4628H18.4629H18.4631H18.4633H18.4635H18.4637H18.4639H18.4641H18.4643H18.4645H18.4647H18.4649H18.4651H18.4653H18.4655H18.4657H18.4693C18.5169 34.9249 18.5655 34.9327 18.605 34.9367C18.6555 34.9418 18.7047 34.9418 18.7381 34.9418H18.7402H18.7451C18.7755 34.9419 18.8125 34.9419 18.8509 34.9354C18.8894 34.9289 18.9249 34.917 18.9626 34.8993C19.2853 34.8216 21.9406 34.1326 25.0548 32.3724C28.2317 30.5768 31.8969 27.6602 34.0422 23.1299C36.8825 17.1764 36.2837 9.80595 32.327 1.35274ZM16.7898 16.0685L16.7899 16.0683C18.4953 10.7602 22.9046 6.49995 29.9273 3.36631L18.6213 31.9952C17.1839 29.0641 14.688 22.5767 16.7898 16.0685ZM32.4329 22.4116L32.4328 22.4119C29.543 28.5874 23.2844 31.5332 20.2379 32.6633L31.5771 4.03508C34.5234 11.1882 34.8072 17.3738 32.4329 22.4116Z" fill="#FF9900" stroke="#FF9900" stroke-width="0.3"/>
<path d="M15.3422 31.9865L15.3424 31.9862L15.3327 31.9821C11.4713 30.3583 6.40257 27.1884 4.12502 21.4148C2.28759 16.6857 2.61181 10.945 5.15838 4.34471L11.2578 18.5762C11.3862 18.9174 11.7209 19.1214 12.0833 19.1214C12.2151 19.1214 12.3402 19.0786 12.423 19.0372C12.8685 18.8309 13.0787 18.3305 12.8727 17.8704C12.8725 17.8699 12.8723 17.8695 12.8721 17.8691L6.77177 3.63536C10.4144 5.13309 13.4041 6.98431 15.6515 9.12293L15.6515 9.12298L15.6546 9.12583C16.018 9.45238 16.5608 9.46096 16.897 9.07862C17.2185 8.71283 17.2276 8.16782 16.8518 7.82861C14.0536 5.17451 10.1913 2.9452 5.47749 1.24056L5.45276 1.23162H5.42647H5.42647H5.42647H5.42646H5.42646H5.42645H5.42645H5.42644H5.42644H5.42644H5.42643H5.42643H5.42642H5.42642H5.42641H5.4264H5.4264H5.42639H5.42639H5.42638H5.42638H5.42637H5.42637H5.42637H5.42636H5.42636H5.42635H5.42635H5.42634H5.42634H5.42633H5.42633H5.42632H5.42632H5.42631H5.42631H5.4263H5.42629H5.42629H5.42628H5.42628H5.42627H5.42626H5.42625H5.42625H5.42624H5.42623H5.42623H5.42622H5.42621H5.4262H5.42619H5.42619H5.42618H5.42617H5.42616H5.42615H5.42614H5.42613H5.42612H5.42612H5.42611H5.4261H5.42609H5.42607H5.42606H5.42605H5.42604H5.42603H5.42602H5.42601H5.426H5.42599H5.42597H5.42596H5.42595H5.42594H5.42593H5.42591H5.4259H5.42589H5.42587H5.42586H5.42585H5.42583H5.42582H5.4258H5.42579H5.42577H5.42576H5.42574H5.42573H5.42571H5.42569H5.42568H5.42566H5.42565H5.42563H5.42561H5.42559H5.42558H5.42556H5.42554H5.42552H5.4255H5.42548H5.42547H5.42545H5.42543H5.42541H5.42539H5.42537H5.42535H5.42533H5.4253H5.42528H5.42526H5.42524H5.42522H5.4252H5.42517H5.42515H5.42513H5.4251H5.42508H5.42506H5.42503H5.42501H5.42498H5.42496H5.42493H5.42491H5.42488H5.42486H5.42483H5.4248H5.42478H5.42475H5.42472H5.42469H5.42466H5.42464H5.42461H5.42458H5.42455H5.42452H5.42449H5.42446H5.42443H5.4244H5.42437H5.42434H5.4243H5.42427H5.42424H5.42421H5.42417H5.42414H5.42411H5.42407H5.42404H5.424H5.42397H5.42393H5.4239H5.42386H5.42383H5.42379H5.42375H5.42371H5.42368H5.42364H5.4236H5.42356H5.42352H5.42348H5.42344H5.4234H5.42336H5.42332H5.42328H5.42324H5.4232H5.42316H5.42311H5.42307H5.42303H5.42298H5.42294H5.4229H5.42285H5.42281H5.42276H5.42271H5.42267H5.42262H5.42257H5.42253H5.42248H5.42243H5.42238H5.42233H5.42228H5.42224H5.42218H5.42213H5.42208H5.42203H5.42198H5.42193H5.42188H5.42182H5.42177H5.42172H5.42166H5.42161H5.42155H5.4215H5.42144H5.42139H5.42133H5.42127H5.42122H5.42116H5.4211H5.42104H5.42098H5.42092H5.42086H5.4208H5.42074H5.42068H5.42062H5.42056H5.42049H5.42043H5.42037H5.4203H5.42024H5.42017H5.42011H5.42004H5.41998H5.41991H5.41984H5.41978H5.41971H5.41964H5.41957H5.4195H5.41943H5.41936H5.41929H5.41922H5.41915H5.41908H5.419H5.41893H5.41886H5.41878H5.41871H5.41863H5.41856H5.41848H5.41841H5.41833H5.41825H5.41818H5.4181H5.41802H5.41794H5.41786H5.41778H5.4177H5.41762H5.41753H5.41745H5.41737H5.41729H5.4172H5.41712H5.41703H5.41695H5.41686H5.41678H5.41669H5.4166H5.41651H5.41643H5.41634H5.41625H5.41616H5.41607H5.41598H5.41588H5.41579H5.4157H5.41561H5.41551H5.41542H5.41532H5.41523H5.41513H5.41504H5.41494H5.41484H5.41474H5.41465H5.41455H5.41445H5.41435H5.41425H5.41414H5.41404H5.41394H5.41384H5.41373H5.41363H5.41352H5.41342H5.41331H5.41321H5.4131H5.41299H5.41288H5.41278H5.41267H5.41256H5.41245H5.41233H5.41222H5.41211H5.412H5.41188H5.41177H5.41166H5.41154H5.41143H5.41131H5.41119H5.41107H5.41096H5.41084H5.41072H5.4106H5.41048H5.41036H5.41023H5.41011H5.40999H5.40987H5.40974H5.40962H5.40949H5.40936H5.40924H5.40911H5.40898H5.40885H5.40872H5.4086H5.40846H5.40833H5.4082H5.40807H5.40794H5.4078H5.40767H5.40753H5.4074H5.40726H5.40712H5.40699H5.40685H5.40671H5.40657H5.40643H5.40629H5.40615H5.40601H5.40586H5.40572H5.40558H5.40543H5.40528H5.40514H5.40499H5.40484H5.4047H5.40455H5.4044H5.40425H5.4041H5.40395H5.40379H5.40364H5.40349H5.40333H5.40318H5.40302H5.40287H5.40271H5.40255H5.40239H5.40223H5.40207H5.40191H5.40175H5.40159H5.40143H5.40126H5.4011H5.40093H5.40077H5.4006H5.40044H5.40027H5.4001H5.39993H5.39976H5.39959H5.39942H5.39925H5.39908H5.3989H5.39873H5.39855H5.39838H5.3982H5.39802H5.39785H5.39767H5.39749H5.39731H5.39713H5.39695H5.39676H5.39658H5.3964H5.39621H5.39603H5.39584H5.39565H5.39547H5.39528H5.39509H5.3949H5.39471H5.39452H5.39432H5.39413H5.39394H5.39374H5.39355H5.39335H5.39316H5.39296H5.39276H5.39256H5.39236H5.39216C5.38344 1.23162 5.37589 1.2316 5.36795 1.23123C5.36074 1.2309 5.3547 1.23034 5.34983 1.22959L5.31752 1.19692H5.25491H5.2547H5.2545H5.2543H5.2541H5.2539H5.2537H5.2535H5.2533H5.2531H5.25289H5.25269H5.25249H5.25229H5.25209H5.25189H5.25169H5.25149H5.25128H5.25108H5.25088H5.25068H5.25048H5.25028H5.25008H5.24987H5.24967H5.24947H5.24927H5.24907H5.24887H5.24866H5.24846H5.24826H5.24806H5.24786H5.24766H5.24745H5.24725H5.24705H5.24685H5.24664H5.24644H5.24624H5.24604H5.24583H5.24563H5.24543H5.24523H5.24502H5.24482H5.24462H5.24441H5.24421H5.24401H5.2438H5.2436H5.2434H5.24319H5.24299H5.24279H5.24258H5.24238H5.24217H5.24197H5.24177H5.24156H5.24136H5.24115H5.24095H5.24074H5.24054H5.24033H5.24013H5.23992H5.23972H5.23951H5.23931H5.2391H5.2389H5.23869H5.23848H5.23828H5.23807H5.23786H5.23766H5.23745H5.23724H5.23704H5.23683H5.23662H5.23642H5.23621H5.236H5.23579H5.23559H5.23538H5.23517H5.23496H5.23475H5.23454H5.23434H5.23413H5.23392H5.23371H5.2335H5.23329H5.23308H5.23287H5.23266H5.23245H5.23224H5.23203H5.23182H5.23161H5.23139H5.23118H5.23097H5.23076H5.23055H5.23034H5.23012H5.22991H5.2297H5.22949H5.22927H5.22906H5.22885H5.22863H5.22842H5.22821H5.22799H5.22778H5.22756H5.22735H5.22713H5.22692H5.2267H5.22649H5.22627H5.22606H5.22584H5.22562H5.22541H5.22519H5.22497H5.22476H5.22454H5.22432H5.2241H5.22388H5.22367H5.22345H5.22323H5.22301H5.22279H5.22257H5.22235H5.22213H5.22191H5.22169H5.22147H5.22125H5.22103H5.2208H5.22058H5.22036H5.22014H5.21992H5.21969H5.21947H5.21925H5.21902H5.2188H5.21857H5.21835H5.21813H5.2179H5.21768H5.21745H5.21722H5.217H5.21677H5.21655H5.21632H5.21609H5.21586H5.21564H5.21541H5.21518H5.21495H5.21472H5.21449H5.21426H5.21403H5.2138H5.21357H5.21334H5.21311H5.21288H5.21265H5.21242H5.21218H5.21195H5.21172H5.21149H5.21125H5.21102H5.21078H5.21055H5.21032H5.21008H5.20985H5.20961H5.20937H5.20914H5.2089H5.20866H5.20843H5.20819H5.20795H5.20771H5.20747H5.20723H5.207H5.20676H5.20652H5.20627H5.20603H5.20579H5.20555H5.20531H5.20507H5.20483H5.20458H5.20434H5.2041H5.20385H5.20361H5.20336H5.20312H5.20287H5.20263H5.20238H5.20213H5.20189H5.20164H5.20139H5.20114H5.2009H5.20065H5.2004H5.20015H5.1999H5.19965H5.1994H5.19915H5.19889H5.19864H5.19839H5.19814H5.19788H5.19763H5.19738H5.19712H5.19687H5.19661H5.19636H5.1961H5.19584H5.19559H5.19533H5.19507H5.19482H5.19456H5.1943H5.19404H5.19378H5.19352H5.19326H5.193H5.19274H5.19247H5.19221H5.19195H5.19169H5.19142H5.19116H5.19089H5.19063H5.19036H5.1901H5.18983H5.18956H5.1893H5.18903H5.18876H5.18849H5.18822H5.18796H5.18769H5.18742H5.18714H5.18687H5.1866H5.18633H5.18606H5.18578H5.18551H5.18524H5.18496H5.18469H5.18441H5.18413H5.18386H5.18358H5.1833H5.18303H5.18275H5.18247H5.18219H5.18191H5.18163H5.18135H5.18107H5.18079H5.1805H5.18022H5.17994H5.17965H5.17937H5.17908H5.1788H5.17851H5.17823H5.17794H5.17765H5.17736H5.17708H5.17679H5.1765H5.17621H5.17592H5.17563H5.17533H5.17504H5.17475H5.17446H5.17416H5.17387H5.17357H5.17328H5.17298H5.17269H5.17239H5.17209H5.17179H5.1715H5.1712H5.1709H5.1706H5.1703H5.16999H5.16969H5.16939H5.16909H5.16878H5.16848H5.16818H5.16787H5.16756H5.16726H5.16695H5.16664H5.16634H5.16603H5.16572H5.16541H5.1651H5.16479H5.16448H5.16416H5.16385H5.16354H5.16322H5.16291H5.16259H5.16228H5.16196H5.16165H5.16133H5.16101H5.16069H5.16037H5.16005H5.15973H5.15941H5.15909H5.15877H5.15844H5.15812H5.1578H5.15747H5.15715H5.15682H5.15649H5.15617H5.15584H5.15551H5.15518H5.15485H5.15452H5.15419H5.15386H5.15353H5.15319H5.15286H5.15253H5.15219H5.15186H5.15152H5.15118H5.15085H5.15051H5.15017H5.14983H5.14949H5.14915H5.14881H5.14847H5.14812H5.14778H5.14744H5.14709H5.14675H5.1464H5.14606H5.14571H5.14536H5.14501H5.14466H5.14431H5.14396H5.14361H5.14326H5.14291H5.14255H5.1422H5.14184H5.14149H5.14113H5.14078H5.14042H5.14006H5.1397H5.13934H5.13898H5.13862H5.13826H5.1379H5.13753H5.13717H5.13681H5.13644H5.13608H5.13571H5.13534H5.13497H5.1346H5.13424H5.13387H5.13349H5.13312H5.13275H5.13238H5.132H5.13163H5.13125H5.13088H5.1305H5.13012H5.12975H5.12937H5.12899H5.12861H5.12823H5.12784H5.12746H5.12708H5.12669H5.12631H5.12592H5.12554H5.12515H5.12476H5.12437H5.12398H5.12359H5.1232H5.12281H5.12242H5.12203H5.12163H5.12124H5.12084H5.12045H5.12005H5.11965H5.11925H5.11885H5.11845H5.11805H5.11765C5.00712 1.19692 4.91719 1.2299 4.84274 1.2572C4.82615 1.26328 4.81034 1.26908 4.79523 1.27417L4.78505 1.2776L4.77547 1.28245C4.76487 1.2878 4.7537 1.29296 4.73941 1.29955C4.73455 1.30179 4.72933 1.3042 4.72365 1.30684C4.70318 1.31634 4.67846 1.3281 4.65387 1.34191C4.61402 1.36429 4.55614 1.40178 4.51703 1.46334L4.42767 1.55369L4.38432 1.59752V1.6315C4.38328 1.63265 4.38214 1.6339 4.3809 1.63524C4.37478 1.64183 4.36794 1.64877 4.35904 1.65777L4.33953 1.67749L4.32837 1.70289C0.887607 9.53038 0.257387 16.3739 2.47303 22.0444L2.47322 22.0448C4.9995 28.448 10.4987 31.8699 14.632 33.646L14.6318 33.6464L14.6433 33.6503L14.6454 33.651C14.6953 33.6678 14.7501 33.6863 14.8014 33.7005C14.8514 33.7142 14.9103 33.7275 14.9657 33.7275C15.302 33.7275 15.6261 33.5173 15.7864 33.193L15.7902 33.1853L15.7931 33.1773C15.9543 32.7291 15.7573 32.1964 15.3422 31.9865Z" fill="#FF9900" stroke="#FF9900" stroke-width="0.3"/>
</svg>
