<svg width="39" height="39" viewBox="0 0 39 39" fill="none" xmlns="http://www.w3.org/2000/svg">
<path d="M19.5005 0.188843C8.85253 0.188843 0.189362 8.85154 0.189362 19.5C0.189362 30.1484 8.85253 38.8111 19.5005 38.8111C30.1479 38.8111 38.8106 30.1484 38.8106 19.5C38.8106 8.85154 30.1479 0.188843 19.5005 0.188843ZM27.3287 34.5554L27.5227 7.78961C22.6454 7.78867 21.8033 30.0163 21.8033 30.0163H24.5343V35.7108C22.9437 36.2046 21.2527 36.4696 19.5005 36.4696C18.6185 36.4696 17.7525 36.4025 16.9072 36.2732V24.5916C18.1467 24.1898 19.1109 23.1857 19.461 21.9236C19.5531 21.5914 19.6057 21.2427 19.6062 20.8809L19.6067 8.5043C19.6067 8.14531 19.3149 7.85352 18.9559 7.85352C18.5969 7.85352 18.3056 8.14531 18.306 8.5043V19.7264H17.3301L17.3306 8.50477C17.3301 8.14578 17.0397 7.85399 16.6803 7.85399C16.3213 7.85399 16.0299 8.14578 16.0295 8.50383V19.7269H15.0545V8.50383C15.054 8.14578 14.7627 7.85399 14.4037 7.85493C14.0442 7.85399 13.7543 8.14578 13.7538 8.50477V19.7269H12.7784V8.50383C12.7784 8.14578 12.487 7.85399 12.1281 7.85399C11.7681 7.85399 11.4773 8.14578 11.4773 8.50477V20.8814C11.4773 21.2432 11.5308 21.5919 11.6225 21.9241C11.9721 23.1852 12.9367 24.1898 14.1763 24.592V35.614C7.41235 33.3797 2.52983 27.0114 2.52983 19.5C2.52983 10.1273 10.1278 2.52931 19.5005 2.52931C28.8722 2.52931 36.4702 10.1273 36.4702 19.5C36.4702 26.0482 32.76 31.7262 27.3287 34.5554Z" fill="#FF9900"/>
</svg>
