<svg width="21" height="20" viewBox="0 0 21 20" fill="none" xmlns="http://www.w3.org/2000/svg">
<path d="M20.2054 17.7778L14.6432 12.3333C16.9703 9.33333 16.6865 4.99999 13.9054 2.27777C10.8405 -0.722229 5.84593 -0.722229 2.72431 2.27777C-0.340557 5.27777 -0.340557 10.1667 2.72431 13.2222C4.19998 14.6667 6.18647 15.5 8.28647 15.5C9.98917 15.5 11.6351 14.9444 12.9973 13.9444L18.5594 19.3889C18.7865 19.6111 19.0703 19.7222 19.354 19.7222C19.6378 19.7222 19.9216 19.6111 20.1486 19.3889C20.6594 18.8889 20.6594 18.2222 20.2054 17.7778ZM8.34323 13.2222C6.86755 13.2222 5.44863 12.6667 4.37025 11.6111C2.15674 9.44444 2.15674 5.99999 4.37025 3.83333C5.44863 2.77777 6.92431 2.22222 8.34323 2.22222C9.76214 2.22222 11.2378 2.77777 12.3162 3.83333C14.5297 5.99999 14.5297 9.44444 12.3162 11.6111C11.2378 12.6667 9.8189 13.2222 8.34323 13.2222V13.2222Z" fill="black"/>
</svg>
