<svg width="13" height="12" viewBox="0 0 13 12" fill="none" xmlns="http://www.w3.org/2000/svg">
<path d="M0.300537 4.60464L4.58765 4.02976L6.52609 0.295807L8.41542 4.05488L12.6939 4.68278L9.57676 7.57953L10.2788 11.7042L6.46254 9.73674L2.62031 11.6567L3.38009 7.54325L0.300537 4.60464Z" fill="#FFB503"/>
<path d="M0.378459 4.87534C1.6409 4.70511 2.90046 4.53767 4.1629 4.36743C4.32468 4.34511 4.5009 4.33953 4.65979 4.30046C4.83601 4.2586 4.90535 4.04092 4.97757 3.90139C5.31268 3.25674 5.64779 2.61209 5.98001 1.96743C6.24579 1.45674 6.51157 0.946039 6.77735 0.435342C6.60979 0.435342 6.44513 0.435342 6.27757 0.435342C6.83513 1.54325 7.38979 2.64836 7.94735 3.75627C8.01957 3.8986 8.08313 4.05488 8.1669 4.19441C8.26513 4.35348 8.48179 4.3479 8.64935 4.37023C9.38601 4.47906 10.1256 4.5879 10.8622 4.69395C11.4487 4.78046 12.0322 4.86697 12.6187 4.95069C12.5753 4.79441 12.5349 4.64092 12.4916 4.48464C11.5729 5.3386 10.6571 6.18976 9.73846 7.04371C9.61713 7.15534 9.48713 7.26139 9.37446 7.38139C9.23579 7.5265 9.31957 7.77488 9.34846 7.95348C9.4669 8.65674 9.58824 9.3572 9.70668 10.0605C9.8049 10.6325 9.90313 11.2074 10.0013 11.7795C10.1429 11.6735 10.2845 11.5702 10.426 11.4642C9.30224 10.8837 8.17846 10.306 7.05757 9.72557C6.91024 9.65022 6.7629 9.5665 6.61268 9.49674C6.41335 9.40464 6.2169 9.54697 6.04068 9.63348C5.38779 9.95999 4.73201 10.2865 4.07912 10.6158C3.54468 10.8837 3.01024 11.1488 2.47579 11.4167C2.61735 11.5228 2.7589 11.626 2.90046 11.7321C3.1229 10.5209 3.34824 9.30976 3.57068 8.0986C3.59957 7.93953 3.63135 7.78046 3.66024 7.6186C3.69779 7.39534 3.51001 7.27255 3.36268 7.13302C2.83979 6.63348 2.31401 6.13395 1.79113 5.63162C1.36357 5.22418 0.936014 4.81395 0.508459 4.4065C0.242681 4.15255 -0.164652 4.54883 0.101125 4.79999C0.99957 5.65674 1.89801 6.51627 2.79935 7.37302C2.92646 7.49302 3.05357 7.61581 3.18068 7.73581C3.15468 7.6465 3.13157 7.55441 3.10557 7.46511C2.88313 8.6679 2.66357 9.8679 2.44113 11.0707C2.40935 11.2409 2.37757 11.4112 2.34579 11.5814C2.30246 11.8214 2.53646 12.0139 2.77046 11.8967C3.89135 11.3358 5.01512 10.7749 6.13601 10.2139C6.2949 10.1358 6.45379 10.0549 6.61268 9.97674C6.51446 9.97674 6.41913 9.97674 6.3209 9.97674C7.43601 10.5516 8.55113 11.1265 9.66335 11.7014C9.82224 11.7823 9.97824 11.8632 10.1371 11.9442C10.374 12.067 10.6022 11.866 10.5618 11.6288C10.3567 10.4232 10.1516 9.22046 9.94646 8.01488C9.91757 7.84464 9.88868 7.67441 9.85979 7.50418C9.83379 7.59348 9.81068 7.68557 9.78468 7.77488C10.6947 6.92929 11.6047 6.08092 12.5176 5.23534C12.6476 5.11534 12.7747 4.99534 12.9047 4.87534C13.0491 4.74139 12.9971 4.43999 12.7776 4.40929C11.5296 4.22511 10.2787 4.04371 9.03068 3.85953C8.85446 3.83441 8.67824 3.8065 8.50201 3.78139C8.55979 3.82325 8.61757 3.8679 8.67535 3.90976C8.12357 2.81302 7.57179 1.71348 7.02001 0.616737C6.94201 0.460458 6.86401 0.30697 6.78601 0.150691C6.69357 -0.0334954 6.38157 -0.0307047 6.28624 0.150691C5.72001 1.24185 5.15379 2.33302 4.58757 3.42418C4.50668 3.57767 4.42868 3.73395 4.34779 3.88743C4.40557 3.84557 4.46335 3.80092 4.52113 3.75906C3.27024 3.9265 2.01935 4.09395 0.76557 4.26139C0.589348 4.28371 0.410236 4.30883 0.234014 4.33116C0.0780141 4.35069 -0.00576357 4.54325 0.031792 4.67441C0.0664587 4.83906 0.222459 4.89488 0.378459 4.87534Z" fill="#FFB503"/>
</svg>
