<svg width="18" height="22" viewBox="0 0 18 22" fill="none" xmlns="http://www.w3.org/2000/svg">
<path fill-rule="evenodd" clip-rule="evenodd" d="M8.85858 8.9155C10.6928 8.9155 12.2164 7.44365 12.2164 5.58386C12.2164 3.72405 10.6928 2.25218 8.85858 2.25218C7.02435 2.25218 5.50075 3.72405 5.50075 5.58386C5.50075 7.44365 7.02435 8.9155 8.85858 8.9155ZM8.85858 9.98693C11.325 9.98693 13.3244 8.01561 13.3244 5.58386C13.3244 3.15209 11.325 1.18076 8.85858 1.18076C6.39212 1.18076 4.3927 3.15209 4.3927 5.58386C4.3927 8.01561 6.39212 9.98693 8.85858 9.98693Z" fill="black" stroke="black" stroke-width="0.7"/>
<path fill-rule="evenodd" clip-rule="evenodd" d="M15.0744 18.5175C15.3178 18.1527 15.507 17.5847 15.507 16.6639C15.507 13.0043 12.5085 10.0762 8.85856 10.0762C5.20854 10.0762 2.21012 13.0043 2.21012 16.6639C2.21012 17.5847 2.3993 18.1527 2.6427 18.5175C2.87855 18.871 3.23137 19.1331 3.76442 19.3273C4.31717 19.5286 5.02755 19.6426 5.91268 19.6994C6.74237 19.7525 7.65575 19.7524 8.6635 19.7521C8.7281 19.7521 8.79315 19.7521 8.85856 19.7521C8.92397 19.7521 8.98898 19.7521 9.05362 19.7521C10.0613 19.7524 10.9747 19.7525 11.8044 19.6994C12.6895 19.6426 13.3999 19.5286 13.9527 19.3273C14.4857 19.1331 14.8386 18.871 15.0744 18.5175ZM9.06533 20.8236C13.2535 20.8247 16.6151 20.8256 16.6151 16.6639C16.6151 12.4339 13.1423 9.00479 8.85856 9.00479C4.57475 9.00479 1.10205 12.4339 1.10205 16.6639C1.10205 20.8256 4.46355 20.8247 8.65176 20.8236C8.72046 20.8236 8.78942 20.8235 8.85856 20.8235C8.9277 20.8235 8.99663 20.8236 9.06533 20.8236Z" fill="black" stroke="black" stroke-width="0.7"/>
</svg>
