<svg width="87" height="42" viewBox="0 0 87 42" fill="none" xmlns="http://www.w3.org/2000/svg">
<g clip-path="url(#clip0)">
<path d="M39.6404 0.731455H40.8674L41.009 0.165161H25.6011L25.4595 0.731455H27.7011C29.636 0.731455 31.2404 2.09999 31.2404 4.76628C31.2404 6.2764 30.6034 8.21123 29.518 10.5944L19.5135 32.7034L17.0596 3.96404C16.8472 1.72247 18.0034 0.731455 20.5045 0.731455H21.9438L22.0854 0.165161H0.330341L0.117981 0.731455H1.48652C3.20899 0.731455 3.86967 1.81685 4.01124 3.82246L7.9045 40.9854H17.0596L32.3966 8.51797C34.7562 3.68089 37.2101 0.731455 39.6404 0.731455ZM37.8472 41.127C36.4786 41.127 35.6056 40.7022 35.6056 38.3899C35.6056 35.5112 36.691 29.8247 37.8472 24.6337C37.9888 27.0168 39.6404 29.3764 42.0944 29.3764C42.6607 29.3764 43.1798 29.3056 43.6753 29.2348C41.3865 39.1213 40.5135 41.127 37.8472 41.127ZM81.4989 21.6135C84.3775 21.6135 86.2416 19.2303 86.2416 16.4932C86.2416 14.1809 84.5899 12.4584 82.2067 12.4584C77.9595 12.4584 75.9303 15.8326 72.4146 22.0382C71.6831 18.1449 69.8899 13.1191 65.4303 13.1191C60.3809 13.1191 54.5528 20.3157 49.2202 24.7753C46.7663 26.8753 44.1 28.1494 41.9528 28.1494C39.7112 28.1494 38.4135 25.9079 38.4135 21.9674C39.9944 15.4786 40.7966 13.827 43.227 13.827C44.8787 13.827 45.6101 14.7708 45.6101 16.7056C45.6101 18.8056 45.1854 22.2506 44.2416 26.6393C46.6247 25.9079 50.2112 22.8876 53.2315 19.655C51.6506 15.8326 48.182 13.2371 43.2978 13.2371C34.1427 13.2371 26.0966 21.4483 26.0966 30.6741C26.0966 37.0213 30.627 41.8348 37.682 41.8348C49.3382 41.8348 54.2461 31.7595 54.2461 24.7045C54.2461 23.6899 54.1753 22.982 54.1045 22.0382C55.8977 20.1034 58.2101 18.2157 60.0742 18.2157C62.2449 18.2157 63.9674 23.6191 65.6191 31.7595C64.109 33.4112 62.5989 36.573 61.8674 37.1629C61.5843 34.2843 59.6258 32.491 57.1247 32.491C54.2461 32.491 52.3112 35.2281 52.3112 37.5404C52.3112 40.1359 54.1045 41.8584 56.4876 41.8584C61.4663 41.8584 62.8348 37.1865 65.9258 33.0101C66.8697 37.4697 69.0876 41.8584 72.9101 41.8584C77.4404 41.8584 81.6169 37.9652 83.7876 35.2281L83.3629 34.591C81.9944 35.9595 80.6258 36.8326 79.0449 36.8326C76.2371 36.8326 74.2315 30.7921 72.6977 23.4303C73.6416 22.2034 75.0809 19.0416 76.0719 17.8854C76.7326 19.1595 78.1719 21.6135 81.4989 21.6135Z" fill="#BABACE"/>
</g>
<defs>
<clipPath id="clip0">
<rect width="86.3596" height="42" fill="white"/>
</clipPath>
</defs>
</svg>
