<svg width="178" height="60" viewBox="0 0 178 60" fill="none" xmlns="http://www.w3.org/2000/svg">
<path d="M17.6766 47.4571L20.8579 16.2674C20.9761 14.6378 21.3289 14.4052 21.9181 14.4052H22.2717V12.6613H17.0874V14.4052H17.4411C18.1484 14.4052 18.5012 14.8703 18.3839 16.2674L16.4974 34.8882L14.3763 16.2674C14.1408 14.7545 14.4944 14.4052 15.3191 14.4052H15.4373V12.6613H8.24913V14.4052H8.6028C9.31013 14.4052 9.31013 14.6378 9.42746 16.2674L10.0183 21.0389L8.24913 36.1686L6.36347 16.2674C6.12797 14.6378 6.48164 14.4052 7.18813 14.4052H7.3063V12.6613H0V14.4052H0.353667C1.17833 14.4052 1.17833 14.6378 1.2965 16.2674L4.59598 47.4571H9.30929L11.1949 31.3971L12.9624 47.4571H17.6766ZM48.0793 26.9741C48.0793 24.7626 48.0793 24.0649 49.4931 24.0649C50.4359 24.0649 50.4359 24.4141 50.4359 26.2764V44.8963C50.4359 45.5948 50.2004 45.7107 49.8451 45.7107H49.6096V47.4562H56.7977V45.7107H56.444C55.9731 45.7107 55.8532 45.4781 55.8532 44.7796V25.2285C55.8532 21.97 55.1459 20.8063 51.9645 20.8063C51.1005 20.7136 50.2306 20.9175 49.5009 21.3837C48.7712 21.8499 48.2262 22.55 47.9577 23.3663C47.6041 21.6208 46.6612 20.8063 44.1864 20.8063C42.1834 20.8063 41.1224 21.3899 40.2978 23.3663V20.8063L34.0516 21.2715V23.017H34.2871C34.6408 23.017 34.9944 23.3663 34.9944 24.2974V44.6637C34.9944 45.4781 34.7589 45.7107 34.2871 45.7107H34.0516V47.4562H41.0042V45.7107H40.7688C40.4151 45.7107 40.2978 45.594 40.2978 45.0121V26.9741C40.2978 24.7626 40.2978 24.0649 41.5943 24.0649C42.5371 24.0649 42.5371 24.4141 42.5371 26.2764V44.8963C42.5371 45.5948 42.3016 45.7107 41.9462 45.7107H41.5926V47.4562H48.6634V45.7107H48.5452C48.0742 45.7107 47.8379 45.4781 47.8379 44.7796V26.9741H48.0793ZM97.8087 47.4562H106.529V45.7107H105.938C105.231 45.7107 104.995 45.3614 104.995 43.8485V30.3493H109.591V43.7326C109.591 45.2456 109.356 45.5948 108.648 45.5948H107.941V47.3387H116.544V45.5948H115.836C115.129 45.5948 114.894 45.2456 114.894 43.7326V16.2674C114.894 14.6378 115.012 14.4052 115.836 14.4052H116.544V12.6613H107.943V14.4052H108.65C109.357 14.4052 109.593 14.6378 109.593 16.2674V28.3703H104.88V16.2674C104.88 14.6378 105.115 14.4052 105.94 14.4052H106.531V12.6613H97.8087V14.4052H98.516C99.2234 14.4052 99.4589 14.6378 99.4589 16.2674V44.6637C99.4589 45.3623 99.2234 45.5948 98.516 45.5948H97.8087V47.4562ZM161.796 47.4562H168.633V45.7107H168.393C167.922 45.7107 167.922 45.594 167.922 45.0121V26.9741C167.922 24.7626 167.922 24.0649 169.336 24.0649C170.396 24.0649 170.396 24.4141 170.396 26.2764V44.8963C170.396 45.5948 170.16 45.7107 169.925 45.7107H169.574V47.4562H176.881V45.7107H176.527C176.056 45.7107 175.936 45.4781 175.936 44.7796V25.2285C175.936 21.97 175.112 20.8063 171.929 20.8063C169.808 20.8063 168.63 21.3899 167.805 23.3663V12.0778L161.206 12.6613V14.4052H161.914C162.385 14.4052 162.621 14.6378 162.621 15.6856V44.6637C162.621 45.4781 162.503 45.7107 161.914 45.7107H161.678V47.4562H161.796ZM27.1032 47.8055C32.8775 47.8055 33.7022 43.034 33.7022 34.3055C33.7022 25.577 32.8775 20.8055 27.1032 20.8055C21.3289 20.8055 20.5042 25.4603 20.5042 34.3055C20.5042 43.034 21.3289 47.8055 27.1032 47.8055ZM69.9973 47.4562H76.95V45.7107H76.5963C76.2426 45.7107 76.2426 45.594 76.2426 45.0121V26.9741C76.2426 24.7626 76.2426 24.0649 77.6565 24.0649C78.5993 24.0649 78.7175 24.4141 78.7175 26.2764V44.8963C78.7175 45.5948 78.482 45.7107 78.1266 45.7107H77.7729V47.4562H85.0826V45.7107H84.8471C84.3761 45.7107 84.2563 45.4781 84.2563 44.7796V25.2285C84.2563 21.97 83.5489 20.8063 80.2495 20.8063C78.2465 20.8063 76.95 21.3899 76.2426 23.3663V20.8063L69.5255 21.2715V23.017H70.2328C70.5865 23.017 70.9402 23.3663 70.9402 24.2974V44.6637C70.9402 45.4781 70.7047 45.7107 70.2328 45.7107H69.9973L69.9982 47.4571L69.9973 47.4562ZM132.926 47.9222C135.282 47.9222 136.225 46.7552 136.697 45.3623C137.168 47.4571 137.64 47.9222 140.35 47.9222C143.531 47.9222 143.885 46.06 143.885 42.4522H142.353C142.353 45.1289 142.353 45.3614 141.762 45.3614C141.291 45.3614 141.291 45.1289 141.291 43.6159V26.2772C141.291 22.7861 140.109 20.9239 135.989 20.9239C132.689 20.9239 129.507 21.855 129.625 25.4628C129.743 27.0925 130.333 28.7213 132.1 28.6046C133.632 28.4879 134.339 27.6735 134.339 26.3931C134.274 25.7788 134.084 25.1839 133.78 24.644C133.477 24.1041 133.066 23.6304 132.572 23.2513C133.237 22.9576 133.967 22.8373 134.693 22.902C135.875 22.902 136.107 23.8331 136.107 25.4619V30.3501C130.097 32.3282 128.919 33.1435 128.919 40.5916C128.919 45.8282 130.333 47.9272 132.926 47.9272V47.9222ZM122.673 47.9222C127.151 47.9222 128.212 46.6418 127.976 39.3104H126.09C126.09 45.1297 125.855 45.479 123.851 45.479C121.376 45.479 121.376 44.432 121.376 34.5398V33.7253H128.564C128.564 23.7172 127.383 20.9239 122.672 20.9239C118.311 20.9239 116.073 23.6005 116.073 34.5398C116.074 45.013 117.841 47.9222 122.673 47.9222H122.673ZM63.7529 47.8055C68.1134 47.8055 69.2917 46.5251 69.1735 39.1937H67.2879C67.2879 45.013 67.0524 45.3623 64.9312 45.3623C62.2209 45.3623 62.4564 44.3153 62.4564 34.423V33.6086H69.409C69.409 23.6005 68.4662 20.8072 63.7537 20.8072C59.3932 20.8072 57.1548 23.4838 57.1548 34.423C57.1548 45.0096 58.9222 47.8063 63.7537 47.8063L63.7529 47.8055ZM144.239 47.4562H151.427V45.7107H150.836C150.365 45.7107 150.245 45.4781 150.245 44.7796V12.0778L143.528 12.6613V14.4052H144.235C144.706 14.4052 144.826 14.6378 144.826 15.3363V44.8963C144.826 45.5948 144.826 45.7107 144.472 45.7107H144.119V47.4562H144.239ZM92.6244 47.8055C95.9239 47.8055 97.5741 45.7107 97.5741 42.4522C97.5741 34.8874 90.7371 30.5819 90.7371 25.2285C90.7371 23.5989 91.3279 23.1337 92.5046 23.1337C94.272 23.1337 94.5075 23.8323 94.7439 26.3922L94.9794 28.8363H96.9841V21.0389H95.4521C95.3339 21.97 95.0984 22.3193 95.0984 22.2059C94.6303 21.723 94.0605 21.3475 93.4292 21.1062C92.7979 20.865 92.1206 20.7637 91.4452 20.8097C88.6168 20.8097 86.0246 22.0901 86.0246 26.2797C86.0246 32.9134 92.8616 37.9175 92.8616 42.9215C92.8616 45.133 92.3906 45.4815 90.7404 45.4815C89.2085 45.4815 88.7375 44.7829 88.5011 41.5244L88.3829 39.3129H86.2618V47.4596H88.0293C88.1475 46.5285 88.5003 45.9466 88.7366 46.2925C89.3275 46.8761 90.0331 47.8055 92.6253 47.8055H92.6244ZM152.609 41.9871C152.609 46.1767 153.199 47.8063 157.44 47.8063C160.386 47.8063 161.093 46.6393 161.093 43.3841V38.9611H159.326V43.6159C159.326 45.1289 159.207 45.3614 158.618 45.3614C158.029 45.3614 157.911 45.1289 157.911 43.8485V23.017H161.21V21.0389H157.911V14.4052H156.025C154.729 20.3404 153.55 21.0389 151.783 21.0389H151.312V23.017H152.494V41.9871H152.609ZM27.1032 45.4781C25.8067 45.4781 25.8067 44.7796 25.8067 34.308C25.8067 23.7214 25.8067 23.0195 27.1032 23.0195C28.2849 23.0195 28.2849 23.7181 28.2849 34.1896C28.2849 44.7762 28.2849 45.4781 27.1032 45.4781ZM85.4346 22.2026C89.9124 18.9441 90.8552 16.3833 89.3232 14.1726C88.6168 12.8922 86.7311 12.0778 85.4354 13.2448C83.7853 14.5252 84.2537 16.8526 87.2029 18.2464C86.6121 18.8299 85.4354 20.1086 84.3744 21.0398L85.4346 22.2026ZM135.164 44.547C134.103 44.547 134.103 43.38 134.103 39.8922C134.103 33.4911 134.103 32.6767 136.224 31.513V42.4522C136.224 44.1977 135.989 44.547 135.164 44.547ZM62.4555 31.6264C62.5737 23.3638 62.691 22.8978 63.8694 22.8978C65.0477 22.8978 64.9295 23.363 64.9295 31.6264H62.4555ZM121.376 31.6264C121.494 23.3638 121.612 22.8978 122.79 22.8978C123.968 22.8978 123.733 23.363 123.733 31.6264H121.376Z" fill="#BABACE"/>
</svg>
